<mxfile host="Electron" modified="2024-02-14T08:49:32.065Z" agent="Mozilla/5.0 (Windows NT 10.0; Win64; x64) AppleWebKit/537.36 (KHTML, like Gecko) draw.io/21.2.8 Chrome/112.0.5615.165 Electron/24.2.0 Safari/537.36" etag="dceSGTEN6k5fLEioAuQe" version="21.2.8" type="device">
  <diagram name="Page-1" id="2XWkQP5S-hDbL94sL5Vg">
    <mxGraphModel dx="2058" dy="1180" grid="1" gridSize="10" guides="1" tooltips="1" connect="1" arrows="1" fold="1" page="1" pageScale="1" pageWidth="3300" pageHeight="4681" background="#999999" math="0" shadow="0">
      <root>
        <mxCell id="0" />
        <mxCell id="1" parent="0" />
        <mxCell id="OFI7zE9tUY9UPtECGpIP-1" value="Multiple signal parameters" style="rounded=0;whiteSpace=wrap;html=1;fillColor=#dae8fc;strokeColor=#6c8ebf;fontSize=30;" parent="1" vertex="1">
          <mxGeometry x="600" y="70" width="850" height="120" as="geometry" />
        </mxCell>
        <mxCell id="ba5oA6UK62sS7kmuCYzN-1" value="" style="shape=image;verticalLabelPosition=bottom;labelBackgroundColor=default;verticalAlign=top;aspect=fixed;imageAspect=0;image=data:image/png,iVBORw0KGgoAAAANSUhEUgAABCMAAAP8CAYAAAB8gHS8AAAAAXNSR0IArs4c6QAAAARnQU1BAACxjwv8YQUAAAAJcEhZcwAADsMAAA7DAcdvqGQAAP+lSURBVHhe7P0NcBTXnej9/7ymyg4kccjIjCAB49yNEI4kY7AdrwWy2IdsrjdZ4E9klZz/v57KFpflpdh4H+e6yqF8K0qti7ielF1Jrsvgy+Wun+fWvdbFRAVsvN5s+C8YJNaxg8kDWizPbmL5JYBgJtip4Jcqb/k5p/v0qGfUPdPdM9MzPfp+qgQzLfV0n3O6e/r8+rxc1XXzso8EAAAAAAAgJn9g/gcAAAAAAIgFwQgAAAAAABArghEAAAAAACBWBCMAAAAAAECsCEYAAAAAAIBYEYwAAAAAAACxIhgBAAAAAABiRTACAAAAAADEimAEAAAAAACIFcEIAAAAAAAQK4IRAAAAAAAgVgQjAAAAAABArAhGAAAAAACAWBGMAAAAAAAAsSIYAQAAAAAAYkUwAgAAAAAAxIpgBAAAAAAAiBXBCAAAAAAAECuCEQAAAAAAIFYEIwAAAAAAQKwIRgAAAAAAgFgRjAAAAAAAALEiGAEAAAAAAGJFMAIAAAAAAMSKYAQAAAAAAIgVwQgAAAAAABArghEAAAAAACBWBCMAAAAAAECsCEYAAAAAAIBYEYwAAAAAAACxIhgBBHHDHfLY9+6WHvMWAAAAqIbF99wrj93XZt4BM8dVXTcv+8i8nhGu3fqoXNc1Xz48vUtyu46bpQn2xW9J+hsrzJsp7z/1dXnn5+ZNzbTKXy3fJH/+MZGJNw/IujfOmOW1s/T6P5atC9vlro+lzBK17fdelSNvHpMfXLpgllRZ993y2KYbZcH51+SJ3c/JsdfN8sRrkXu/1y/r5ouce/aw3P9MxixPIB0s+u5yWWDe5p1/WR789gsyYd4CM1cTne8+FnffIfd89UZZMX+uWaLSqq7bL/3kJXl6NGuWFGv+fAGC43yoFx2MeOQr6tp16rAM/JB8x8wxs1pGLByQOV3qCqvMSn9GZlmvkm3W/GnVL+WkfFDzQIQy5yZZ/TH75eKFS+XP7Je1c32/DLV1FwQitMUfWyJ/nrrevKsyXcnVgQh5TZ74dq0CEfrLf5sMfe8OWWyWxOKGP5Tb7NNBFnzl39HqI3Z1KnfUGed7TXTfLY9sWl4QiNAWzL9R1t36afPOQ8PnC9eJmYnrxEwz8czT8uCzl0VuWSOP3dNilgLNb2YFI958QT6Y1C/Oy/u/fEE+tBYm24cHviWTW79ufnbIFZ2+yd/Ek7YrZ+XIe/bLiTdfkb+1X9ZIp/yobYn1SrfCGBj9a7nZ+fnlHnnozUvW76pL3Qxs0U/bL8vB7zwnx8zSpvH6v8pL5+2X5579VbLT9/oLcv83npCB/M9hOWl+BUBppvN9mjZ5YNON1iv9NPdB97XgO/vkiQO/tX7nqanzBQiJ86GudEDiiVM6EPQlufcGsxBocjNszIgJ+f2grrR/S9450IwNtxfK1Wn1X1zBCLkgP3jZDgjUvIvGnOvFui6/NyoPqm29Yi00rlyQv1U/1bb4ni+Zpoo/k6ebpmuGW1ae/rZ9w05TTKDZNfH5fsOnxXqYe/5l+ZFKW8G3++tZOaZ+/HEdBKZwPtTbsR/qhylzZd0WWkNhZmAAy2byxdvlWvXf+y83wVgYddcm9+i+e9bNbakb2Wr4tHzWNIvETEK5z0yUO8LgeJmZKPeZKyPP6O4a85fLPd1mEdDEEjWA5awvDsicu2+Ta9POFfq8fHj6JbnykyF5/02zyM1ncEeZPCS5waEArQcWy7Vb/9IaZ8IZX+LD04fs7S3Qn71Aruz8lvw+v+3F8vHBnTJncpdMWoNjqvXXf03mfHmFa/1d8o76nfe2w26v0Kz1j0rqy1Lyb6KbGqzSy8Sbe2TdG16tE8x6MioDL/+jvKLe/1n7BvkPqVQ+4juRG5UHx/XvCi1d1C+PLFyS/ztfuQNy8/j0lhn2YJd6jAmzQHJqW8fVtopaVnjpvluGNt0o557dJ/cHCka0SM89t8n65TfKgvwNxGU5d+qk/OhARiaKW1boQTG/6v7bEjwGM7IHOhI5+J2n7VYbN7TJvetXyG23zM0P4nhOrfcjtZ79lFD3P7UHpfLin06znjgDQap03vclWV+wnZfVdvwHiVys0vrNMmkNns9BtckDT62RFWEGsPTKwwCD38VZ7uFVXn5h8qXnvm2y7ZbX5IlvvCSfUdtZp9bR+XFyz9Py/VG1L9OWWasV8tnegYYaPJbzvd7n++J71Ha+orZj3vsqyM+o+WILXw4OrhNuXCe4TsR+XxDi+HSLvJ+VHp/OoNxVOb+BxpaclhFf/JakvrHWFYjQVKW9a61ct+NRue6L06us3oM7qgp+kPEiFg5IatdOa+YN90CX9va+Jdct10GOc/Khu9K/8A65Jq0+/7xa6KzvCkRos7q2ynXrParXJben0ue1vSKz5uu8Kf03dfOxFvnDOZ3yo+Wb5GFXIEJbnOqWoeV/LEvN+ykt5QMRnnQA5D+ZwS7NIovabmq9DHVvk7+aYxb56LlV9z++LC+9GOSLUFV81RfzNn1jXPCFpb6Eblkjj3z3XnnAYzCiQDccAegbkKHvrrFu3txHvH7te+MY1vy5skh9uVrpLN7OLcvlEZ9BtnruUzdHegDQKqW1NvTNr08e6sHvNvXLA55PJ+pb7qFEKr+o+fIpWa9vVNU6trmy4qt3qM8qWrZp+lS5vsey2t62725rkEG9ON8b43z/VMF+xS14OXCd4DphFlniKXeuE46ox2f0/azK8emM3XELg4ii+SWkZYRpcZA+L+8/9Z/lnZ87l9LFMuuLX5PrvqEr/OfLtwgwLSXKT3u5Sq7btdXq8pBvmWA+d5b6DHt7SnELC/P5H06qK0h6vsyaPCnv7P2xWlfvr271oIMN6uVpp+WEY2p7+jPf2RtwewXMZ0z77NpaumibDC1MlW8Z4Wqd8DeZ4fw0nEutGTLsgSmfz/y1fNNvHMo5fywHl3XL4vecFhb+nH3S23pebeubzpSfczrlr5asN/vyqjw0us9n0E0T9Z+vn9yUH7hSf/FY0zGdL576s0UWd99mRdXl5VIRfvVlHvIpvrPNk6dekxW3qM+3tv2Sq2+02vYN2elPXoo4n1P2CUj+y/iyHNzzs/yTBP3UQH9Zayf3PFH4BEv9Trcumb7OHfLNTXpg0GD5G02IPDX7aT+1KMzDnnu+pG4m9Y3x9H2tR7mHV3n5hckX+4mnfqUHfdVP59zbn76sYJuu4+XksyflGVfff+vplPqdPZiseepXJ5zvpY+X6evEcL47TxEjnkvl88UWpRzqcbyEx3Wi2upR7lGOTy/lz4cEXSciHJ+WqPvpWq/S49MuB1dLF6BJJWvMiMmX5Eo+EKFNyIc/f1RyW3fIOwG6JtgtJc7Lv52z3/u5dqsTiNgluV2FXUCs7T1lj9Nf3MLCaYkxS7fe+OkOmRx81AQitAl5/yeHPAMJzvasIMWg//ZKDky50J6q1GqV0aje0wGAJ/KBCO2VS/vkoZz9+oaPtdovKjHnj+URE4j4m18+MRWI0K6ckR+8vEf+xpoBZIn8h0V+2zN9Nc9fljfsBYGce1l/0Zk3FvWlP/qc3P9tPRCU1xd65fQNh75hGLCmHXVvo/wNR2j6xuYb6kvRfClrOn165Gdt/oLCaP/iBZ+y/tfNbAvXeUHu3/OaenWjfNHniUSsVBoe/I4qI488PGZGttZP8T7jM7J1Pco9kpDlV0m+TA36mpV/evnytGW/mRa3VDe3+uZcsZplu27gNCs/rWNmrtx2eyM89eR8T+z5XgVRyoHrhLWwANeJ2pQ71wmXiMdntP2sxfE5Vz77WfMSaFIJCUZMyId6ysr0Wrlu6yqZtdBeOkVV9MvWwRfLtctUDXPypdJ/u3BA5ujWC7qFQpkWBh+ed19mdDDCDhO//9QOyZWYraMgYODaXq7M9koOTLnACUb4b7e+cvI3r3q3RPjXd000ohpmt9jNAnPH5QdXrCVFLsgP3nzVerW45SaPriHhTbz4muj4lp6K6YF72mSxT6W1Jk4djulG9rIc1E93zDu3N87ZN5FRTLuxrZP8DdoNLdLTfYc8cN+98tj37pWhp5wneNNvCOpa7qFFK78o+aKdPzf9mHQvm7ZNZ2778y/LM+6naG6jv7Kma12w/A/tc7xOON+Tf75XLEQ5cJ3Qv+A6wXUiuGpfJ6Ien+VM288qH58T5942r4DmlpiWEe/v2iHvnD5vjbmQ2vE/Jb3rUblu/Sq7+0Igwaa9nLXiNrtSX2JcCe8WFotllv58dZn5oKD1xpT8Z7sCBtG3V+haa0wJvW37/Uy19GP2l8PEu379PZR3s3a0Wo9jYS2o0OsvyP3feVlOnp8rK76i+4Jus77khtSXXa1vQs6dKzF/fp05X6RWn193Hug+plYzxsIbz3rSTS8f+J4qs+/2y7ZNy2WF7us5XzffLKGO5R6XSPkSxWfV5+r/5y+XR3Qeev6sEY/hiOPH+e4pSed7pUKVA9eJ6uE6EQjXiUJRjs9I+5mk4xNoIAnqpjEh7+/6lkzu3CHv/PSkqrjPl2u/vFVSVlAiQPw74LSXduuG8/LBSb8WBqaFhRQPFFk+2OF8tjuoEH17biYQUibQghpSNx7f//YTMvCdffLEs6+pG5DLck592Tk3IY/dp24+zJ/OGPmmmvagTfkv4++aL+NTh/2fHsSpW/dvVTco1qmoyu7Zw/KEKscH1Y+ea91pbuqpmcu9knxpdpzv0yXlfK8HrhMzE9eJ6eK+TkQ9PhvgeuZ0FQGaXbLGjNDenJD3D+hxIr4ukzt3yfuTOijxl/LxaV03CgUdL6IsM2PGtIq/CXb4BwSclhNhZ7sI0qIjWKuPmWTx7OvNKw9OV473svKv1oJiv5W39CjG6qZhkb0guNd1P8Tn1A3I03K/+qIb+M5hdQMi1ujZ3yw3gnKU7TU8u6lm4WmnB3Y6LA9Om/6uHpynHJfl4B67j63u56n7lk4U9C8to+nKvUr5EtRb6iZd/69u8PQNYsmfmg3iF0HTlXulGv18rzOuE5XhOtEk4rpOVHp8htzPmhyfl+Wtt8xLoEklIBixyh4nwrwr8OZxeec53ftqvlxttY3yF27ay/lyzQqPePXCVfLxjWvtfSmq+DuDV/q3vCgVMPDbfz0DhzPLRolAgwmENPTglTF5JTduX+BTq3ym72yVv1poz94xkT3rMyuHM3CW/6CFbou7SzzdeD0j3/+JHrBI3Xgs+LT1v79g20uM7rut/pgH9eBRBV/E0wd2qpmgN3LnX5N/cg1SNaVFPmNeFZsR5R4hXyLJT2O2Qu6tKC/UzadujvuU/dSxFjjffTTC+d6AuE5UEdeJ5KvHdSLK8RllP6t2fGot8kfLdVeSt+U31R50FGgwDR+MmLV+vVyrx4kYfFSu++LiwqDEwlVy3d1Bel85rRJWyBxXl45ZX1wl1xa1qHj/ZXvmillf3imp9fr3al0dhNj6qKR2bJU51udMDzp4dcEo4AQMisaG+PC8vnKJXPuNbxXsy6wvDsh1g2YqUCVIoGHWsjumPkPt97Uqv2acK/8o/9UaDzMlf75sm/zoeteMGXpqz/w0o6/Kf/WcitR27Bf6RiHAiMc36Gme1sgjT91rN7m8ofDvF7v6F/r348zIz63mgHNl3ZY7ivon6gGXyuxDg7KbGM6Vz9ZlVHPTukVulPW6f661TFHlUZC/jvnL5Zvuv1M3Anoarsf09GXWAFdFZkq5h82XyLLytHVzrvLCmn9f56n9G5vKj3vUdp+6u+Sc64vvWWE3x1UWVOWGsAjnu6/6nu8NiusE1wmuEwXqcp2IcHxG28/qHJ8WZzDMU7/yHCAUaCZXdd287CPzumHNWv+opL5svjm8WFNwHi/ZRcHvM95/6uvyTtGgj9du/Z/5IIDbh6cPyZXzt8l1X1Z13oKpRBfLxwd3ypz0SXln66Pyvlnq5mx/+vZWyXW7TOuHYpPq8365wGN7xXw+Q8/QMThUMl8qtXTRNhlamJKJN/fIOs/KfasJANhTbXrNcFH+M5Q5fywHl3XL4vdGZeDlf/Rp0eBwtmneTuO/L1PUzULAOb714Ej3fNX0SfRT7nPUzYs1T755W0hPnVU4YnX5ecCDCT6f+GXfua59P6Nkmmx67u+XfvJSwdRZ1eLs1zS6CeUPM+ZNib/T1P498bLItq/cKMXzpdej3MOLXn5R8qXnPnt0cvcy53PKLdNKblNT29Wjt3ulQytev9Lzwwvnu89n1PN8d7Yd4HrtJWj+RikHrhNcJ3xxnfBUzetEyWPF5/i0VLCfJbeplTk+Neczpu0X0IQSMWbEhwf0wJW75Mrp84WtCibP29NolglEaB8e+M/WbBxT1Lo/VZ/pMfvE+7u+LrmnDsn7ent6G6cPyTs79XZekFlVHLzSdlx9tp22PCddg4+azyvXvUR/htpfPf2p8eHkSbnynP8MHc3tgvzg5b+WgcyoPP+eWWTJyUTugAyMlgtEaBl55tnLJqJeOjKu553Wg1Q9uEePnG33MXToLyvdV7HsDfLreuRt3Y/Ua/2XKrzRrJPX/1UOnCpMT7EF82+UdZv65YFqzituTDzztDz4rD29Wp7Oz18UPomy/m6P+ruCy4NdbtY87T6tnZq93KPmSyX0NnV/6oPquCksN9NPV2231A3cxDMnrb7YtcT57qPO53uj4jphllUR1wmuE0FFPj4r2M9Kj0/9MOweHcw4X2KKUKCJJKJlROMwLRBiaHGARlA++g8/Ju+k1JOfFum5r996QlaLJ1OYwbrvlqFNN3JcxYbzHQnEdSJmSblO1Hc/7ZZD3Hdi5kjebBp1ZI1fof4vHvcBzSorT+9+Wc5Z/f8C9PHDFNPf8dzL/1riyU9W3jhX+skDEIXd3/eyvPQiFYxYcL4jgbhOxCwp14k67qfunmEHOH5GIAIzBi0j3BYOSGrHbfLhTw/IlQOurh96AMuvrpc5Xbqrhf+4EGhSeqCjTTfKgvOvyRO6WZ9ZjBLy/S0vy8k9P5NnRrMFX+p6AK8/Wr9C1t2i+1VWo89zcyvbB7XADM9P59grGhsENcT53hC4ToTAdSJ+SblO1Gk/8+cvxyRmGIIRblYwwkzd6el8mYEk0bT0l9OWuXJgt/rSIVodiDNIWUm672aZgZxAJSOYFpVPt8k3v0LgsB443+uP60QQXCfqKSnXiXrspz5/v7ngpNxPIAIzDMGIaRbLtVv/0moFkQ9K6AElf1nUWgJAWfaI4jfK/PlzC0al1gNw6VGo9dzf/s0ggTDsGXDmnzosP1I3cxxX8eN8R+PjOlFvSblOcD0D4kEwAgAAAAAAxIoBLAEAAAAAQKwIRgAAAAAAgFgRjAAAAAAAALEiGAEAAAAAAGJFMAIAAAAAAMSKYAQAAAAAAIgVwQgAAAAAABArghFAE0p3rpHNWwekw7wHAAAAgEZyVdfNyz4yrxOuS/oe2iBtuRHZu+uwTJql5UVdr7Y6+rfL2rYWyWWG5cl9p83SBOsckB3r2s2bKZmDg7L/jHlTQ3XJz3SX9N7VI0vUdlNmUS4zIgf21fY4S6/eLhu7W9TGRuTQ8GEZa5SDOg51Ps6AphXhetZ032MAirSq87xPui/tlyePXDDL6qW56gHATNE0LSPSq3ukTbJyQlW+wlxIoq5XU+k10q1u4LRUap6krVfJlm6x01NoXMbjqCDWIz/VNjdv2iB3um7ctVTbStlYwxYLHf2DViBC3/zrL9UZFYhQ6nqcRaSDRzseohULGliU61lCvsc4/4BK6ACEui50b5G+TntJvTRVPQCYQa5Ot7YOmtfJpW56/n/r22V25u/lv78Y4lISdb1au/KufOILt8rC2VnJnDoqL0383vwiua5MvCjHjx01P+NytU7fe+My8otfyxXzNzUTe362Su//vkGWzNZPDofl6V3/S/7epD1zuVU+/u5ROVqDfdCBiLVtapuju+XJZ39V+3xtQHU9ziJpldvu7mnwfcTMFvF6lojvMc4/oFIX/9n+rl12S6tcPjYmF83yWDVbPQCYQZqiZUTHXSslJeNyKGQz0Kjr1d4FObprUHY+/Ljsr3uzt1qYJy368VruYkxR6JjzM90hS3T6TNNkdxonzwzVZB/00718IKIpj5ko4j7OokjCPmJGi3w9S8L3GOcfUDl1ro+Mq//bpXt1q70oZs1XDwBmjuQHIzoHTCXsqIyZRYFEXQ+V67xJVNZL5pXmvPinb2q3mjLHlr70Gllvxog4QCBiShKOsyY/F5B8sV/P4sT5B1THmaNyIieSau+Iv0sW9QAg0RI+gGWr9G7dIndK2EFnoq4XjJ7JYNXKdmlLOf3Xs5LLjMvo8z59+H0G3dOVy2D7ZwYQcvXn1QOLWdubpz+7RU7seVyO5j/IpD83LDutaLBaf3WvdHfbN52abo57oOgp2JSw2yukn+Jv7JaSf1ORyPkZNV+6pG9rj6u8/YzLoYeHpn/ppdV27irMT8mNy4mRo3L0TPnggt09I1smP03aUj774EjrvuErJaXSaeeBW7Ryn1beaZVfG1z5pdJ6aFjtk3/BRBL+OIuYvlDne9BjRStTVoHFeb67tvW8WAMe6nEGrONZlfFRlf5pyzw2mlbn8HqVp6n8CZGVzOgxOX7Ebx/jMhPOo4jXswq/x6Kmj/OP82+apvgei7af0dervNyn5VEszDHRYPUAAMElu2VEZ6/6UhLJjIS8kERdLwh1Md+4bmXRzY76UmhbKWs3bZe+zulN2LwH3dPfbWPl909/6T60RVVGp754NHt7A9K3VN8cZiXr/iDT7DZ36eLU+q4bIy3VtkHWezW3K7k9lT6v7RW5/nqd3tJ/U4nI+Rk1X9Lz1Je39zbL0V/+mzdNz09Jtcud67bI5nJNHtV+dluP9o6V+fK/IK+MZ9X/LdLi+9hCfTlv0E0Ws3Li+aIbuArK3V3e+mZlx6YNheeH/sAaHAuhjrOo6Qt7voc5VnJZuWReViTW8900e5ebpM8MeGhRx/OSu/SxXrjszru67Nd5urI4qPLUfUOstUhb9wbZuHVNnQdCnAHnUcTrWUXfY0qk9HH+qXecf4Wa4Hss6n6WXM/nftBSnXKfzJqymWe/j0Uj1gMAhJLglhHq4tlwU/iYSGsqK5mD+2V//ql2q6p09sp6faHXX5DlosbqBks/YSo/HaFJi3qVj3ybz7Ui3Nb2lOK0ms/PqZstUV+mKSuif1Stq/dXR9X1l5l6Oe2pwtT29Ge6p40sub0C5jM8n1jUSND8jJwvbiGOL7M9rfDJmDpeVvfKRnXDqm8cSh0voZ5EOOnzG1fC9/eVlLvr6cNIi3WzY6VV3SROWn+o8rVTZCxAC5BwwhxnUdNX6fke4liphFOucZzv+mZYP5HUr9Xn7dXHtNm+pXhZwTad7ZmncWedY0TR00puUBUp9cF1n6bVyc+ZdB5FOUZNPgQrryjp4/zj/PM43n1/n5TzL+p+Tq0X6n6wmuVujj/xK5uqM/vuWWalRF0PQC0ktmVEQ0/ho242jhd8KV2wBvp68uHdcihApdF+wpSVbJkhiTv6nS8ePbDY1BePZm3voB5QSO9O4ZMp5wmW9YRIfWns3KWbFjr7e0HGnh+RnHnn5mzPuoFRF3C/7ZUcDEw/mVL/WU+JYhI0P6PmSwGTvvIDoqkvQ3VzoOkv+cKB4dTxcmRI9o7aTxmW3OTXOqJVlrarfVXH2yulN2a7mLX2P3W912MLdbO1Uu2P+nIuHneisnJ3ntS1q5uhFpVWdZOi05r/Q5WvVa9AKSGOs4qP66jne+BjpTKxnu/zzBM5fZPnHNPmuCtYZrjLx96eqqipPNuvmwW7/3DytBwdtvcz1eJ3PsRkBp5HUY7RoNddWwXp4/yb2n/Ov8Sff1H301kv7P1gYsrdA1N5As0hmcGItBmwr2zT9CJR1wvsgmStq/ZKWd/fJelp7drUF1bZ7QasYKq0WM3z9Zeu+lIsJZct/JK0mxuqbNBfqCWi1wUVOdf29A1NKSUHAzM3S8X7VDvBK+yR8qWYk74ylWD7y1D9nbo59XvaMHl2vMRNl2ZukILeTE+OyavWB06f8z+9us9++lHcZLHScndu+NWNeO6gutmpRYXJS9DjrKL0VXi+m32s9eB5cZ7vTsWr4Dhy0ula5vzdVPl0SbvenrrZX7tpUHY85PHjPPGtt5l4HpW5nk0XMlAaKX2cfxrn35TEn39R99O1Xrj7wQSVezGV5sasBwAIK5HBiEaewmds3245lMlafUA3Whf37dK3Wt0omd+XF6yC6YxwXqo/rn3DUfxkqtVE+Mdl3OcLNf/Zri+t6Nsr1GH1WdTbtt/XXtAKe7R8KWanLyuvnvX/G83pf1ru70oyN0jBKwrOzXuLXG8vMLpklfXlPDwtMFJxuTuVmRJBl1oIepxVmr5KznfnWAn25DiqeM9357h2L/NKp/13rvIxsxokw0w7j6Jcp0IGSiOmj/OP829K8s+/qPsZOX2JKvdCTOUJNI/kBSM6G30KnwvqBulx2blH3SSN6ifbZgAg6yYpQDO3gFONla/MmidT+sun4NvJuUn0H5zL64Ym+vbczI1ZiW1XXeCp26LlSyHnxrNUHmgB/865ASoTbCgVHCl26ZLu+tEu7Z32e81uppmdPtiXUmm5R6/MVCL4cVb5cR31fA96rFQqzvPdecrmXuaVTvN3rn2yb5TVeXpwUHY+XPonnr7Ipc2o88hnn0oKfN21RU8f59+086pgGeeflpTzL+p+Rl2v6uXu3LOEuCeJpOHrAQDCSFgwwr8/YGlR16vApLpJOqL7raoL+Z5hyeT0TVKf9JZ5ZOMZvY7CjOA97SbIiYT7PrGKepNW/qZr6m8CPi2rgsD5WZV8CZIHQZljVvH9Yjdf/GHYo13rh0rmRt0078yN7o/YZLFUmuO64S9WzeMsYJmGPt/N52bO1vamKM7z3WnKXJAmj3Q6f+exT43YL9nLzDqPwl/Pwn2PVSF9nH+cf013/nmJeE763Q8a1Sp3O2hTvkViZRJUDwAQSKKCEb79AcuIul44XdKn+62adwUmT8v+ET14UPkpj/JPSQLtqM/ghtYIyKafX9ENRz4S7vvEqtSXnd/+6xHB7cGT/G+6FHNjFr7/cXRB87OyfDFK3OQVMs1Mi57suDnHrP7iPO73xe4M5BXmRuLMWcmo/+xxKNSXs3WcjMtoyS/nqOUe8capUqGPsyjpq/B8d46VGov1fPdqyeNVFh5/l69ctHf4NrFPd7aWaX6vjuf+7VY/582qbGpqJpxHga9n04X7HouSPs4/zr9mPf+i7mf4+8HqlLtjeoubWmjsegCAKBIUjPDvD1ha1PXCsQYk1P1Wt2635jYvuHirL4M+85S7NCcC3y7driam6c4u6Sj6Nhh7xR4ZOdW9RTav1r9X29RfOupmwJpL3Pqc6TdB+ZtE171JAefmpajvod0sUqRt3UDBvqQ710jfVjM1mVJw0+NDf/HlP0Ptd0fxXPBVEzw/o+aLm9Nv0//Gc4pTfm3r7OMlz5ThRn3Mqv2p/mjPF01/23kqH8w82weHfJ8OVlTuFVRmqiHIcRY1fdU535W2Hul17Zd9Dq+RDvO+UnGe707Fq6Dve8BlTuVCD0ao57Qv2KZzTqzbIqt8gneadbPZZn92SudrQaFUW/OfR2GuZ4WCX3ctEdLH+We/5/xrrvMv6n5GvR+sRrnnmWO51g/9GrkeACCaq9OtrYPmdUNLr75HvrToXVU5+1uZuGIWBhB1vbCuTLwomas7ZPmSFlUJulWW9/TKKudnxVJJzVZ/pC6EB45Miv9u/F7e+4T6jEWzZfaiW/PrL29fKle9dVTOur9/Lo7J5dZeq+nd7EVLZckKtU21nYVqQ+9lRuTw+GxZotL96vEXXelulZt6bpWFs9+QU8+Nqa/z6dJfUNtT23/r1E8Ktndl4n1J96h06Oj7iqm0LW9fJKn3xuXQKbG298uf/qN/Pl/8A/szZi+a+gy130uuf18yv/h1iXyJKmh+Rs8Xtxtv/1NVHtmiPPeRL7/Z1vHi7Js+VnQZWoGIUtPSaVfelU98QeVfS5j8+718/HNquwtnyw3XL5LZ743IgWf9162o3D93u3y5vUXdaD8vJyd+bxbGIMRxFjV9FZ/vpuwWzp4tC13lb5/Di+Sqy0XneyTxnu9ex7+9bFxG9zvbb5Xb7u5R++Repk3K2cutskr3a3aXWz5PZltT1v1Dievnx2+83UqL7V158+UA52FkzX8ehbqeFQjxPaZFSB/nH+dfM55/kfcz0v2gVnm527qk7y9WSUp3gShRDpVq9HoAgGiS0TIiIVP4TB7RA2kNy4mMmdfbyOWyoqf10lM1lduNySP7rdHBp6h1R4c9m+qP7RuUvQdHJKO3p7ehvnQO7dHzX49Ji/5y0U9kCjZYvrmh/5Oc07LfpC3PSdeuIfN5xdsrpj9D7a8rc3K5cTkx4t/aoFLB8rOSfHGE71dql9+4ygOzQNN5qvZv78NlAhEWZ1Txdlka4imU/RRF3cSrG9fyLS+il7vnE7hYhDnOoqevsvP9ghzdtbtwu4rez0N7Bqv09CbO893r+DfLCrZfYp/ODJn+/kV5Yl3XBu15/c0yL85UuDbvMqum5j6Pwl/P3MJ8j0VNH+efx7nmtaxg+5x/eSXzc0q851/0/Qx/P2hUWO6aM1V5TVtFJKQeACC8q7puXvaRed2wOvoHZW2bukl42L8Znpeo6yVfl/Q9tEHaciPqC6yWTeZQd+qLdrOeBzwzLDvVTQMws7VK79Ytcqdw7QPix/nXeGp8P9g5IDvWtavKfm3vQagHAM2r8YMR5kKn53cONaVU1PWaQHr1dmvMgZmY9pnI/rIN0K0DieOcy8Fww+Vc9/VUdfQNRqU4/0Li/Gs4tbwfTKvy3qgDEbV+8EU9AGhqDd5No5UpfLzop+HWPOpFo4k7Aw5ZN0/lRpZGsxh7fkT0/Pp3bhqo2sBraAx2M24Eoq+L+sY4wyBlqA7OvxA4/+qjTveDVpAjjkAE9QCg6TV0ywgnohs2yh51vcRwmuabt9PxlHzG6RyQzSuzMjp8WMYod8wordKxule6u+2KkO7jDCAunH91Ffv9oOmKozaoB7c8EGBMiUpQDwCaXyLGjIAXPed0n3S3tUx9CelBi8aPyfEjtf1yAIBG0dG/XbpTOhA3RCAOiBnnXyOI934wvXpAVmWPqko+LQ4AVI5gBAAAAAAAiFUypvYEAAAAAABNg2AEAAAAAACIFcEIAAAAAAAQK4IRAAAAAAAgVgQjAAAAAABArAhGAAAAAACAWBGMAAAAAAAAsSIYAQAAAAAAYkUwAgAAAAAAxIpgBAAAAAAAiBXBCAAAAAAAECuCEQAAAAAAIFYEIwAAAAAAQKwIRgAAAAAAgFgRjAAAAAAAALEiGAEAAAAAAGJFMAIAAAAAAMSKYAQAAAAAAIgVwQgAAAAAABArghEAAAAAACBWBCMAAAAAAECsCEYAAAAAAIBYEYwAAAAAAACxIhgBAAAAAABiRTACAAAAAADEimAEAAAAAACIFcEIAAAAAAAQK4IRAAAAAAAgVgQjAAAAAABArAhGAAAAAACAWBGMAAAAAAAAsSIYAQAAAAAAYkUwAgAAAAAAxIpgBAAAAAAAiBXBCAAAAAAAECuCEQAAAAAAIFYEIwAAAAAAQKwIRgAAAAAAgFgRjAAAAAAAALG6quvmZR+Z1wnXJX0PbZC23Ijs3XVYJs3S8qKulxzp1dtlY3eLZA4Oyv4zZmHngOxY127eTCn4mySLmr7E5Eur9G7dInemxuXQw0MyZpYCAAAAQBI0TcuI9OoeaZOsnBgOF1DwW09X4Hc8NCh9nWbBNLoyOKj+ZkA6zJLG1CpL21vU/1nJXrSXaOkWvazYuIw3QyBCiZq+euaLfcwFPZ7mSUtK/ZfLyiV7AVBT4Y5PAAAAoLTmCEak18j6blWJzByTo6EiEf7rXX+9rpQWVuALpDtkSSIqg06ldVxecaVx8sjjsvPhQfOzW07k1MImqthGTV/98sUEjYJuKz1PdLFK7mJTtuZBowl5fAIAAABlNEUwouOulapiNi6H9p02S4LxX6/VswJfYF5LMiqDgSqtTsCiWSu2UdMXZ76E21b6pnarXDOvhDvmgWia/RoBAACAuCU/GNE5IGvb1D3y6NFw/eZLrZdv9eB/4+00589d8ms60SBM0KTkfnbeJCormrdiGzV9ceZLyG2VbbkDVFOzXyMAAAAQu4QPYGkG8ZOwg0+WWc8MYpgb3S1PHrlgFro5gwdm5cSexz26hrRKR3+fdLeZ1hNKLjMio88flrF5+rNbitYzn5cblp1WKw21/upe6e62n35rucywHFC/806j//Yu3eQxeGUR3Rd8Y7f4pMVbWuXR+pVq/5wNqopxZvSYHD/it4+VCJufhaKkT4u6XjBd0re1R9pSdlCrtOJBKp3jz1ke7niZlq602pcNrn3Jqc8dVp/rsXLUco/neCk8j9Kda2TVypUqXfZvcypdoz7pskU7zqLnZ5jtudL2vEjvXT1yp1pPf/YJ9dlH1fE0bZlHOoOXQyXH55Qo5R41P+3ybnftc1blpypznZ9+GwMAAEDdJLtlRGevqpCJZEZCzoJRZj271UNWXj3rFYjQTJNl9TfZ4g9Ir5HND22Rta4KhpZqWylrN22XvqV6poai9UxLDKv1grO+q2Kppdo2yPrVreadS8ntDcgqa/DK0gMw5p+yB8pEXUkZlI3r3BUMrUXaujfIxq1rJG2WVEWU/CwSLn1Toq4XiO4+E6iip0zrp+80mVfLwx4vijtduuK3Y9OGwkqn/qBpaY5a7jEeL855pPKnt19VaNdNBSK0VKrdOmZ6vTZYwXEWKT9Db8+55twkferzraCDptK05K4B2Vy07M67uuzXeSHLoaLjU4te7pHys3PAlLd7n1XeOvnZ6X0uAAAAoH4S3DJC3ezWaCrPjv5BVUkwb0qZ9hnms/VL9btDw1NP5KwnhPrGXL8pXk/9zmqJoW7qRd1Mp6wnf0fVujoYop+e6kqLeplxWk44Im6vgPmMaZ/txdmeebp59rRMOh+a7pLeDapCpDZYvWkw406fW9T1ojDbKpkOF12R3bRSpdt9vDhPiksdL5p5wq5bBY20WJVFqxXF805ZqvU7RcbOuANxUcs96noRmfPIprZ5cL8cV+mwNmk9XVf7og+Yafni7KcS+jirJD+VoNszZW4tV5+/V+3/pDu9xcsK0lhpOZj1gx6fFW0vSn6adVJ2me/P/65V5WevyU+/VmwAAACol8S2jKj2VJ5TzOCVQRSNKdHRbyoYuiKgbtqdCoY2eWZInjw4br8pWs8Zf8J6Ejm6W62rK5bODfUFGXt+RPSkDsWCbM9ar9Sgc2aAyyBjX9jbUxVfdVO/Xzezdn/o5Gk5OmzvZ6qlOk8ho+ZngRDpKxB1vSjMtkqmw8UZvLLweLF/V+p4sTlP2NtVJU1339ktT+pKrHv9gope9HKP+3jJT8uqK80Pq206gQhNbW+/2Z6k5hU8la/sOIuan0qY7eUHzFVp05+vX1/M2ulxLzPcx23F5RDy+Kxse+HzMy83bgWfpqjy1/n58G5rXwhEAAAANJZkBiPS1Z/KM88ZvFJXFPJTPBb+7B3NWn9aUFFVn92taximYlBK8SBwdrNktVzfeHuOUWGLsj2dlJIVameAy6z/dm1d0m7VoHRT90HZ8ZDHj/PkthoqyM8CgdNXJOp6UZhthRu8Uh8vg8GPF4dTsUy1SO6gXWEvLWq5x3y8KE7zft9A4+RFu/LuVulxFjY/I27PCbQUdC1zjhvXsvzAuvnjtgrlEOr4rHB7oY9P7YJkrejGSlnf3yXpaf0/LhQEfAAAANAYEhmMqP5Uni5OJbREBd6p9LjHlHCeVufGx3yfHjpjUWQLPtppiaHHdfC+8c5/tqtiHHx7hesV67D6ppceU8JiRtOPS/T8LBQ4fUWirheFva3S6ZjiPl6sBdN4HS95zvE9ultV9OxFJUUt95iPl6l8cY+zUF7Fx1nI/Iy6vfw4Cq5lXseN/XeuY6MK5RDq+Kx0e2GPT2Ns3245lMlaY6VstIIg26VvdVf1xiMBAABA1SUvGNFZg6k8XcpX4L0rPV4BikKtstQaTLJwPXX3bX+e5yBwNq+KSPDtlapQm7SU2LbDyRf9NN6rtYj7p9TT+qCi56db8PQVirpeFGEr0dGOF4dTsfTP10JRyz3u4yWfL5mz/ue3R3eDSo+zsPkZbXtOawP3Mq/jxvyd69iovBzCHZ+Vbi9sfk65IGP7Hpede3bLoVHdPc0MlGkFJarTDQgAAADVlbBgRKv0rlQ3q7kRORCqAhN8vVIVOVv5yqA3n/WcJ4m+/bHDVlYdQfbT+ZtgfcG1avXvr1xt0meLul4UZlulKtFuZfvvlzpeoh5L0cs9tuPFnEelWjTZLaNUVgfsDmMrdZxFz09/HttzyrzgGPE4bkocG9HLIeTxaUTbXhXyc/KCjB3R40QMys49w5LJ6aBEn/cMKgAAAKirRAUj0qv77FHYQ07lGXy9ADfDJSuDLdIyz7wsoGc4MIPWFa2Xf5LoW0EqVRkKv70CASpwjsmsPU5Gqr3Dt+lzurO1ys2i40tfgajrReEcTwE5zfyjHS+lfuctarnHfbw455FviybTMsq7pVDU4yx8ftpCbs+r65jXMerxdxWXQ8jjs7LtRcnPLunT40SYdwX0oKUjejBQv/wGAABAPSUoGNElq6zBJ4dD9SUOt175m+F8n++iiuqlS/ZNeNu6Aelw3RmnO9dI31Yz1aJSvF7ZlhhOpaOoj3nU7XnRFYf8Z6RVhUhVFqY5c1Yy+v/UStm4dU3hNvV0ff3bZeO6LbKq0yysUOzp8xB1vUjaeqTX9fl2nqp8Nu8dUY8XS8lAmo+o5R7z8WLniz5eBmVzwVgBuoK/PT8FZubgUMET/oqOswj5GWV7XoGWoMuqVg4Bj8+KthchP63ZkfQ4EVu3S5/aP9fm1C+7pE+3iAMAAEBDuqrr5mUfmdcNLb1a3cR2S+i54kOtZ+bo14On+fVj7+gftCoMuk90YXDDmVvfQ25cDo23yNpp++HMj69+/3BhJclh77+e4q4a2yvm8xl6pP9dHq1ITP74yWWG5cC+wikGo6tD+vKirheFcwyYt0UKy72S40UJcHx7ilrusR0vJl9ET3XZIimfvPROdwXHWaT8DL89+5qT9VjmPg5KHBsVlUOY49Oo8HgJe3w6x7wvtT09c4l3+gAAAFAvyWgZka7hVJ4uZZt6qxtzq+WEZ1Pv07J/z7CcyNhPPi25rLpZ360qsEOmpUVx94/yLTH8n4RH2V4x/RkjknHNd5hTFaITIz4j/Z8ZMv2wXdtUcpkRObRnUJ6s6g1/HdKXF3W9KC7I0V27C9Op6O3pPC2s6FVyvAQ5vn1ELffYjhcnX47Jkyov9awK7ik889vzrOBGP86i5WfY7Xl1HTPLCo6DEsdGReUQ5vg0Im4v6vE5eUQPXGnnaUG5O/la1esSAAAAqiURLSOmPwUMJup6ABIkvUY2b1opErbFBwAAAIC6afyWEZ21ncoTQLLlx3EJ2+IDAAAAQN00eDCiteZTeQJItrKDegIAAABoOA0djKj9VJ4Aki3AdLwAAAAAGk5iZtMAgOnM7BQ1mekEAAAAQK0QjAAAAAAAALFKxtSeAAAAAACgaRCMAAAAAAAAsSIYAQAAAAAAYkUwAgAAAAAAxIpgBAAAAAAAiBXBCAAAAAAAECuCEQAAAAAAIFYEIwDE74Y75LHv3S095i0a0+J77pXH7msz7wAAAIDquarr5mUfmddoIEuv/2PZurBd7vpYyiwRmXjvVTny5jH5waULZknCLVwlH//qermma77MMos+PH1I3tk1JB+a9zPNtVsfletUfnx4epfkdh03S5tM993y2KYbZcH51+SJ3c/JsdfNck0HKb67XBaYt3nnX5YHv/2CTJi3jWpx9x1yz1dvlBXz55olIudUOl/6yUvy9GjWLEkOHYx45CsqLacOy8APM2ZpXFqk557bZP1ydazMN4tEHTPfUMeMeQcAAIDkIhjh4c/a/5M8PBUD8JGTv/nlE/KDK+ZtNV3fL/9P2xLzpkjugNw8fsa8SbCFA5LasTYfhCgweVLeGXxU3jdvk2bW+kcl9eVz8s7WkGlw58nkIckNNmFQJh9s8KlUJjkY0X23DG260bwpUpfKfHU4AYlzz+6T+5+JL6DSc9822XaLeZNHMAIAAKBZEIzwUN9gRKf8qHu93KVeTbx5QB5844y8Yv9CZE6r/Jn672+vJL1lxGL5+OBOmZPWLSF2yTu7jucr3bO++C2ZM//H8s6BRn8G7sekTaIEE5x8OS/v//Q/JzgP/LTIvd/rl3XzL8vB7zwtT7tbRPhqkweeWiMrGj4YYfZTvTr37GH50TOZqX29ocXqjnLs9eS1jHDYgYEw5VYp51gROblnn3w/ga1KAAAAUBpjRnj42/G/lptHnZ898jfv6aU6+OBeXqNWEXOulxv0/++NFgYitCsXmiAQoSy8Q65Jq/9NVwR3hf3Dnz+a8Er4Qrlap23yNxFaNUzI7we/LpNbv9WEgQj9hP1LVuXy3LM/i6lCG6MbPi1WT4LzLxcGIrTXs4kORGjHfnhYTspcWbflDllslsVC5eczBCIAAACaEsGIme6GO+SB722Toae2yWP3tJiFtTVrxW1WV4T3X27CMRG+eLtcq/5ryrRVpE3u0WMPWJV1KpfJk5Fnnr0sMn+53NNtFgEAAAAVSFQ3DXtQx26562NmgeRkIndcHhwvakFgaZW/Wr5J/lxGZeDlf1S/b5U/a98g/yGVyj/Zm8iNqnX170oxn/Oxct0yom9v6aJ+eWThkvJPHH3GiwiXL4UK+2XXqhn2KrlucL1cm86PQufjZOE4C84YCqd3yaTnYI5Ot4ai9Zzlk856i+Xa9V+TOV9e4Roos7B7SLFZC1fJtYEG1wyaNq1oP7/4LUl/QzfsLxJ0vIiFKl1f/UuZ49pHPd7Gled+LL//uVfLisrzJTIznkL4cQcat5vG4nvulm9+5cbp41sUa5TxIm5ok3vXr5Dbbpmb3+dQg2s643nElB7r2tSajIFLAQAAEF5CWkboiv5/kqE2d4VbUxX91HoZ6t4mfzXHLCr2sRb5wzmd8qPlm+RhV2BAW5zqlqHlfyxLzfuqiLS9loK/C66CfInTws/IrECV9SIL1Hrqvw/Pv2m/n8anS4TpBmKtpwMau3bKda4Ktzara6tct94r11UFfeujktqxtbCSr8zqWqs+61H5+EKzQAuTtqL9nDXfuxr74S9fKBsM0GNrpHaodBXto6RXyJxv7JSUV9oqypfK9NyqB3a8LC+92EytIj5VPhDREFrk3vvulaHvrpF1rkCEtmD+jbJuU788EKS1w+v/Ki+dV//f8u/im5J1/lxZZF4CAACguSSiZcTSRdtkaKEeUTInz2eG5ZvO1Jaq0v9XS9bLn1sV8VflodF98rfWLzSnRYN5q8d8UOs602Iuvb5fVeLtGSuez/y1+kzrpYeQLSMq3d6cP5aDy7pl8XtOCwt/0fKliO6msWW5rFD16XhGy18l1+3aKtcGePpvz0oxX95/6uvyzs/NQje/lhOmxcGHk6rmlFaVdT07x94fy/tv6uerOtigK/Hq5bQWF05LC/36vNruf5YrP58w++hqReC778HT5snst296Ha4WFYUtGRarPPuayjP9u/NyZee35PfuOE7kfKmUMxhhlJkQEjKApdNqoBH302mVcv41ObD7Jdf4FXrqzC/JNt19JuAsFfbMGhLLQJZ2qy1mzwAAAGhWjd8yQlXOHzEVbh0MyFe4tStn5AcvOwNMLpH/sKjVWjzNe7pC/kQ+MKC9cmmfPJSzX9/wMZ/1oopje9XIF+31F+T7335CBr7xRDzT9umWBPr/AAM8zpqvWxycl387Z7+fxqflhNPiwGqx8NMdMqmnCbUq3NqEvP+TQ57bnrX+L+1AhA4m6EEk84EITa134FHJ7VSV/70+gYYQafNi73eJ9FpWyXUmEKGDFoUDgKr91fv4U/34er5cs6KwhUPUfKncp+WzVlFeljfsBYjT6HPy4HfU+f1tVakvGEgzK8eeeVqeOKVff0o+Y42cG8Rc+exnzcuaaLG6wKzX3cc4ZgAAAJpW4wcjZpsuDLnjPq0SLsgP3nzVerW45SaPLhCqsv6qd8uAf33XRAeqKqbtVZwvdVK264Vjsao0q/8mX1IVZntJsWuXm9YB5wufQ9tBDF1Z3yG5ErNSFO7DKpnzZb3eSXmnVKuGN4/77o+TtmiDVy6Wa5ep7ZdIrzZr/XprgMwPf7rDt/XEhydfsvZ/1nx3f5Ko+YJmMOG0YtDTjHbfIQ/cd6889r17rYFr7TFjggUYJs69bV7VgG5dovZn6Kl+eUSPxXH+NTm4m/EiAAAAmlXDByOWfsye4WHiXd9+FCLvZu0bVj1eg7Wg+SU1X+wAwnn54GSZKoYz/advKwMTrJjWksBZflI+8BzEUVXKzWweBUEMp1XD6RddA2GG46StdMsGP8GmBHVai5TNv2ki5guawmIdgNCz5ny3X7ZtWi4r9NgR83X3jMalT6Pf2C8BAADQhJjaEzFyKsTn5MNyD98DD15Z3JKgfKXes/tH4BYbfkKkzUugKUEDbsMzLRHzBcnXfbc8ogMQVvG+JiefPSxPfGefPKh+dPcsu5tGMIsXfMq8qoHXX5D71f4MfGOfPPHsZWtwzW1b7lBHPQAAAJpRYoIRi2dfb155cLosvJeVf7UWzBzJypdgT/81Z3wDv6f0s0zlfdpn+S3PqzBo4MukLWLLimDjRQSxWD5+t0f3lbrli/ZbecsaxoKZEeLXJg9ssmcyObhnnwx8+zn5/jMZa+yIiYLxI8K4LG+9ZV7WhGssC44ZAACAptXwwYhXcuN2V4PUKp9pKlvlrxbas1RMZM+WnH2imVQtX/RsGrr59lPb5LF77K4fNVOlwSutWTac2SSKWjI4QQz/FgY+AZFz9vtZX/6aXWn3snCVvf9enLRFZKe3XCBgQj6c1P+vkGu+aC2Yxj0I5xXXmBKR86UqsvIba3zVMIMkFgldKVWVcOe4vq/NLGtEMe3n+dfkn0a9gg8t8hnzqrwW+aPlumvH2/KbGs+kAQAAgObX+C0jrvyj/Fdr3MeU/PmybfKj610zQ+gpLPPTab4q//UN14wSza5K+dKz3jTfVhZ85Utyb9TKYgDOmATBB3icL3O+6goALFwl1w3+T3u6z9P6Ufv0lhNluxqYFgIf/vKFwkr3my/IB6aif93gt+Taha7G4er1tVsflfSOrXLd+jKNxrvWy8e/OPU3s9Q+f3zrgH+Aw+K0Slghc1yfP+uLq9R+mDfG+y+ftP6/9huPynWu7ei8+bjaR503Ov1Ximb8iJwvVXLsF6+pf+fKbbeHDXiZVhVyo6y/p81u6aPd0CY9JY7VxfesmDqub1lR0+O6ErHt5/zl8k13/ukZK7rvlsf0lKvWAJYB3PCHcpve11O/YqpNAAAAVCwR3TT+dtyZpjIld7Vtkv+n+z/ZP8vWmwq3nt7SewaLKP6s3Xy+9eNU6nWl3718m0+LhPjEnS+VCjMmgVPplq6tktr1PyWtf3ZslWvTqqK98+tyxaqgFn9W+a4G/t0/JuT3e83UlukVct2OnfY2re3ulOu65suHpw/JO36zUOSDGfNlzjem1k2pfZ7Ttda3JYNtQt7/pR1cmfVl17rf2CrX2Ls75eePyjun9Yv5cq1rOzpv5qh9tAIRO78lvy9IfyX5UiWjvxJdoguW/6GrQhxEVv7p5cvWqwVfWSOPWLMt6IEY18i29UFbEkQJgtRDLfYzI88865F/esaKTTfKAnlNnnhWB4rKW3y7/nuRk7/I2AtqqkU+o+OrTO0JAADQtBIyZsQF+cHLfy0DmVF53qp8O3IykTsgA6NP+Exv2ewqz5djB16Wk3Y9WM49+zN5umbNr0OOSWBVus2OWc7L+z/dJbmtdkXbu1tDhYM0vjmkPn+Htd2C9SdPyhU9HeauElN+6mDG4A65UrDPqnKv1n1n59d9p+F0fHjgP3um193VwvH+rq9L7qmTpsuGMVmYP4UqzJeqMJVi6wl9uAr3xDNPy4Oqwlywa3rax1/81ryZbuKZk/njupHFsZ9W/u1R+VdweKn8M2NIHAtU5m1yz1fmqvVelmdGzSIAAACgAld13bzsI/MaAGqoRe7V3QLmX5aD33m6hoEvl+67ZWjTjXLu2X1y/zNRB2yMQYPvZ89922TbLTGWm3OsyMvy4LdfsMfHAQAAQFNJzGwaAJIuK0/vflnOyVxZ9927pccsrSV7KsrL8tKLDRyIUBp5Pxffc69su6XWLad8zF8u93QnoYsNAAAAwiIYASA+r78g9+suA3KjbPtejQMSN9wh39RdC06djL8SHUYD76cORDxi7dvhmFtsTI0VsmJTvxnnQv/EE8QCAABA7RGMABCv0efk/u/oFhJKTWaPaFGV6Lvlse8ulwXnX5MnfhjHgItRJGM/z506LAN12Lf8WCEJGPsDAAAA4TFmBIAm0yYPPLVG5qtK9I9UJbpxxxtIyn4CAAAA1UcwAgAAAAAAxIpuGgAAAAAAIFYNH4xYtGixeQUAAAAAAJoBLSMAAAAAAECsCEYAAAAAAIBYEYwAAAAAAACxIhgBAAAAAABiRTACAAAAAADEimAEkumGO+Sx790tPeYtAAAAAES1+J575bH72sw7xOGqrpuXfWReNyQ9tecbb0yYd6iNFrn3e/2ybr7IuWcPy/3PZMzyBtV9tzy26UZZcP41eWL3c3LsdbO8Eqk58tjXZssC8zbv7XflwX1XhCMQCKH7W7J90wrzZsqv93xd/m7UvEHsFn9+jtxzyzWy4lNXmyXqmv/2B/LSqXfl6X/50CwpNkvu7Z8r6z6l/vaXv5P7X/zALAcQ2g2r5I/Wr5fP3TJf5ppFl08dkp/+cEiy5j2A+tHBiEe+os7OU4dl4IcNXh9qErSMgPpy/EO5bb79csFX/l0NWxvooMc2GfreHbLYLAlNt4jQgQh5TZ74tl8gQt88Xy9Df6F++udMbevzn7SXqZ8HPm+WJZpJpzuNSIDmPz5bFkwL6ykn5VdNEYhIaPmp/Xtk9eyCQIS24FPXyLobC5cVSF0jt33Kfrlg2TUN2BqN62AyzZTvaZcbBuT/+92tssIViNDm3rJWBr73LVli3ifDDCy/pkL5+Zl45ml58NnLIreskcfuaTFLUUsEIyDy+r/KS+ftl+ee/ZUcs182oBa5d8tyWSCX5eB3ngu2n29/6NGq4d/krd+al47cFbn/v1ySgfzP71TVCaixoMdnwmSf+ZY8/o2vm58dclJfX87/RnL2r5tHYsrvGnlg9TXWK9264UH3te7Hl+WJk/9m/c5T7gN56W375blfftDA3w9IrCa9DhZaLH+0Za0VhLh8apcM5a+PX5ehPSfl1y//WF61/zB5ZkT5NTHKbxodkHjilH5A+yW59wazEDVDMAJKVp7+9hMy8I0nGrqLxuJ7vmS6kvxMnq5G1wxgBlp8z93ywH0VtE4KbaHM1S2vLvwmlmbI8acvAVKzxGr89va78qMXPyi88cx9KMfUj78P5el9duCCLhpoFrFfJ264Qz6nT8JTu+R//PB4wbUwO/qo/N0z06uDleA6iEaWhOPz2A8Py0mZK+u2cB7VGsEIxOjT8lnTHSS8NrlH9+E6/7L86JlyVZoP5TfmSV6B3/6bnDMvm8PV8lnTfBpVkpojD5imi4/dPsssrLb6Hp+LFtwoK26ZK4vM+5rrvl0+p/779S+O2+9rrPbpmynXl6TgOlh1XAerruX226xWEVwHURbnX4PIyDO6u8b85XJPt1kUxA13yAO6S/pT2+jmERADWNadGTxSXpYHv/2COohVpXvLClkx3/QoPH9ZTv7kZ/L9Ue8KuD3QisjB7zxttxZQ69+7foXcpk5yp9f2uVOH5Uc/zJinYVODVXo59+w+ud+zsl+4nxPqfc99X5L1Bdt5WW1H/85FDzb51RtlQZAgRKnBYtTnDG26scT+Fer5k+tl22LdrPiy3P+ieeqXH6TyA3niv/yuTHPja+SBv/ikrAgzgGXqGrl3xRy5bfHVU3kSYHC4nttny/rF18iC/A21+jKYuCI/OvmBTBS3a//8J+WxW9x/W8LE72TgHyp9kqn7Fc5V5e7kg9rfP/mk2l9XGifelR/9Q4k8CpEvdrnp8nlXPqO2s06to/Pj5JHfyvf/Re3LtGXWaoV8tnfg/6/KvEw/Aee4sf2bHPzxb+XpGvQtqPz4jK7nvm2y7ZbX5IlvBOzqVKGWex6VAXWNOvmdb8k/xdCiKY701bP8glp8+yflm8vUtcK891VwnTDnu8/1pSC9Hhbf/ml5ZJn6PnLOG69zUW3vR2p7hdcLroNuXAeb4Tq4Sv70e+vlc/PL3fyclJ9949Gqd9HgOlgkxPnntlhda75Z5lrjeV3k/CspvvuQxbLkvr+UW4sGjP3FgSF59bN6oO0Fpe9N9Dh1310uC0IMZmmnzbyxupWb+hl80TKiUcyfK/fcd6888t01U4EITb1esalfhgJMM6MDE0Nq/XWuAIGmXweqTAeh9mfRDW3ywPf61clWtJ1blssjHoNTBgpElNFz643q38vy0ovlAxHaG2/bfaDPX3Z9QeQ+FGtoDPW7N6wF1aJvDj8tQ1+zbxAL8kQPDrd6rs9AQNfIA+oGd5uuMBR80anPWPxJeeRrn5YHPKLigW7Aq+1TV8si9eVq7W9xGhfPlkc8B4+Lmi+zZL2+8Vfr2K6WFbfMUZ9VtGz1J6cNpqcrQ37b2/a1Wj5lCCfe47O+UtYF4Jz8tom+jJNRfrMKzoG4+Z6L6qfw+4jrINfBJrwO3vAZmVs2EJFsSbkORjv/dGX90/LI6oBBTxfOvwahB4x9aqd8yWPA2C9991H501v1jF9l7k2cMfVuqeXg/qBlRN0VtlTQrQsOHHjBzBLRIj33fEm26e4Jysk9T8j3i0ajd6agOXnqNXWjoirs1nSXL6n1nUp7iyy+ISsTZSoCzueUbRmR/269LAf3/EyeNi02FnffLY9s0gED7/20tckDT62RFeed1hVBOdsOEUXVIwKrL5GTRy65nhqpLyV9c5d/ulVKiJYRZlt21PtdV/9r/bTvk+omW984To8y208R1e/Uek8URMtnyeLPz7ai8TJR6klkiH2MzORZ/sv43+Tgkd/lnyTopwb6y1orzGslQr5MPRFwnga4tz99WcE2zfb035385RV5xtU33nq6oX63oNxThtQceeB/0zMOFD0tqDazr9GPz+jieyKhrZI/fWqrfO7ULnn8h/E0T44lfXUsv0icp10RrxXOtarcOeH83cmJD2TFYnUuWte2wnN/cerDgpYOXAe5Ds6Y6+D5QzL07Xim8OQ6aEQ4/yyu86jwXJ+jzqESLQdc63H++av98WnOOf1SnXc/2z0kr5p6UEv3t+TLm1bYAYoA5+S0Fujl6G4aW5bLClVfCtqae6ajZUQDsQ7aHzqBCC0rx5wpZpQVt/q3jtCBCL3+gDXdpfvALx+ICE0HPL6hTkpX15GJ0eeskWe1+Quq3UfKjDVx/nLISK3PaMBve40cXIF/+Z08+ONLcv8+fSPt/tL4UI69+Ft5wtrYLPlMylo4jW7eW9hsT+2f+sz79+kB42r0JRSFriz8F/UF6mrSqPfTTp9uNFMU7a8gX/SI//YX9YfyTxN29N69bHpfR/UFqistitVs2XUDoFn5eUQ31b5abvt3JZ5K5K7I9/OD9dU67+M4PnUA0O676PzYzQdvlG1Fyx8I0ycyKP10UP13+dyb9vuqq2f6Yrq+JJAOROib6AGPc39alwuD66C1sADXwWppjOtg7Qbx5TroK+L5t9icx/o8KjzXr5hz6Br54rQWFZx/3uI/PpfcZwIR+kHIt6cCEZoeMPZ/7DHz5QU+J+fKZz9rXpbz+gvy/fykAAQigiAY0TD8uyBMvPiaPaBM66f9R3Q9dTimg/6yHNztHcl845wdNGkI6qI/oG8Yi25urVHhK+4/PF3+Bjs1S3o+P0ce+JNPy2P9n7YGILKfcF0tn/209Rd5E7/6wCrXBcs+KQ/cfo0s9glWNIZ/k4P6qaV55+Y09fMSJV+0gmaDhnvZtG2mrpHb9FPDt9+VZ9xPJd3+5QNrutYFqqLkex7FJebjs24+6wQjGuK2tHpmSvlFNaFuugPeRHMd1L/gOjilma+DtQrK1klCyi/q+VfOtMAj519juGFAbtXBDt3qoUyLzCADyk6c8xrpE9VEMCJJ9HgN5mWxc+e8QpuIi266Z41+/LW5sm31bFmh+wp+Sjf/KyF3Re7/8bty8u2rZYW6EX/ka/boyUPqS7Lxb8qDiZQvUXza9M381Gx5ROeh588nRfcQnFky8v1v2BF658duwaRbNxUu9+5aVZklVp/Mk/KrGny2rb7pg7dzJSrm03AdrB6ugz4a4Tp4Xn79Yq2CslwHS4ly/k2YoJ81Jov7GqTHjLG6YXgECzn/fMR7fDoz11x++QXfVg8tC3RJnZfLb9nvUV8EI4BKfV73F7b79+kmvCd/+Tt54seX5UH1o5vZOc13PTnN8dTfPvFLta66iT+nviSdm/LH/qQBoudRVZIvaAKL5dOt6r/zv5GCBy9AMa6DaFrmOthkg/gmRtTz71+crlf2oJP5YMLXTDBh4nf+rR9QV/ag2aWCf4vl88v13wQ7JxfXZbTkmYVgRBJ81sxaEXrMhAZVooWHt9/KW3o029DrxcGJkutBjuw+0rqfoO6bOFHQP7EM9bfHXlTr7vut3K++IAd+/Dt1Q66b8n1Svllu5GV10960+RKUMze2nsZP51+pn0YYVGtGWChz9fd9zfpJo+lwHawM18EGZK6DBGXroNLzz27hZZ1TeXpgyt/Jg/9QOB6EhfMvIaKck5flLVpR1AzBiAbiPThKi9z7VXuWinMv/2uTXLw+JZ+5wbwMJCu/uaD/D7teFQS9wX37A/kn1yBHU2bJZ8yrYos/X+JpX+4D+f4pu89e+ea8/oNj1l2EfIlE5ddLulvf4jlybyV5oUex1s05/6Jxpt9KrO7brQGkmq6fdFWom2TnOPsTu8nvTMV1sIq4Djaemg9emWQxXQejnH+f/6Q1nsRBPfhlQSBh+sCUeZx/DWS+zPWsUy2eGtwy0DnZIn+0XJ/Bb8tvArdsapMHvmcPyPnYff4TD2AKwYiGMVdWbLpXHrinberG7IY213Sar8mBxI/KmpGfW/3E5sq6LXdIjzuwcEOL9HT7z8Jx7BevqX/nym23V3umDj//Jm/pLxX1Zble91u2limpawr7Dzo+NVu+6f479SWnp3F6TE+R5HWnrb5svrn6k/LIX3zaboKcKvzCWezql+jf//oD+bn1jXi1rPvf5hT1a9QDNTXAl1jYfInsQ3naqrSovPiaV19zlR+3q+3+xfQ5+d16VpjmnIoeUK+iG4oG9ca51+TkqfhaWc1dfocscc71G9SNQHdVC36auNMXxeLb50wdZ5XeuCYZ10Gug3US13XC6b8eZKC8auI66BLh/LNn07haPltq1otpOP+CquXxmTunm1KLfG7Tt6buPZSW7gH50+/tlC9ZM3kEfFBywx/KbboOdupXgacgXXzPCtHTemoLblkh98b9EDWBCEY0kHPn58qKr6yRR5xpbr67xgQiLsvB78QxF3btHTvwst2Mbf5y2fbdqel8hr7bL9s23eZ/gR79lT0C8fI/dH2h1NLUVGr6yyA/GNHXPinbVrgj+B/IM7/0+Lu/mGvNO2/NRf1L+8legdwV+dERe9A23QT5ka/NNevZP484/RLffld+VGJU+mMn37XzU33ZFvZrtAdqKvWFV1sR86US//I7edDaZtFAeGa725ap7b4tjfv0NCYTzzwn3//hC7VvZTX6ovxa/z9/rXzpu/9Ttj+lfr6rbgS+eofUMqQYW/qqpsw0b82M6yDXwTqJ6zrh9F+Pe6A8roNa9PPPmeVnxbLCa5L757H+T8q9xcFOzr9Aanl8Zp85YN97qG+P/L2H+hnYtFY+p2oSP3tWByuCDSi7+PYbrW7yJ3+RsReEFudD1OQiGNEwLstLu5+QB/e8JiaoZzl36mV54jtPy9PNMvDR6y/I/d85LCfPF04Deu78a3Jwz0slAi4ZeeZZtc785fLNe+I5sSde/K36UrG/kPLe/kAOvmZ/uTmsvzui/s5qSWHovzN9FI/5zHiq56vWg7Y9aN2MF37mObP+g+X6FVoj0et+1V7rv1vXAFbUfKmE3qbuZ35wwvTddKj8sfp5qu0WTmNVSFdqdB91bWo+f0RzXP7uO4fk167r2eXzJ+XkT/xHuJ4pJl68kj/OZjqug2ZZFXEdbBQMXllKHNfByOdf7gM5YB5I+VnwqWtk3eq58sDnzQKD86/e9L3HLjl5ynXzcf68/HrPDhn69qNmnIgg52Sb3POVuWrdl+WZELN8TDyj7nNcm0Z5V3XdvOwj87ohLVq0WN54Izmx3fBaTFcM3fqhiYIONUFeAWgin/+kDK2+Rt1wXpb7Szz5B4Cm1XDXwVlyr+7CIe+WCITOkp4/mWuNK8H1uzn13LdNtt1SQX2j+24Z2nSjnHt2n9yf+G72tUXLCCRIVp7erbt5qC+J795dx6a3AFA5u1/yv8lLv+JGFsDM1HDXwdQ1ctunRM5N+AxUaflQ3ihqiYXmsfiee2XbLeoYePZnkR982lOCXpaXXiQQUQ7BCCSL7uahu7LIjbLtewQkACSUHrxx2dUiE1dohgtgZmrg66AeZ+KBz8+aNk6ZHlj33j/5tDyi91s+kAO0imgqOhDxiO6ecepw9BYNN9wh37Q+4yStuAMgGIHkGX1O7v+OGQiTUWoBJIq6udUjqn9ttix4+wN54h+qPIAhADS8Br4O5q7IAatJxNWyYvVc18CX9o8eWHfd4qvtsSd+/LumGFwehc6dOiwDP4wyaGWLLL7nbnnsu8tlwfnX5IlInzHzMGZE3TEOAgDMHNfIA3/xSZk/8Tv5kboBb+ZvNwDw1vjXwcWfnyP33HKNzP/U1daMCg49MO5Lp96Vf/qXD7l+o0ibPPDUGpl/6rD86IcZjo+ACEYAAAAAAIBY0U0DAAAAAADEimAEAAAAAACIVcMHI+iiAQAAAABAc6FlBAAAAAAAiBXBCAAAAAAAECuCEQAAAAAAIFYEIwAAAAAAQKwIRgAAAAAAgFhd1XXzso/M64bVc9822XaLeSOX5dz5t+XA7ufk2OtmEQAAAAAASIwEtoyYKwvm3yjbvnu39JglAAAAAAAgORLRMqLADW1y75Y1sm7+ZTn4naflaVpHAAAAAACQKMlrGfF6Rv7p5cvmDQAAAAAASJpEDmA5ce5t8woAAAAAACRNIoMRixd8yrwCAAAAAABJk+CpPd+W3zBeBAAAAAAAiZPgYAQAAAAAAEiiBAcjbpRt37tDem4wbwEAAAAAQCIkb2pPS4v03PclWX/LXFlglpx7dp/c/0zWvAMAAAAAAI0q0d00nEAEAAAAAABIjmS2jOi+W4Y23Shy/jV5YvdLcux1WkQAAAAAAJAUCZ7a87Ic3P0cgQgAAAAAABKGqT0BAAAAAECsEhyM+JR8hpk0AAAAAABInEQPYAkAAAAAAJInkcGIiXNvm1cAAAAAACBpEjyAJQAAAAAASKLkBSNuaJN7vjLXvAEAAAAAAElzVdfNyz4yrxtWz33bZNst5o3j/Mvy4LdfkAnzFgAAAAAAJEMCu2lclnOnXpYndhOIAAAAAAAgiRLRMgIAAAAAADQPpvYEAAAAAACxIhgBAAAAAABiRTACAAAAAADEimAEAAAAAACIFcEIAAAAAAAQK4IRAAAAAAAgVgQjAAAAAABArAhGAAAAAACAWBGMAAAAAAAAsSIYAQAAAAAAYkUwAgAAAAAAxIpgBAAAAAAAiBXBCAAAAAAAECuCEQAAAAAAIFYEIwAAAAAAQKwIRgAAAAAAgFgRjAAAAAAAALEiGAEAAAAAAGJFMAIAAAAAAMSKYAQAAAAAAIgVwQgAAAAAABArghEAAAAAACBWBCMAAAAAAECsCEYAAAAAAIBYEYwAAAAAAACxIhgBAAAAAABiRTACAAAAAADEimAEAAAAAACIFcEIAAAAAAAQK4IRAAAAAAAgVgQjAAAAAABArAhGAAAAAACAWBGMAAAAAAAAsSIYAQAAAAAAYkUwAgAAAAAAxIpgBAAAAAAAiBXBCAAAAAAAECuCEQAAAAAAIFYEIwAAAAAAQKwIRgAAAAAAgFhd1XXzso/M64Trkr6HNkhbbkT27josk2ZpeVHXq7LOAdmxrt28mZI5OCj7z5g3DaFVerdukTtT43Lo4SEZM0uTKL16u2zsbinM48SUQ1QJLr90l/Te1SNL2lokZRblMiNyYJ//edvRv13Wqr/PZYblyX2nzVIAAAAA9dY0LSPSq3ukTbJyYjhcQKHseqoC1Ld1u+x4aDD/s7l/jXSkze+rJN3SYl65jct4w1WA50mLrgnmsnLJXpBQrbK0Xed5VrIX7SVacsphig6q7HhoQDrM+9ISWn7pNbJ50wa50xWI0FJtK2XjVp+0q3W61d9rqdQ8qfIpWzXhyq9ycW8PAAAA8NIcwQhV6VjfrSodmWNyNFQkovR61k27qgC1pQorqLoCtHbTdumtYu1m8sjjsvPhQfOzW07k1MJGrDCm59mVwdzF+rUiqQqnUj4ur7gSkphyyDNBlaD7mMjya5XeDSut/dYtHPbmy2dQ9h4cl8z4Ue8WHpNj8qouP8mqvxlr0PSGLL+Kxb09AAAAwFtTBCM67tIVlXE5FLIZdqn1dCBCN+G3KjIHd09VgPaoCmpG/0WL3LlhTY2etjoV5carMKZvarcqhZlXEt7kPVClvHHLYUq4fUxk+aU7ZIm103ZXC3c6J88Myf4jF8y7Yhfk6C593j5e4m/qLe5jLAnHNAAAAGaC5AcjOgdkbZu6tx71eTrqp9R6TosJ3X1jj6rInLkwdeM+qSo4+8wT81S7LK1FNKLzJlG71pAVxuuvt/PF3bUhkebZzf1zl0okpIHLIS/kPiax/JomAOYl7mMsCcc0AAAAZoSED2BpBuOTsINPllrPGeBP3bCXGLTQaTmRG90tT+afupp1c8Oy02pt0Sodq3ulu9uuTGm6mfmBoqe7xezPFisQ4t/txNnPMgMRWn3tV0pKbdfep0oUbzNs+tTf9/dZ/fin/n5ERp8/LGPz9MCRLUVprjQ//bd36Sa7/MqXcblyKJTuHJD1K9X+ORvULWtGj8nxI6XLPDg9hknPtK5D3oqPjUrLL470aUHTWJQ+n8FHJeDgtNPKW48Xs8G1Hzm1vWG1vaIPSneukVUqT6b2N6vycdw+rqdttJLyiyLK9vyuLep46Zyn/r8oY2fcLU3UNvQgwMXXmLT6+7sKzz+dhydGjsrRgvUBAAAwEyW7ZURnrx00GAk3aGXJ9Zwm4aoCc7zEoIWT2az1f+p6fXNumHWtp+06CPDQFlnrquhpqbYNsn51q3nnLf/0umSiLsgr43ofWqTFt3WGqlRYfe1VpcJdSYjMaeKdlUth0+f8vccAhHr8jb6luhJZlOZK8rPk9gZklTV4ZemBKYOVg0NX+gZlo6oMT1XUtRZp694gG7dWqUuP7l4SqGKpTBsXoILyiyt9Wpg0ungPPqqSG3C8CHd568DEtPFidLqLP6hzQOXJyqLKvjrmnOO6sygvKyq/CKq5PXXdXLtug6xd2VFQ1vYgwIWtLXTQavOm6eefbk1257otsrnMNRAAAADNL8EtI8zTuCpP5em0eCg7laPzFNb9NNAsy6mbelEVgJT1JPWojE3qp4D6Kb2+OVcvi58gFvB5yujF2V5B6wyXcr8PS1dgN620Ki1T6XOeFJdKn0mTfqny/dDw1BNj60m7ruDqN8VlEjk/I26vQIhyyG/PtBI4e1omnQ/V01Fu2GAHv6o+PajZbsl0uFRcfnGnTwuZRjdz/ATbL9MaQLeWGmmxgi5WK5HnnbSq/OmUohYBTgsCPa7MfrUN53et6jjrNceZ3dXLu2VNBWmLJOj2vFpGOMvUy4L1XfnmLDP5rhW2tFH5srpXXV/twGOYFkcAAABoPoltGVGbqTy9p3ssxT3mgPNk1noSObpbdu7SFT2ngnJBxp4fEWtw/1LMwIolxzJwnDkreizNgtYZearioSsEquJwoEqD9zl99wvTZ/+uVPo6+nVFVtGVXFVhmVrHHoDwyYPj9puiQfWi5meQ7VnrlRrEL0Q52NtTFTdVudqvuyu4P3TytBwdtvcz1VLlp8FmH8MOXhmt/OqQPi1kGt3s4yfouWxajUi7rF+ng5G77cEy3fnj17UgNy7HC353wT7OHt5t5ZlvhbuCtEVSyfasVkpZyWTsQNb1ZnG+9VK+9Ym57ig6CFQ44KjKlyNDsndUfYa0yJKbaB0BAAAwkyUzGJGuzVSeUxWS8k3znYpyLjtVCbGbeeub8NItEUpWcJ2BFV2f6++iZK1a4LxpTeTzTafDdmEpYSp9qpIRNH0qz7v1juinqWVaGBQPqhcpPwNuz8rjqpRDl7RbkY92WbtpUHY85PGjx+yw/rbKzD4GHYwwUvnVM31akIFGPTlTWBZO3erLqairinbuoD1obXkXzPm3Utb3d0l6Wj+VCwWBsGlCll/FKtieNfOQysvxon4c9oxEWXn1rJ1fznVHt8bya40yedYOBnoHUQEAADBTJDIYUYupPAuU6zvt2YKi1QQy9DgE3hUZ58l0qQpuhzV2QumxDKY4laGiWT3yQZfhKjabd6fPWjCNV/ryy0r02/d+gh0tP4Nvr0rlYGYnqAd7H4M++Y9WfvVMn+ak0ansBhdyCksn6FGiEu1lbN9uOZTJWmNtbLSCNdulb3VXoPEzwpVf5aJvzw5I6XOq8LpoAlWu4K4z7kb48gIAAMBMk7xgRGcNpvIMKz/Ipfupq2twQHvBNM6Nun9lwFQYywZDpoy9ors4tEhL/iFja5UHrXRES1/5yokrsFNQa6z19koFGoKXgxPY0K0Ndj5c+qcq43bkOcGF4nzzEy0/65c+LWwaXUJOYRk96HFBxvY9Ljv37JZDo/qJvxnQ0wpKlOqGUEHaIgmzPRPkNOzWDuMyqsrXGbjXMi2PA24jcmsXAAAANJOEBSNURXulqjSEHgch6HpOtwdXn2gPdgsLdRPu7gLhPEH2fRIb5EY95NNc7WK2sL++mSmkKkEXt7L9zaNWrnwqyVXJTy/lK+VRyqEm4yWUZPYxczZYOVdYfvGnTwtSVt68W9v4iXosuUxekLEjepyIQdm5Z1gyOR2U6JNe3yYSIcuvYlG3Z4J3BevpGXymrqmlZh2azqynlGqZBAAAgOaXqGBEenWfPWp/yHEQgq/nPBFsl26fp5p6tg1rxoGim/D8E2TfJ7EBKlamAh7qieHkmLyq9jnVrqfbixqsKc9pwh8tfe6WG256Bgcz2GRRJbmy/Ay/vQIhyiE/xauV/97Sna2Bmu2H4gQXAopafnVLn1bBgIv5Vh6BVgxwbk7TJX16nAjzrsDkadk/UtxiqUjI8qtY1O1Zwc2snHi+6LiZVzxwpTZ1/WzvtBZM41yLwwcxAAAA0GwSFIzoklWRxkEIt54zo0Cqu0/6VCUrT09h2G9P+6krOcWzcXg1cS/gVHBLjGXg0BW/DqeWk9ZTCpZ6Ku2MG9EiSyMGa4KImr5Ll+zKbNu6gak0KenONdK31UwlqRRX/OPenpdA5WBmNNGDGG7cuqZwm84xs26LrPKpnFWsrUd6Xftlb1Pth3nviHx81jF95QMofpyWDoVBxXRnV8H+50UIelhdF/Q4EVu3W9eJgo9V+dJnnv6XFbD8qibk9tp19xWPQUBb1HLdFUx33XCzu43p88/OlzznWPG5fgIAAGDmuarr5mUfmdcNTbdI2Ngtoeemj7KevY6+afaibqSnfVarx7z8hZzP1H3v/YMiqhLzkHly75Zzz+s/XcH+6uksqzpWhFZJ+nzSpKlKzqHxFlk7rXzi3l6xkOXQOSA7zHSGXnKqTA6oMvHdXCROHpm3RQrzpcLjsy7pE+noH5S1bV7nW3kF54RLqfTpwSvDjHvht408lS96RhfvXQ9TftUQbnt23tuvC37nPhZ8rjXudaeLVp4AAABoPsloGVGzqTy9TR55XPYeHJGM1eTYyGUlM6oqFw973UiXb+Zd9sm05bTs31O43ZyqQJ8YKd2awpkqTw/KWN1BKx2VpE+naVhOZFwD3+m8PLhbVeyHzOep9QoSGPf2ioUshzNDZpwA1zaVXGZEDu0ZlCdrUFHXLWKO7tpdmE5F76feZmFFtsLjsy7pq2wch8kj+61ZLqbY569X1wCnS1DYMQz0dULniy6DgkuFc7yVzJcw5VcNUbfnP9CrX4uVsX2D6vqprkmBr58AAACYiRLRMsJ+0ub/VNdP1PUSJ71GNm9aKRLyyS4AAAAAAPXQ+C0jok7JGXW9pNH90zetlFQNBq0EAAAAAKAWGjwY0VrjqTwTKO0ekE+3iNBjGzAgHAAAAAAgORq6m0bJQfVKiLpe4/MehK750gkAAAAAaGaJmU0DWmEwQg8+Nzo8JGM0iQAAAAAAJAjBCAAAAAAAEKtkTO0JAAAAAACaBsEIAAAAAAAQK4IRAAAAAAAgVgQjAAAAAABArAhGAAAAAACAWBGMAAAAAAAAsSIYAQAAAAAAYkUwAgAAAAAAxKqJghFd0vfQoOzYukbSZgkAAAAAAGg8TROMSK/ukTbJyonhwzJplgEAAAAAgMbTHMGI9BpZ390ikjkmR4lEAAAAAADQ0JoiGNFx10pJybgc2nfaLCmhc0A299OVAwAAAACAekl+MKJzQNa2ieRGj8qYWVRKx9J2SclFunIAAAAAAFAnCQ9GtErvynaR3IgcOHLBLCulVVpS6s8vXTTvAQAAAABA3JIdjOjslTtTIpkRn0Er02ukr3+NdDh9MtIdskQHI7JO4KJVOlYPSG9nq3kPAAAAAABq7aqum5d9ZF4njJ7Kc4O05UZk764SwYgNK6Utpd9kJZMT9bpFcplxkVS7pPTy3LicGB5i4EsAAAAAAGKS2GBEevV22dgtcmLP42UCCa3S0d8na9tazHtHVjKjx+T4kdOMHwEAAAAAQIyS2U0j1FSeF2Rs3+Oy9+C4ea9kRmTvnsdlP4EIAAAAAABil8hgRKipPC1dsmqdHugyK7mcequ7ZxCFAAAAAACgLpIXjAg5lac148ZWPbbEuBza9bg8OaLHi1gpqzrNrwEAAAAAQKwSFowIO5WnSEf/FrlTt6LYNWQHL84MyaGMSNvKNeJMsgEAAAAAAOKTqGBEenVf6ak8i6XXSHfKFYgwxvYNSybVLkuJRgAAAAAAELsEzaZhpvLMDMvOwGNFAAAAAACARpOYlhHp1T3SJlk58TyBCAAAAAAAkiwZwYhQU3kCAAAAAIBGlohgRPipPAEAAAAAQKNq/GBE6Kk8AQAAAABAI2vwYET4qTwBAAAAAEBja+hgROipPAEAAAAAQMNL0NSeAAAAAACgGSRjNg0AAAAAANA0CEYAAAAAAIBYEYwAAAAAAACxIhgBAAAAAABiRTACAAAAAADEimAEAAAAAACIFcEIAAAAAAAQK4IRAAAAAAAgVgQjAFQs3blGNm8dkA7zHgAAAABKuarr5mUfmddoNOku6b2rR5a0tUjKLMplRuTAvsMyad4nWrOnL4KO/u2yVuVHLjMsT+47bZY2tvTq7bKxu0UV3ogcGj4sY+7C6xyQHevazZspmYODsv+MeVNrgY+zVpX/fdJ9ab88eeSCWRZFq/Sqz7lTbW/KuBx6eEjGzDsAAABgpiMY4atL+h7aIG3mnS9VadxZi0pjeo1s3rQyX3kqkFMVm10Jr9g0cfrsynk2fOXTnSeqYr93V+MHZTr6B2WtOkl08OSAOg+K9zcfqCgQY8U85HHmpCd6sKRVerdukTuLN5iQ8gQAAADiQjDCj88T3WK50d0VPkX1MlWhKa7kpdV+rWo5Kvurvs04NXP6TNokSuXTyZesZEb3N3we5AMRgc+BSvImiijHmbNOxICJc93QgY5htX7tEwkAAAAkEsGIgJwnvLE0L3ee5taq1UW9NXX6TIuaZi07wzkfwgXjYs6bqMeZCShECTTa+SJyYs/jcpRABAAAAOCLASwDuv563dQ8K9mL9vtaSt/UbjUrz7wSU2VWV9oeGpQdD22X3rRZVkOxpy9OnTdZXXuaMm0OdbysN2NEHAhTWY85byIfZ2eOyomcSKq9Q8KdDq2ytF3ny7i8QiACAAAAKClZLSPSrdJxV590uwai0zf+J0aOytEzXpUi0+Q65zwZVeuv7pXubruSovn1dS/kjB9Rrul21O2pz9/aI22p4r71xXy2Hzpf3ArHxqhNt5OI6Sv7ZNuvSX3l5Z5Od8nSQIMeBk2bVrSfTpP+YkHHF6jT+WB3z8iGfvpf+1YDFZ5HLtH2tTh/AQAAAPhJTMsI3cd786Yt1kwD+YqXlmqXO9dtkc2rW80Cl3SHLFF/nLt0Ub3WT//V+q6Kl5Zq2yDrvdZ1S8+z18mcLVmBibw9/fmBKrPTRcoXNydttRQ1ffPsNFn56WmetFh/kJVL9gJbReWuKuj9qiK6aYM1G0LhOitlY3HrkTBpK9rPdIv3ernxsbKBiLqdD2q9bqt5w7HQAYV866KaBCKUCs6jYpPZrPq3RVrm2e+DsY9H/+MVAAAAgCMZLSNcT5ALn9y2Snp1r2xUFSpdyZn2FNOsl1OVQFGVlJQ1qNxRGZvUT411pVNX5tRL3yfvhvM55VoNVGV7pqVCkKfjUfOliHs6yXJPxSsXPH1lx+nQFWqvlhORy8FpaaFfZ9V298vxMxfyeZpvReC77yHKzovZ77LjkkQt9yocn9FbN5i8KfHZ1VVhWZhjS8K0FApafgAAAACS0DJCVSpMxUvf5D+Zr3hpqqJ4ZEj2jtpPMZfcVPhE13nybD0tVZWKnXoaP6vipV2QsedHJGfeleJ8Ti5bulJSle05LRVyF8tUoKLnS7GxfY/LzoeLP6NGAqcvwDgdPi0nopZDenWfHYjQFdiHH1cVSicQoan1VJ4+uWdYVeB9Krch0ubF3u9y45LU83yoYEwEkzextRqosCzCaZV05xrZbJXLuIwTiAAAAADKavhgRHp1jzWegW6V4Pe0cfLsuFWJSl1f2KbarszqSlvpp5ulK0imAhagklGV7ZXtmmCrJF/qKmD6dL7bXTD8K74dS+1KeXGQKFo5dMkqPSijHk+g1JP0ydOqAm9eFzNpizZAY7CKfn3PB6dbTIQKvlPuZQJ6VRP4OKuA1dVFD/y6RTauW6m2p1vTlB6LAgAAAICt4YMRztPxV8+GrcSYyqwVRPBe1xltv3QFyWdcgmmqsz27gl0+vdHzpb6Cps8Z38C/4uvkd3FLgojl4DxJLzcuSAlO2kq3bPATrKJf1/OhgtYNdt6UD+hVS+DjrBIm4OHIZY7RPQMAAAAIqMGDEa4KZ6kamudT0PJBBKdiV7LyGLi5dzW2FzC9FeVLPQVNn1J23538Lm5JELEcKs6rEGnzEmjaywY4H5TwrRvMfpcN6FVLhWWhOXlYKq1nhqzuTTv37JYTGbEG/+zrNL8DAAAAUFJiZtPw1yq9K/VT0KKKg6ncBXqyHrpi56Eq2ytfYQzOJ1/qKnj6yo3TkfbL72qVe2gmbRFbVgQbLyKIGp4P5lwIzyl3v21XW+XnUaiWHJMX5Kg13kY1yg8AAACYGRo8GHFBstaIeu3S7vPE0T3o4HFXxcGpzPo/aQ5WYQna3Lsq2wvcCiN6vhTqkr6tus/7YPkpQKshxKCCpZ7SWzM6mEEci4NEkcvhYtYeZ6G7VzrsJdOlu8Q9q2cBJ20R5dNbMmPqfD44edQS8lgxgZDwrU5apbd/u3189neZZQGEOM68dUm7tcNhgxnlyg8AAACAo+FbRoy9Mm7937Zuu/R1uipBqmKoKyp66kddCThRNMNB2SbnTgVpfKxEhSX4U/RqbM/ps1+6qb4tar64dfRvkDYrfaqC2d7hX9GukjDps7XInXe5AgAqbTp4Yk33mdEzRuj6YmGQKHI5TI7Jq6aiv3brgHSk3Xmqp71UleJNG2R9uaBNW4/0usojbZXHGv8Ah8U5ztql2/X56c4utR/mjVHf86Ey+hjLp0fnqXv/PViBlTa937oLhMrXgAdo+OOsiMmLzEiJgUyLWNsMHbwAAAAAZq6r062tg+Z1Y7o4Jpdbe2VJaraqzNwqq3p67Z8VS2WhWmZVvPY8LkcLag2tclPPrbJw9hty6rkx8ap/pb/QK8sXzZa3Tv1Ezub/oFV6t/5H+fq/N9uwPkMvb5Elznb1zxdmSeYXv5Yr1jpa1O0VuvH2P1XpzMqrx1+UiakP9xYpX9ycfTZv3/qF/P0/16oaaguTvot/0Cqr9OwSqaWy3JW21Gydrv9TTs65XeXnu0WfVUk5/F4m3pwlN61YJLNnq/Je4c7TW618zmVG5MCzp13l7nLlXfnEF/S2Z8tCV3kst8pjkVx1+ahvuettv/eJDmu/Zi9yrdu+VK56q2i9WM+HIiaNS1reLzr+y7j4B5Lu0WW3SOWrs7/qc64v/Tkfv1GXsXOAvitvvhzgvFBCnUfTdEnfX6ySVE6XddA0tsptd/fI7PG/k+cnfm+WAQAAACglEWNGjO0blL0HxyVnPbk2clnJjA7L3oe9Ktzlm5x7Pyk265Uzrfl31O25hR/LIHy+uF2QoyP2FJB6EMhDz0d8ihxYyPSdGZJDpvWDrTBd+fws+KwKy2HysDz58G5ru+4s1flzQk+Hua/Uk3KVn7v0QIbufVar6rzdM1h2loXJI/s90+vVxSa+86GY6SaSapeloZrRnJb9e0Yk49pfnS8nRkq3wnCmKLUFPS/Cn0duztSpYVpF2Plb45k7AAAAgCZzVdfNyz4yrwGgtPQa2bxppaQyw7JzX60DWJpurbRF7pQR2bsrTIAggs4B2aHHIgmbNms9kUMPD0WeFhYAAACYaZpgNg0AsZk8LKMZ9X+IMRwq0tlrDcgZrqVCeGknEJEbkb0hgyz24KDt0h7HILAAAABAk2j8MSMANJSLWT22RrssWdEql495j0FRFboVxteXy+zMsDx5pHahCGt2li8tsgMREVpfXPnE56zxTVKu8T5W9dQ4bwAAAICEo2UEgHD02BrWmBVZVZM3y6qqVTpWD1jdQUJ3mQhFdwGxZ2fJqe1E7gZy5mjReB8AAAAAymHMCAANRU+j2p3KyujwkIzVdJAI3SpiQFZlj8r+Mww+CQAAAMSJYAQAAAAAAIgV3TQAAAAAAECsGj4YsWjRYvMKAAAAAAA0A1pGAAAAAACAWBGMAAAAAAAAsSIYAQAAAAAAYkUwAgAAAAAAxIpgBAAAAAAAiBXBCCRaunONbN46IB3mPQAAAACg8V3VdfOyj8zrhqSn9nzjjQnzDrXS0b9d1ra1SC4zLE/uO22WNrb06u2ysbtFJDcih4YPy9ik+UVel/Q9tEHa1Kvc6G558sgFa2l+PRmXQw8PyZi11OgckB3r2s2bKZmDg7L/jHkDVEWE4zMpZsR5lNDyS3dJ7109skRd71NmUS4zIgf2HZZpl1Ajid8PSIomvg56CXz+tarzrk+6L+3P5wkANCNaRkB9Oa6RbvXFqKVS8yRtvaodfZOx46HKWjN09A9aNyr65njvLq9AhJKeN/Vln536Mr/+ejutaqFcsl/lpVvM7wqMy3gDV6CqkZ+ogwjHZ1Ik8TwKLYnlp671mzdtkDtdFSEt1bZSNvq1MIv5+yEqroMJ1cTXwWlCnX86L9TfdW+Rvk57CQA0I4IREJkck1dz+kVWMuNjvk/HqqNVlrarm4wKbjB0IGJtm/oI/RRl32n//Z3nfOG7K0Gt0mLuAnIeaZ088rjsfHjQ/OyWEzpfGvpmqPL8RJ1EOD6TInnnUQSJK79W6d2w0tpnK4ibL59B2XtwXF37j3o/fY71+yEqroOJ1cTXwULhz7+xffa1s20dQTYAzYtgBJQLcnSX/lJ8XPbXvDngPPsmI3cx0g2GfvqVD0SU2df809mCG1SzfcX9FMZbZfsajyTsI7xUfnxGk149EPM4K/Eeo3Glr17lF1m6Q5bofTNdLdxlMXlmqMS1P87vh6i4DibVjLkORjr/1Lk3Mq7+b5fu1a32IgBoMgQjEK/Om6y+oZlXIvQ7Tq+R9boPaW5EDoS4KfZ+shKgyXgl+xqXJOxj0uimtA8Nyo6HtktvDG3SIx+fkbVIytzoxyL2YzTe9MVfftGkb2q3nso25bWC62D1cR2sqsjn35mjVuuIVHtHw3aRAoBKMIBlQ2iV3q1b5M7csOzcd9qaIWLVypXSZr4oc7lxGR0e8h4XQbEHehI5sedxOar/Jt0lfRt61PrOE4dxOeRe32dwOV3J1+Mv+GxGKdxP/b5jda90d9tfsppufnigIOqv9mWra19KKj1Qld09IzuVzjI8/97qs7lSUmo/7TT4m5avZZkBp4oGphp9/rCMzdN53uL5WXZ5t7vyKKvWU2Wu15u23erlZ3BRyt0tTL64tvW8WAN96f61+hg+oY7hoyr905Z5bDStjvH1Kk+nbjazkhk9JsePlOjWY5kaTE0L0gInqkqPz6js4zob26Bw4c+jysSVvnqVX3BBrxVF14nI3w+2aeVd7vvI4DrIdTDO86j214mI55+HaecUADQRWkY0AtN8LyfzpLdffemsmwpEaKlUu6zd5P90wh7oKStZ9SWlv7R2bFI3Ee4vQP1Zri8w78Hl9D1Nmb6Zzn5euqhe66cmW2St60ZMS7VtkPXu5oR6cKpAN4xKqf6+anvd1qOvY+G+jNWN2isefx/k6YQ7X8ty8sN1o6npgal02fUt1Tf3Hp+lbhbt8nbnkfoMZ73OoqaZ1crPMKKUuyN0vjjNc2+SPjPQl0WdA0vuGsgP/uUsu/OuLvt1nr4BHFR56r4B11qkrXuDbNy6pvTTJddgarGo4PhMilDnUdI0cvmFuVa4RP5+MMJ+H1m4Dqp3XAeLJfo6GPH88zKZzap/W6Rlnv0eAJoJLSMaQcGTqKxkDu6X42cu2Pdr1lMlfTOnXns+JTBPUGRE9o60WDcf1tOZ50/LpPUBrdLRKTKmPs+X2X7ZaffM3+XUzZ2oL9mUuoE4NHxUxib1Z+unPvpmS730fZphnrYEfMLmFv7JgJ0vS8aLnuhYaZAAT0PMvgZ6MmP+Vr8smmbUejKlbwj1m2npNmWXsst8f76MWtV6vWa9Ui1BoudnKJHLPUK+6Jt2/URMv1aft1d93qTZvqV4WcE2ne2Zp39nnXNA0dOpqfPoTvXB5Y5z9zSG/k85K1Xp8Rld7Z8IuoU5j6ojnvTVr/yiqeBaYc61YNOyRvk+4jrIdXCGXAejHqPmeJAatlABgHq5Ot3aOmheN6TrrvuUvPPO2+Zdc0p/oVeWL5pt34w8NiQvXfy9XDG/kyuTcvbNWXLTikUyW3KS+cWvp35n+Zzc+u+XSuq92XLDLbPlrYP/t/z3I7+SK/k/+r1cVJ9Xir39d+XV4y/KROGHF3D2c/bs2fKe+lL8wTMvyMUrzmer7WTNfuZekeP/7PF1m+6UVfr3b/1C/t7r975a5ba7e2They/LPxwtTr+f38vEL47KyYmitF8ck+PHxuSieevL7Ot7489P/4wiHf1brZs764bw//onlSf2cu2K2t7Jy62ySo/0Pi3dH5fFt91qpevAs6dd6VLlr9c7Ni6XX/1HedEvqyLnZzhRyz1SvnzudvmyNSq+OhfUOtbSq1rN57uWpTusdXOu8rG3pyoIe/6bHFV3+1PngKLOownnPFKViFJlevGfX1THiDp21D4FO9aiqPD4DEzf7P9H+fq/75VVPfaPda2RFlli3js/6ctH5Wz1NmwLcR5FU6/0xVV+VVLBtSLo94MtyvcR10Gug7U+jxrjOhj5GP24Oq/U+vLmL2p0HQWA+qGbRgNwmrWeGPaJmE9eFGtmNS9Oc8qUuiE5+LjrqVJQzpRo3s0k3ez91E9USkfnrWasXswUXuGbXtZhpHSzr2VH8k6b7iP6BrHgadh009N9QbK6YFMrZX1/l6SntZu9kH+C5ilyfoYTqdwj5ovTRDwz4joXnHS6ljl/N1U+XdJuPXrUXZr0oGseP86TRsQn6HmE2nLKwe/a7Cv494Ml0vcR10GN62ATi3z+AUDzIxhRd8582hH7VDtfcqO7AzSh9RK0ou/spx7d2vtGzBkt2q/i0eH0iw37fWxucOP8Irf3tfxI3vk0l+hPbd8weqdbzyN+KJO1+hpvtG4et0vfanVDbn5fSuT8DCVauUfNl3x/c9cyr3Taf+cqHzOaPoo50zK65rQf1f2Px+WQa5n+iXb9KC3oeRRdfdOXFM459OpZ73PYX8hAcMTvI66DXAdrqxGug1HOPwBofgQj6s7c7GXO+vdbdJ42edwQVvwlF3hKNOem1H8wMK8bqCkVBl2U+J6umn0NMPCZk2b//DdPFn3TfUHdiD8uO/eom/HRcck5A4xZN+MeA6HlVZ6fwUQr92j54jzVcy/zSqf5O9c+5Z8kHiy8sfT6oc9tXIKfR6ilCq4VIafMjP59xHWQ62CzqsIx6gT5YrsHAoD4EIyoN3OzV+qpf8dddrPK6TeElX/JlXpqX8B54uL7hKzcvgQIuvgxX8TxcW48q9EtpPxNrGVS3YwfGZIn9Y3inmHJ5PTNeF+J+d0ryM8wKi53Px754gTdCtLkkc4SwblUS6mKC+JVzfMI0QW8BnkI/P1gqUKli+sg18GmE/38c9hBvlq2MAOA+iEYUWfOkwzfiHfngD1Ct+cXUeVfcvmnOWVuoPJPXHyfkJXZF+fGKYqLWWvMjNhusAIEiAr5TbmlR1h3RlEvvmHskj7dP9q8KzB5WvaPjKsXJabyqiQ/Q6is3EPmi1e/Wq+y8Pg7e+ozdYy0d/g27U53tpZp9q3KZKvdr3pzyaexCCT0eTRTtFpTOFvHmboG1FyJSms5Qb8fbFG+j7gOch1schWcf7bpLWAAoJkQjKgz+2ZPpG2d/uJ335TpGxV1w2qm8soc9Jh+quIvOedpTrt0u2460p1d0lF0t+LVBLWAc7NUbi76th7pdc0Zn9ZTjfWvkQ7zvpHoG7p8PqRVeRTPda9cumTf/LWtGyjIs3TnGnVDZ6Z6U4orZOnVPdKm+0dv3W7NoV+Q3Xo615V2uZdV4/yMWu5R8sUrMBd0mZw5Kxn9f2qlNYd+wTatPNkuG9dtkVWdZqEHq2JgnQ+lb+aTLys53xFxqy/IeVRd8aYvrPTqPrmzzT6GU/r8rfGB5oxbELSrxZTg3w+WCN9HXAft91wH6yGe60T0888wx1bBYKYA0ESY2rOuWuWmHj2lmfpSfG+2pJYsleX5KaZulSUpPfWUutkY3S3//ece0zmZ6b/c03qF83t57xMd9nRli27NT221vH2pXPWWe3ors5+z35BTz3lPt+VMe/bWqZ94T4t15V35xBf0Z8yWhe2uba1YKgtTi+SqUtNpmXWXtLzvMbVpDVz8A0n3LJXU7EWyZIUpjxVq+9dP3/6Vifftv5WWqb+18nCRpN4bl0OnRJYseld++dN/LJgW78rEi5K5WuX9khZ1w3erq9z1tvS21R/p+d2P+EyrVkl+Bha93KPky423/6k65rMFUwjay8ZldL+zfTPN62z3Mm1SzjpT5LnLLZ8ns6358v/BLz/zaTVvazxNYD1dmRiTk7+o5rR5PkKcR9UUW/oi+viNt5tpBbV35c2Xg0yZGZ3XeRVM0O8HI8L3EddBroP1Etd1Ivr5p3VJ31+sklRuRA48G8O9DwDUAS0j6spp2nlMntxljybuDtTnMiNyaI//QFOeT0ZCmjyy39rulKxkRofleEGXkPLNb8s+ObJGs94tJwq2pT4yp27IVBpLj2DtTP3WLktjeUxzWvbvGZGMqzD0fp4Y8Wr1of92uDBdKp/09G97dw2Z/PJu5jx5RA/YZq9bUO7O+vtOl3gSUkl+BlVJuYfNF68+12ZZwfZL7NOZIdPPvChPnPOoXH6O6IHzFJ2Hz0d8igWXMOfRzDF51hxnFu9rQ/VEHcvAFuz7wRb1+4jrINfB5lXZ+We1HFL/0yoCQDO7quvmZR+Z1w1p0aLF8sYbE+Zdk0mvkc2bVoqMlp63HIrJq1RmWHaWma8dABpbq/Ru3SJ3yoiqlFLRAFCkc8Dupss9D4AmR8uIOvKalxw+Jg/LqO4MG0MfawCoqc5euVNd/HniCaBY2glE5EaslkEA0MwIRtRR+a4NcBt7fkT0/PN3bhpoyAEvAaAs3crLPPGsTjcCAM0ivVoPMmoCEbSaAjADEIyom8r6Es5Ik4flyYPjVl/iJh7iG0BTapWO1QN21zyaXgMooLtuDcrG7hZrkFECEQBmCoIRdVN+UCx4ODMkT6ov6TG+pQEkSEd/n3S3i4yaQQQBYMoFeWV83BrctPQgowDQXBjAEgAAAAAAxIqWEQAAAAAAIFYEIwAAAAAAQKwaPhhBFw0AAAAAAJoLLSMAAAAAAECsCEYAAAAAAIBYEYwAAAAAAACxIhgBAAAAAABiRTACAAAAAADE6qqum5d9ZF43vI7+QVnbZt4oudyIjO46LGPmPQAAAAAAaHwJahnRKi0p89JIpVbK2v4u8w4AAAAAACRBolpGFEivkc2bVkoqMyw79502CwEAAAAAQKNL7pgRk2Pyak4kd+miWQAAAAAAAJIgucGIdIcsSWXl1bMXzAIAAAAAAJAEyQ1GzGuRVG5cXpk07wEAAAAAQCIkNhjRsbRdcuNjQiwCAAAAAIBkSWgwokva20RyWbpoAAAAAACQNMkMRqTniZ7ls23lgHSk7UUAAAAAACAZEju1Z7pzQNava7eCElpudLc8eYSWEgAAAAAANLrEdtNYtXIqEKHRZQMAAAAAgGRIZMuIjv5BWavHjBgdlgNnT8sko1gCAAAAAJAYCWwZYQavtLplEIgAAAAAACBpkheMMINX0i0DAAAAAIBkSl4wYl6LpCQr2YvmPQAAAAAASJTEBSPSLS3q36xk6Z4BAAAAAEAiJS4Ycf31LbqPhlwy7wEAAAAAQLIkLBhhD14puYtCwwgAAAAAAJIpOcGIdJf0bt0gViziEgNGAAAAAACQVFd13bzsI/O64XT0D8paHX0oMC6HHh6SMfMOAAAAAAAkS6K6aeQyI3JoD4EIAAAAAACSrKFbRgAAAAAAgOaTuNk0AAAAAABAshGMAAAAAAAAsSIYAQAAAAAAYkUwAgAAAAAAxIpgBAAAAAAAiBXBCAAAAAAAECuCEQAAAAAAIFYEIwAAAAAAQKwIRgAAAAAAgFgRjJAu6XtoUHZsXSNpswQAAAAAANTOjA9GpFf3SJtk5cTwYZk0ywAAAAAAQO3M7GBEeo2s724RyRyTo0QiAAAAAACIRXKDEZ0Dsrm/sq4VHXetlJSMy6F9p80SAAAAAABQa4kNRnQsbZeUXIzetaJzQNa2ieRGj8qYWQQAAAAAAGovocGIVmlJieQuXTTvw2qV3pXt6gNG5MCRC2YZAAAAAACIQzKCEek10te/RjqcPhnpDlmigxFZJ5DQKh2rB6S3s9W8L6OzV+5U62dGGLQSAAAAAIC4XdV187KPzOvGpYMRG1ZKW0q/yUomJ+p1i+Qy4yKpdknp5blxOTE8FGAgSj2V5wZpy43I3l0EIwAAAAAAiFsyghGWVuno75O1bS3mvSMrmdFjcvzI6UCBhfTq7bKxW+TEnseZQQMAAAAAgDpI0JgRF2Rs3+Oy9+C4ea9kRmTvnsdlf8BABFN5AgAAAABQfwkbwLJLVq3TA09mJZdTb3X3jBBBBabyBAAAAACg/hIUjGiV3q16rIdxObTrcXlyRI8XsVJWdZpfl8NUngAAAAAANITEBCM6+rfInbpVw64hO5hwZkgOZUTaVq4RZ5INf0zlCQAAAABAo0jM1J7dKVcgwhjbNyyZVLssLRONSK/uYypPAAAAAAAaRIJm04jKTOWZGZadjBUBAAAAAEDdJWwAy/DSq3ukTbJy4nkCEQAAAAAANILmDkYwlScAAAAAAA2nqYMRTOUJAAAAAEDjad5gBFN5AgAAAADQkJo0GMFUngAAAAAANKqmDEYwlScAAAAAAI1rBkztCQAAAAAAGklzz6YBAAAAAAAaDsEIAAAAAAAQK4IRAAAAAAAgVgQjAAAAAABArAhGAAAAAACAWBGMAAAAAAAAsSIYAQAAAAAAYkUwAgAAAAAAxIpgBAAAAAAAiNVVXTcv+8i8Trgu6Xtog7TlRmTvrsMyaZaWF3W9KusckB3r2s2bKZmDg7L/jHnTEFqld+sWuTM1LoceHpIxszSJ0qu3y8bulsI8Tkw5RJXg8kt3Se9dPbKkrUVSZlEuMyIH9vmftx3922Wt+vtcZlie3HfaLAUAAABQb03TMiK9ukfaJCsnhsMFFMqupypAfVu3y46HBvM/m/vXSEfa/L5K0i0t5pXbuIw3XAV4nrTommAuK5fsBQnVKkvbdZ5nJXvRXqIlpxym6KDKjocGpMO8Ly2h5ZdeI5s3bZA7XYEILdW2UjZu9Um7Wqdb/b2WSs2TKp+yVROu/AAAAIDm0BzBCFXpWN+tKh2ZY3I0VCSi9HpWJUFVgNpShRVUXQFau2m79FaxdjN55HHZ+fCg+dktJ3JqYSNWGNPz7Mpg7mL9WpFUhVMpH5dXXAlJTDnkmaBK0H1MZPm1Su+GldZ+6xYOe/PlMyh7D45LZvyodwuPyTF5VZefZNXfjDVoekOWHwAAANAkmiIY0XGXrqiMy6GQzbBLracDEboJv1WRObh7qgK0R1VQM/ovWuTODWtq9LTVqSg3XoUxfVO7VSnMvJLwJu+BKuWNWw5Twu1jIssv3SFLrJ22u1q40zl5Zkj2H7lg3hW7IEd36fP28RJ/U29JOMYAAACA6kt+MKJzQNa2qXv5UZ+no35Kree0mNDdN/aoisyZC1MVhUlVwdlnnpin2mVpLaIRnTeJ2rWGrDBef72dL+6uDYk0z27un7tUIiENXA55IfcxieXXNAEwL0k4xgAAAIAaSPgAlmYwPgk7+GSp9ZwB/lQFocSghU7Lidzobnky/9TVrJsblp1Wa4tW6VjdK93ddmVK083MDxQ93S1mf7ZYgRD/bifOfpYZiNDqa79SUmq79j5VonibYdOn/r6/z+rHP/X3IzL6/GEZm6cHjmwpSnOl+em/vUs32eVXvozLlUOhdOeArF+p9s/ZoG5ZM3pMjh8pXebB6TFMeqZ1HfJWfGxUWn5xpE8Lmsai9PkMPioBB6edVt56vJgNrv3Iqe0Nq+0VfVC6c42sUnkytb9ZlY/j9nE9baOVlF+F0qq87yo8H3SaTowclaNnvFqOVH49i+d4AQAAQBIlu2VEZ68dNBgJN2hlyfWcJuGqAnO8xKCFk9ms9X/q+nnW/xazrvW0XQcBHtoia1037lqqbYOsX91q3nnLP70umagL8sq43ocWafFtnaEqE1Zfe1WpsSoTlXKalGflUtj0OX/vMQChHn+jb6muRBaluZL8LLm9AVllDV5ZemDKYOXg0JXMQdmoKsNTFS+tRdq6N8jGrVXq0qO7lwSqyCrTxiGooPziSp8WJo0u3oOPquQGHC/CXd46MDFtvBid7uIPUpXtjetWFgUX1DHnHNedRXlZUflFp4MCmzdNPx906647122RzZ7nUCXXsxiPFwAAACRSgltGqJvdGkzl6bR4KDuVo/MU1t3iwCzLqUqEqApHynqSelTGJvVTR/2UXlcG1Ev3OtOY/Sv5N4azvYLWGS7lfh+WrpBsWmlVkqbS5zwpLpU+kyb9UuX7oeGpJ8bWk1NdYdFvisskcn5G3F6BEOWQ35556nv2tEw6H6qno9ywwQ5+VX16ULPdkulwqbj84k6fFjKNbub4CbZfphWAbi010mJVoq2n/s87aVX50ykyVtCCwGlpovLl4H61Ded3reo46zXHmd3Vy7tlTQVpC8Pkg1bYkkHt5+pedb2zA4HT9rPi868exwsAAACSIrEtI2ozlaf3dI+luMcccJ7MWk8+R3fLzl26oudUUC7I2PMjYg3uX4oZWLHkWAaOM2dFj6VZ0DojT1UIdAVEVXQOVGnwPqfvfmH67N+VSl9Hv66YKLrSoipdU+vYAxA+eXDcflM0iF/U/AyyPWu9UoMGhigHe3uqoqYqc/t183P3h06elqPD9n6mWryeIFfA7GPYwSujlV8d0qeFTKObffwEPZdNqxFpl/XrdDBytz1Ypjt/PLsyKKqSfrzgdxfs4+zh3Vae+XbxqSBtwZnrgKIr/4UDgKr9PDIke0ez6nWLLLmpsPwqO//qdLwAAAAgMZIZjEjXZirPqQpJ+ab5zo16LjtVCbGbeeub/tItEUpWcJ2BFV2f6++iZK27+nnTmjzbQRe1L2G7sJQwlT5VqQmaPpXn3XpH9NPfgqen0xUP4hcpPwNuz8rjqpRDl7RbkY92WbtpUHY85PGjx+yw/rbKzD6GG7wyZPnVM31akIFGPTlTZhZO3erLCQyoinfuoD1obXkXzPm3Utb3d0l6Wr8DVWEvte2Q5ReFcx3QraP8WiFMnrWDc8VBzWjXszofLwAAAEiMRAYjajGVZ4Fcub7aXi0oWk0gQ49D4H3j7jyZLlXB7bDGTig9lsEUpzJUNKtHPugyXMVm0O70WQum8UpfflmJfvveT7Cj5Wfw7VWpHMxsCPVg72PQJ//Ryq+e6dOcNL561r+svIWcMtMJepSotHsZ27dbDmWy1tgJG63K93bpW90VaDyEcOUXjR1QiJJ/Ea9ndT5eAAAAkBzJC0Z01mAqz7Dyg1y6n7q6Bge0F0zjVAz8Kx+mAlA2GDJl7BXdxaFFWvIPNas9aKUjWvrKV4ZcgZ2CWmOtt1cq0BC8HJzAhm5tsPPh0j+lni6H51QWi/PNT7T8rF/6tLBpdAk5ZWb0oMcFGdv3uOzcs1sOjeoWBmaARisoUaobQgVpCyzgNjxbnyTxeAEAAECSJCwYoSraK1WlIfQ4CEHXc7o9tMj19gJPdgsLdcPt7gLhPBH0fRIbpGLgVABC9CG/mC3sf21mCqlK0MWtbP/2qJUrn0pPVfLTS/lKVpRyiL//u9nHzNlg5Vxh+dWnf3+QsvLm3drGT9RjyWXygowd0eNEqIr2nmHJ5HRQok96fZtIhCy/mjHXRsWzhUOijhcAAAAkSaKCEenVffYo7CHHQQi+nun2IO3S7fNUU8+2YY0gnyuc+jP/RND3SWyAipWpAITqHz85Jq+qfU61d0jaqViEDtaU5zTJjpY+d8sNNz0ivxlssqjSU1l+ht9egRDlkJ/i1cp/b+nO1upPY+gEFwKKWn51S59WwQCP+af2gVYMcG5O0yV9epwI867A5GnZP1LcYqlIyPKLZup61t5pLZjGuTZW63pW1+MFAAAAiZKgYESXrIo0DkK49ZwR4lPdfdKnbprz9JR0/fa0n7qSUzwbh1eT5QJOBbfEWAYOfSPf4dytp/WUgqWeMjrjRrTI0ojBmiCipu/SJbty0rZuYCpNSrpzjfRtNVMDKsUV/7i35yVQOZgZTfQghhu3rincpnPMrNsiq3wqgxVr65Fe137Z21T7Yd47Ih+fdUxf+QCKH+epfWFQMd3ZVbD/eRGCHtbAkHqciK3bretEwceqfOkzrQ3KClh+UdnduPT5YO9nnlN21b6e1ft8AAAAQGJc1XXzso/M64amWyRs7JYSc/Z7i7KevY6+GffiMR+/bpGgKrp3psbl0MNDns2unc/Ufan9gyLO/PxFciOyd5d/gKFgf/V0llUdK0KrJH0+adJy6vPGW2TttPKJe3vFQpZD54DsMNMnesmpMjmgysR3c5E4eWTeFinMlwqPz7qkT6Sjf1DWtnmdb+UVnBMupdKnB68MM46B3zbyVL7oGV28dz1M+VXGzkfzZpoaXM/qdLwAAAAgWZLRMqJmU3l6mzzyuOw9OCIZq4mzkctKZlRVLh72qhiVb+Zd9kmj5bTs31O43ZyqQJ8YKd2awpmaTw/KWN1BKx2VpE+naVhOZOwWCxadlwd3q4r9kPk8tV5BAuPeXrGQ5XBmyIwT4NqmksuMyKE9g/JkTSpeF+Tort2F6VT0fuptFlYQKzw+65K+ysZxmDyy35rlYop9/rq7IjicLgmlZlfxoq8TOl90GRRcKpzjrWS+hCm/yoztG1TXM3WNiOt6VpfjBQAAAEmTiJYR9pM9/6d0fqKulzjpNbJ500qRkE92AQAAAACoh8ZvGRF1Ss6o6yWN7p++aaWkajBoJQAAAAAAtdDgwYjWGk/lmUBp94B8ukWEHttg+gB0AAAAAAA0qobuplFykLQSoq7X+LwHvWu+dAIAAAAAmlliZtOAVhiM0IPdjQ4PyRhNIgAAAAAACUIwAgAAAAAAxCoZU3sCAAAAAICmQTACAAAAAADEimAEAAAAAACIFcEIAAAAAAAQK4IRAAAAAAAgVgQjAAAAAABArAhGAAAAAACAWBGMAAAAAAAAsWqiYESX9D00KDu2rpG0WQIAAAAAABpP0wQj0qt7pE2ycmL4sEyaZQAAAAAAoPE0RzAivUbWd7eIZI7JUSIRAAAAAAA0tKYIRnTctVJSMi6H9p02S0roHJDN/XTlAAAAAACgXpIfjOgckLVtIrnRozJmFpXSsbRdUnKRrhwAAAAAANRJwoMRrdK7sl0kNyIHjlwwy0pplZaU+vNLF817AAAAAAAQt2QHIzp75c6USGbEZ9DK9Brp618jHU6fjHSHLNHBiKwTuGiVjtUD0tvZat4DAAAAAIBau6rr5mUfmdcJo6fy3CBtuRHZu6tEMGLDSmlL6TdZyeREvW6RXGZcJNUuKb08Ny4nhocY+BIAAAAAgJgkNhiRXr1dNnaLnNjzeJlAQqt09PfJ2rYW896RlczoMTl+5DTjRwAAAAAAEKNkdtMINZXnBRnb97jsPThu3iuZEdm753HZTyACAAAAAIDYJTIYEWoqT0uXrFqnB7rMSi6n3uruGUQhAAAAAACoi+QFI0JO5WnNuLFVjy0xLod2PS5PjujxIlbKqk7zawAAAAAAEKuEBSPCTuUp0tG/Re7UrSh2DdnBizNDcigj0rZyjTiTbAAAAAAAgPgkKhiRXt1XeirPYuk10p1yBSKMsX3Dkkm1y1KiEQAAAAAAxC5Bs2mYqTwzw7Iz8FgRAAAAAACg0SSmZUR6dY+0SVZOPE8gAgAAAACAJEtGMCLUVJ4AAAAAAKCRJSIYEX4qTwAAAAAA0KgaPxgReipPAAAAAADQyBo8GBF+Kk8AAAAAANDYGjoYEXoqTwAAAAAA0PASNLUnAAAAAABoBsmYTQMAAAAAADQNghEAAAAAACBWBCMAAAAAAECsCEYAAAAAAIBYEYwAAAAAAACxIhgBAAAAAABiRTACAAAAAADEimAEAAAAAACIFcEIABVLd66RzVsHpMO8BwAAAIBSruq6edlH5jUaTbpLeu/qkSVtLZIyi3KZETmw77BMmveJ1uzpi6Cjf7usVfmRywzLk/tOm6WNLb16u2zsblGFNyKHhg/LmLvwOgdkx7p282ZK5uCg7D9j3vhqVfnRJ92X9suTRy6YZVG0Sq/6nDtVvk4Zl0MPD8mYeQcAAAAgXgQjfHVJ30MbpM2886UqjTtrUWlMr5HNm1bmK+kFcqoitSvhFakmTp9dOc+Gr+y680RV7PfuavygTEf/oKxVJ4kOnhxQ50Hx/uYDFQWCBwKczw8WvPDSKr1bt8idxQdaQvIXAAAAaFZXp1tbB81ruHWulvXtxZWo6XLjz8vJid+bd9WiKlD/+wZZMtuu5D2963/J3x87KsfVT+Zyq3z83aNytOrbjFMzp69Vbru7Rxa+Ny4jv/i1XDFLA7nyrnziC7fKwtlZyZw6Ki81eB7kAxGju+XJZ3/lmdYrEy9a5Wr/jMvVOn0h8ubiP9vrLLulVS4fG5OLZnlgnV+Vr9+iW22My6H/8bj8+DmzL2HLBgAAAEBV0TIiIOcJb/QntCE4T8hr1eqi3po6faZFTbOWneGcD1YgInAXioh5Y7p6hNuWzd5PkRN7HpejNIMAAAAAGgYDWAZ0/fW6lURWsqEfzYaXvqndaqqfeSWmyqwODjw0KDse2i69abOshmJPX5w6b7K69jRl2hzqeFlvxog4ECY4EDVvzhyVEzmRVHuHhDs8W2Wpbt2UG5dXCEQAAAAADSVZLSPSrdJxV590uwY81BWNEyNH5egZr0qR6S+ec57EqvVX90p3t10Z1vz6uhdyxo8o19c96vbU52/tkbZUuW4hPtsPnS9uhWNjRHn6XF7E9JVtQeGMB1CcL5WXezrdJUsDDa4ZNG1a0X76DO4YeDyDOp0PdveMbOjWBpW0Uoi2bnF6AQAAADSKxLSMSKuK2+ZNW6yZBvIVLy3VLneu2yKbV7eaBS7pDlmi/jh36aJ6rZ/+q/VdFS8t1bZB1nut65aeZ6+TOVsiEKFE3Z7+/ECV2eki5Yubk7Zaipq+eXaarPz0NE9arD/IyiV7ga2iclcV9H5V8d20wZp9oXCdlbKxuPVImLQV7We6xXu93PhY2UBE3c4HtV631bzhWOiAQr51Ucj1tMlsVv3bIi3z7PfB2MeH//EDAAAAoF6S0TLC9QS58Mltq6RX98pGVaHSlZxpT03NejlVCRRVYUzpQeyGj8rYpH5qrCudujKnXvo+eTeczynXaqAq2zMtFYI8HY+aL0Xc00mWeypeueDpKztOh65Qe7WciFwOTksL/Tqrtrtfjp+5kM/TfCsC330PUXZezH6XHZckarlX4fiM3rrB5E2Jzy7JlLWEabkTND8BAAAAxC4BLSNUJcZUvHSl4sl8xUtTFcUjQ7J31H5quuSmwie6zpNn68m1qsTs1NNFWhUv7YKMPT8iOfOuFOdzctnSlaCqbM9pqZC7WKYyGz1fio3te1x2Plz8GTUSOH0BxunwaTkRtRzSq/vsQIQOJjz8uKrAOoEITa2n8vTJPcOqAu8TaAiRNi/2fpcbl6Se50MFYzCYvImnlUKrpDvXyGYrn8ZlnEAEAAAA0HAaPhiRXt1jjWegWyX4Pd2cPDtuVaJS1xe24bYrs7rSVvppaukKkqmABajUVGV7Zbsm2CrJl7oKmD6d73YXDP+Kb8dSu1JeHCSKVg5dskoPyqjHdSjVqmHytKrAm9fFTNqiDV4ZrKJf3/PB6RYTIdjilHuZgF5FrK4neiDWLbJx3Uq1Pd26xTVGBwAAAICG0fDBCOfp+Ktnw1ZiTGXWCiJ4r+vM6lC6guQzLsE01dmeXcEun97o+VJfQdPnjG/gX/F18ru4JUHEcnBaNZQbF6QEJ22lWzb4CVbRr+v5UEHrBjtvygf0KmICHo5c5hjdMwAAAIAG1eDBCFeFs1QNzfNpe/kgglOxK1l5DNz0vhrbC5jeivKlnoKmTym7705+F7ckiFgOFedViLR5CTTtZQOcD0r41g1mv8sG9Epw0lRq22eGrO5GO/fslhMZsQbj7Os0vwMAAADQUBIzm4a/Vuld6dFc31TuAj1ZD12x81CV7ZWvMAbnky91FTx95cbpSPvld7XKPTSTtogtK4KNFxFEDc8Hcy6E55S737bLC9WyYvKCHLXGv6hGfgIAAACohQYPRlyQrDWiXru0+zzhdA86eNxVUXEqs/5PmoNVjIN2K6jK9gK3woieL4W6pG+r7mM/WH4K0GoInL7ST+mtGR3MII7FQaLI5XAxa4+z0N0rHfaS6dJd4p7Vs4CTtojy6S2ZMXU+H5w8agl5rJhASPRWJ13Sbn1A+SBWoXL5CQAAAKBeGr5lxNgr49b/beu2S1+nqxKkKoa9/fbUj7rScaJohoOyTc6dCtL4WImKcfCn6NXYntNnv3RTfVvUfHHr6N8gbaYGnWrv8K9oV0mY9Nla5M67XAEAlTYdPLGm+8zoGSN0/bQwSBS5HCbH5FVT0V+7dUA60u481dNebpcdmzbI+nJBm7Ye6XWVR9oqjzX+AQ6Lc5y1S7fr89OdXWo/zBujvudDZfQxlk+PzlP3/pdi9i0zUmJg0SLWsRY6eAEAAAAgLlenW1sHzevGdHFMLrf2ypLUbFWZuVVW9fTaPyuWykK1zKp47XlcjhbUUlrlpp5bZeHsN+TUc2PiVf9Kf6FXli+aLW+d+omczf9Bq/Ru/Y/y9X9vtmF9hl7eIkuc7eqfL8ySzC9+LVesdbSo2yt04+1/qtKZlVePvygTUx/uLVK+uDn7bN6+9Qv5+3+uVTXUFiZ9F/+gVVbp2SVSS2W5K22p2Tpd/6ecnHO7ys93iz6rknL4vUy8OUtuWrFIZs9W5b3Cnae3Wvmcy4zIgWdPu8rd5cq78okv6G3PloWu8lhulcciueryUd9y19t+7xMd1n7NXuRat32pXPVW0Xqxng9FTBqXtLxfdPyXcfEPJN2jy26Ryldnf9XnXB/kc7qk7y9WSSqn8z7oNlvltrt7ZPb438nzE783ywAAAAA0kkSMGTG2b1D2HhyXnPXk2shlJTM6LHsf9qpwl29y7v2k2KxXzrRuBlG35xZ+LIPw+eJ2QY6O2FNA6kEgDz0ftLVCVCHTd2ZIDpnWD7bCdOXzs+CzKiyHycPy5MO7re26s1Tnzwk9Hea+Uk/mVX7u0gMnuvdZrarzds9g2VkdJo/s90yvVxeb+M6HYqabSKpdloZqRnNa9u8ZkYxrf3W+nBgp3wrDmco0TKsIO71RZhwBAAAAEJerum5e9pF5DQClpdfI5k0rJZUZlp37ahzA6hyQHXpskLDbstYTOfTwUORpWgEAAADUVhPMpgEgNpOHZTSj/tdjY9RwkJG0E4jIjcjekEEPe7DOdmmPY1BWAAAAAJE0/pgRABrKxaweW6NdlqxolcvHvMegqIQ1W8qXFtmBiF1humfYrnzic9Z4IynX+BuremqzrwAAAACioWUEgHD02BrWmBVZqe4ULHoAWXu2lFxmOFIgwnLmaNH4GwAAAAAaDWNGAGgY6dUDsip7VPafYfBJAAAAoJkRjAAAAAAAALGimwYAAAAAAIhVwwcjFi1abF4BAAAAAIBmQMsIAAAAAAAQK4IRAAAAAAAgVgQjAAAAAABArAhGAAAAAACAWBGMAAAAAAAAsSIYgURLd66RzVsHpMO8BwAAAAA0vqu6bl72kXndkPTUnm+8MWHeoVY6+rfL2rYWyWWG5cl9p83SxpZevV02dreI5Ebk0PBhGZs0v8jrkr6HNkibepUb3S1PHrlgLc2vJ+Ny6OEhGbOWGp0DsmNdu3kzJXNwUPafMW+AqohwfMatovOhVV1X+qT70v582gAAAAAHLSOgaj9rpLtNV35EUql5krZe1Y6ubO14qLLWDB39g1aFTQdP9u7yCkQo6XmSMi9z2anK0PXX22lVC+WS/Sov3WJ+V2Bcxhs4EFGN/EQdRDg+41bZ+aDT1CKp7i3S12kvAQAAABwEIyAyOSav5vSLrGTGx8SrXl89rbK0XVVwKqho6UDE2jb1Efpp8r7T/vs7T1WErBfuylOrtJgaYM4jrZNHHpedDw+an91yQudLA1QK/VWen6iTCMdn3Co9H8b22eu0rSNYBgAAgEIEI6BckKO7dGXjcdlf8+bU8+zKVu5ipIqWbgWQD0SU2df8U92CypPZvuJ+Gu2tsn2NRxL2EV4qPz6jSa8eiDjOSpRjTV1bRsbV/+3SvbrVXgQAAAAoBCMQr86brD7ymVcijEuRXiPrzRgRB0IETbyfMAdoal7JvsYlCfuYNOo42/zQoOx4aLv01rrPkhL5+IysRVIm4BFK1GPtzFGrdUSqvaPmXcAAAACQHAxg2RBapXfrFrkzNyw79522ZohYtXKltDlPSHPjMjo85D0ugmIPeCdyYs/jclT/TbpL+jb0qPWdJ6/jcsi9vs+gdLqSr8df8NmMUrif+n3H6l7p7m6f6vueGZYDBV0n1L5sde1LSaUH7LO7Z2Sn0lmG59/riuamlZJS+2mnwd+0fC3LDNjX5jS/1/kxIqPPH5axeTrPWzw/yy7vdlceZdV6qsz1etO2W738DC5KubuFyRfXtp4X6b2rR+7U45moY/iEOoaPqvRPW+ax0bQ6xterPJ2qdGclM3pMjh8p0a3HMjWopBakBU5UlR6fUdnHdTb0sRH+fJhSyboAAABoTrSMaATpDlmiKk05mSe9/eqmfd1UIEJLpdpl7Sb/p7T2gHdZyaqbfH3Tv2OTqky5K6v6s1wVAO9B6XTdrkwfdWc/L11Ur/XT4y2y1lUh1VJtG2S9uzm2HqQvUMVZKdUXXW2v23oseyxcZUZVWF/x+PsgT3fd+VqWkx+uCreWaltplV3fUh388fgsVWm2y9udR+oznPU6i5q2Vys/w4hS7o7Q+eJ0U7hJ+tRxbAUdNHUOLLlrQFXUC5fdeVeX/TpPB2sGVZ66AxFai7R1b5CNW9eUfjrvGlQyFhUcn3ELdT4Umcxm1b8t0jLPfg8AAABcnW5tHTSvG9J1131K3nnnbfOuSX3udvlye4vMTi2Shal3JXPw/5YD+38if3/sqBx/9beSXrxUUrNny8JP/FaO/3NxTaBVbuq5VRa+Ny4jH9wuG7+0yHpK/fTw/5K/f06tf2xcLl+ekLGLvzd/L3Jl4kW1XP/O/FxulVVq+2+d+omcVfVNX2Y/35uzWG7VT511i4v/sV9+/NxP7O203mpVWme//8bUfl75tZzMb0ulpUelRbfAeOy/2elz//zi13LFXmua9O1/Kt2L3pUTw38rE35/VMDOl9njfyfPT0yl3U5DVkb3j0mppOpKbc//R+1r5pj8eFqeF1MV4P/jy7JQv9TTjP6P/6byxE5TRuXtDe26XPXvVBkVpLFVer/272Xh7KxV5k+qMrfzYlyt93F7vfbFcvWrL06luUr5GUqUcrdEyJd0p6xasUidCy1W64C9u9RxbI5PvWx20TLJveLapmnVoPNz9O/lwE+dc0D9qPPoanUeLVTn2McvH/U/zlX+ftCqgy+z7dYez/6qOnk4TaXHZ3Qfv/F2Wa7OpVePhdlGmPPBw1UqvbpcVVmfdKcXAAAAMxYtIxrA1EB2qlKpB5E8c2GqhcLkadk/PCLWZBee0246T5LbZf26FlWpNTNM5D/ggoypzyvF3n5WsmVqJs5+Wk/mR3fLzl2664fz2Wo7z5v99OM8dQ492KIzY4T3U2Rv9qCc05rYnxmSnUGap5t9tVoDlNHRb5r166b1RdOMTqrtPXlQD+Cn+KVbpet4QRmp8tfrPbxbDpVq1h45P8OJWu6R8sWZYUKfC063j4tZ+/Pdywx3+djbG7fybL/ujuH+Q3UeHTXnUaql9ECKY/vsGSRKztRSsQqPz8B0txc9/sXUj54SV18v1rqW6Z+S02+GOB8AAACAIAhGNACn+fOJYZ/xGiYv+lfynQqpqijmDtqBjHCCV/Tt/VR1Sx3wKNGP3rfCYiqa4Zug12HGCLOvZWc0cLqPmIpyKdPTfUGyVu14pazv75L0tEiTquiXSnDk/AwnUrlHzBcn8JEZcZ0LTjpdy5y/myqfLmm3Ih+6S1NhJTv/o8disP4WoQU9HwAAAICACEbUXatp2RCtL3a+kjC6W/ZHGn0/aEXf2U89yr93hSR9kz2OgF+FpcMZHyDsw9U6PJW197X8jAb5NJcYb6NUy5OxfbvlUCZrjbmw0apEb5e+1V2BZh2InJ+hRCv3qPmSH5fAtcwrnfbfucrHzPSAYs60vVM/e0f1+A16cNPC5aWuH0HPBwAAACAoghF1Z4IBmbP+TbNLNMd3Kmqvno34xDLwdH1O0MJ/UESviuSUCoMuSnxPZc2+BhgA0kmzf/6blie+6b5gdwvYs1sOjY5Lzhlo0QpKlOpOUHl+BhOt3KPli9O6wb3MK53m71z7lG9RcbCwgu31U6vZMZpX8PPBFy0rAAAAUIRgRL2ZYECpp/4dd9nNy6cHDCqvkJZ6al/AefLs24Ki3L4ECLr4MRWZ+ARtLRJE+cq8ZfKCjB3R40SoCvOeYcnkdFCiz3cGlYryM4yKy92PR744QbeCNHmks0Rwrtx4EIii8vOBlhUAAAAoRjCizqb3fS/SOSBrrdqg1418wIpuCfmn2mVqGfknz74tKMrsi1OBjMIMYBhbRTNAgKiQ35SFrVODOE6ryHVJnx4nwrwroActHdGDO5aYCrGS/AyhsnIPmS/O03N3vnuVhcff2VNHqmOkvcO3i0u6s7VM9xd7WlA9vsTmkq1SZpjQ50Ox6S1ZAAAAAIIRdWYHA0Ta1ukKkLtyqits22XHOv1EUVUGD3qMsF/iCXEwzlPtdul2Vb7SnV3SUVRr82qKX8CpsJQYI8DS1iO9qlLoSKe7pLd/jXSY941EV2zz+ZBW5eHab8elS3YluG3dQEGepTvXqIrtFhNIml6RS6/ukTY9TsTW7dJXXElWedK30i73smqcn1HLPUq+eAXmgi6TM2clo/9PrVR5qtLv3qaVJ9tl47otsqrEjBFWgMQ6H0oHNZIvKznfEXH9BTkfPJljpGBQUgAAAMx4V3XdvOwj87ohLVq0WN54Y8K8azZ62r0tcqeuHEiLpExFqJgenNKzn3vngBWs8P19AOnVqpJmTfVXSPe9nxrQzuxnSg965z3toPM5heu5OZ9h3hbxX09z8mlE9u6Ko0LTJX0PmSf3bnpmiGnb9/lbLafya7xF1naLnPCYotMv7/Myw9OmspxSSX4GVUm5h8+Xjv5BWduW9Vjm3n6JfTLng5+cys8DQfNTT0daZhaQmSPM+VDMrBvobwEAADCT0DKirpwm7sfkyV32rAruB5a5zIgc2uM/4J7nE+KQJo/st7Y7JSuZ0WE5XlCxLN8dpOwTdGtU/91yomBb6iN1xVSlsXTF2ZkCs12WxvK4+rTs3zMiGVdh6P08MeLV6kP/7XBhulQ+6Wkw9+4aMvnl3Q1m8ogeuNJet6DcnfV9K85aJfkZVCXlHjZfvMaeMMsKtl9in84MmfE2ivLEOY/K5eeIHkBU0Xn4PIGIKWHOh0JWCyD1P60iAAAAUIyWEfWUXiObN60UqaBlw4xh8irFE2sgGZyWKpyzAAAA8EDLiDpK39RuD8RXQcuGGWPysIzqQQH0GAnN25kfaAppJxChu2cQiAAAAIAHghF1VL5rA9zGnh+xxta4c9NAQw54CUB3zdCDhZpABONEAAAAwAfBiLrx6iOPkiYPy5MHx60xFZp4qgMgofQgoIPWgKZ6sFACEQAAACiFYETdlB8cEB7ODMmTqpIzRi0HaDAX5JXxcWuQ0tKDhQIAAAAMYAkAAAAAAGJGywgAAAAAABArghEAAAAAACBWDR+MoIsGAAAAAADNhZYRAAAAAAAgVgQjAAAAAABArAhGAAAAAACAWBGMAAAAAAAAsSIYAQAAAAAAYnVV183LPjKvG15H/6CsbTNvlFxuREZ3HZYx8x4AAAAAADS+BLWMaJWWlHlppFIrZW1/l3kHAAAAAACSIFEtIwqk18jmTSsllRmWnftOm4UAAAAAAKDRJXfMiMkxeTUnkrt00SwAAAAAAABJkNxgRLpDlqSy8urZC2YBAAAAAABIguQGI+a1SCo3Lq9MmvcAAADA/9ve/cTGkeWJnf/JPSd5+pRZirxUrWcOqZQ6k1XdVdMwREoiAdqeGRiSIBAEtzFrLCDIEgEBxgI+CTrwIOjgswBJELQXwzBN0IREeDxjrGBREklgZ3rchpSjykrAg0JPH0gqc/vS1T232vciXiQjkxGZES8yIzPI7wdQFTPIyIh4fyLi/eLFewCAXMhtMKJ6riLtRl2IRQAAAAAAkC85DUZMSaUs0m7xigYAAAAAAHmTz2CEc0b0LJ/lmSWpOt4iAAAAAACQD7md2tOpLcm1qxU3KKG1dx7Lk1f0lAAAAAAAYNLl9jWNizOHgQiNVzYAAAAAAMiHXPaMqC6uyBU9ZsTOhjz/8E72GcUSAAAAAIDcyGHPCDN4pftaBoEIAAAAAADyJn/BCDN4Ja9lAAAAAACQT/kLRpwpSkFa0jownwEAAAAAQK7kLhjhFIvqvy1p8XoGAAAAAAC5lLtgxCefFPU7GvLRfAYAAAAAAPmSs2CEN3iltA+EjhEAAAAAAORTfoIRzpTMLl8XNxbxkQEjAAAAAADIq1NTn3/xvfl54lQXV+SKjj50acjm/VWpm08AAAAAACBfcvWaRru5LZtPCUQAAAAAAJBnE90zAgAAAAAAHD+5m00DAAAAAADkG8EIAAAAAACQKYIRAAAAAAAgUwQjAAAAAABApghGAAAAAACATBGMAAAAAAAAmSIYAQAAAAAAMkUwAgAAAAAAZIpgBAAAAAAAyBTBCJmShXsrcnd5XhyzBAAAAAAAjM6JD0Y4c5ekLC3Z3Xgp+2YZAAAAAAAYnZMdjHDm5dp0UaT5RraIRAAAAAAAkIn8BiNqS3JrMd2rFdXLM1KQhmyuvTNLAAAAAADAqOU2GFE9V5GCHNi/WlFbkitlkfbOltTNIgAAAAAAMHo5DUaUpFgQaX88MJ+TKsnsTEV9wbY8f7VnlgEAAAAAgCzkIxjhzMvC4rxU/XcynKqc1cGIlh9IKEl1bklmayXzeYDarFxQ6ze3GbQSAAAAAICsnZr6/Ivvzc+TSwcjrs9IuaA/tKTZFvVzUdrNhkihIgW9vN2Q3Y3VGANR6qk8r0u5vS3PHhGMAAAAAAAga/kIRrhKUl1ckCvlovnsa0lz5428ffUuVmDBmbsjN6ZFdp8+ZAYNAAAAAADGIEdjRuxJfe2hPHvRMJ+V5rY8e/pQ1mMGIpjKEwAAAACA8cvZAJZTcvGqHniyJe22+qhfz0gQVGAqTwAAAAAAxi9HwYiSzC7rsR4asvnooTzZ1uNFzMjFmvn1IEzlCQAAAADARMhNMKK6eFsu6F4Nj1a9YML7VdlsipRn5sWfZCMaU3kCAAAAADApcjO153QhEIgw6msb0ixU5NyAaIQzt8BUngAAAAAATIgczaZhy0zl2dyQB4wVAQAAAADA2OVsAMvknLlLUpaW7L4mEAEAAAAAwCQ43sEIpvIEAAAAAGDiHOtgBFN5AgAAAAAweY5vMIKpPAEAAAAAmEjHNBjBVJ4AAAAAAEyqYxmMYCpPAAAAAAAm1wmY2hMAAAAAAEyS4z2bBgAAAAAAmDgEIwAAAAAAQKYIRgAAAAAAgEwRjAAAAAAAAJkiGAEAAAAAADJFMAIAAAAAAGSKYAQAAAAAAMgUwQgAAAAAAJApghEAAAAAACBTp6Y+/+J783POTcnCvetSbm/Ls0cvZd8sHcx2PSRSW5K7Vyvmw6HmixVZf28+QKqLd+RKuSjt5oY8WXtnlsJW7PS0LZ9DKtfkO4CBnHm5dXNGCtKS3acPZeuk3rDk9H6C8/yYcP8JTLRj0zPCmbskZX2B3kgWUIi3Xkmqc0tya3lF7t7z/t1anJeqY36NgZxi0fwU1JAGF4JD6kZzWt2oaIXCGYlbvJy5O6pMLknVfB61rLdnLUF62pbPoZRry3zHyZSb+pcb+bm+O+crUnB/akkr5o3OcSwvubyf4Dw/NnksL5zncZL8wCmVVszP+aVO8n92rSKnm38p//6vEoQiYqzn1Jbkz/71H8uPPyvK6dNmoXK68Jmc/bIkv35TlwOzDNG++/av5O2bLfOvIT/40Vfy6e8asv3zv5PvzN+ceN/9Vn6o0+V0S5q/2JK//vY35hf9lOSP/uRShmmZ9fZSSJCetuVzKOXaKt9xMuWo/uVA3q7vf/DTP5WzOhrRjpv/x7O85PJ+gvP82OSvvHCex8lyLHpGVC/rbosN2UzY7W3QejoyeeOq9yRCd6t79nRFHtzX/x7L5k5LLa3IlcUp92+RxBkpuol6wGsxXfZk65EuXw9l/dWeWTZI1mmZp7yzSU/N9hht17PdT5w8nDuHJc/X93ajHjP/T0J5ycsxcp6fDHkoL5zncbLkPxhRW5IrZVVnd7akbhbFMmg9Z16uTeuuXS33vTL9ft9+56ywJ/VXD+XZi215xnt/ydXOi0p6aX5N2qWWdVqehLyzPUbKNUaNMjYcuby+l7wGitrnbz7EbMxyvga65aG8UKZxwuR8AMuSzC7flguSdPDJQeuZ36sLv90ANyWpLi647we69w5Ku7ktO69fSv2MHkin2DP4lNlee0MeuDc/+h3WWZme9t8P1etvyHN9w2Q+D4WjtnO5ez9198/d7S3Zeh92szOc/XSfSE3LgAG4/DxoyOb91ehAk7qpdAf0Utv19mkIEqVLIE1ei8xeviQX9Huh+u83VmVLpo4u8485YlAl6TuY6pQsLF+SciHsHcheA9IulvTbO5LfjvrO64HvVOmyqdKlfuSAE9Yjq/Q8Kl75PCr2etb7mbb+JUxPa9376dTm5eLMjMpv77dtld87ofnts9vPbMpZivoeoF8PuDaj8s3foG4U77yRt69682449T3+9g7ZpqeX35XAPrdUeqo81+kZtbFM+deWvF3fzff0vd8ZTnmxwv1Et9TXo4zLWeL889ifd9WfWpyX0opXXoKS5oMn2XlwHPU2bf1Lki6BbWVy3UTe5LtnRG3Wu6HYjt/QcA1az/xeXzTeJr1R0Reze7fdEZM79UUplGfkys07snBOX5x6Bp9yqu57oO2PB4frB04IWqF8Xa7Nlcyn9HSlvnXz6H5KoSIXrt6WW2HbGtJ+fvKJPuEOGoBrT75u6K6yRSlGjvSkTnDX7V7RiZI8XUx3OjkvCzeveydTTf392cv6u7qXXbh82O03fFAlfS7u0wXXOaNOxOHrHdFuyUfzo7UhbC+Y3/pG4K5Kk66Lrk6/3gO2qEdW6RkiXvk8Ku561vuZpv71Tc+l8POSLX8/Vd2YXVQ3flcPAxFaQdUDnYezYfXaIt992ZQz+/ru0TedK97rAcENqvNcefq63Fie7x7YLnX9S7i9AKv0VOdPL7+D+6zS1k/P2vCuYdZye333yt5EXR8M7ieOSnU96lvOIs7XKdLTKv8Mq/NEivNSWnGv0y6b+q4lPQ+Oo96O7H5iAq6byJ0c94xQhXNEU3lWF1dUJbN5amK+W/+ovn9z4zAC6kb0dEXSH3q3rX6nI+htdZIRdUIquJHkLbWujkbr6KOu9OrHYUTrNbM9rTvyWVIXk1m5oU5I+kRyJNo7lP00aRTnWPzt7TyWJ2HvWA76fVI26aJPyu5Ua4paR3fr3Q98z5Fl/Y7b/E38cmdbB2zZbM9ExPXTvO2iezFx0/a1ShP3C1S5qYnUu568WNajXonTU0tQPrvYrqfE3U/zd8nr32F6dp5c2KRnXGY/Pbob/Lpq9O153+s+NVP7ojfYZz+T53tG5SxVffe3Z57mfPD3TVHpMqvSpf/TerN+7HxKsz2b9DTrFLw8X+/8Tp0/a7MmPcc/JWVur++m7LVj73fS8mIpUP65n+jDfP/gcndYzhKdr23T06ynJco/V5rzru15MI0E5SWQD4nqu58m1udBs92M6m2a+4nY6TLW6ybyILc9I0Y3leeUVNxalnzan+qiqaC6IqlK6FdQbf/9qjx50fA+9AxK40fQ3ciouhA+eKS7tPknsD2pv96WtvmUnqrY5gSgK6/7rqz7SVMNhler8swdvKsoZ893R0SHsp86Aqz+50ZjB3n/QZrqf4VPznifu5jjUCe850O5cbBMlzPqJK7/r0+8/joHLS8dgsuMfsftpW9LWjGSxmXSMrNBjqy250fEK+oiVVRpq270dJp0vkCVm64bFft61CtxempJymeQ7XpK3P20rX9+euqbxCdr0emZtAdJFH8/3fKvB2tT+dv53v13sr5h9rNnert0+Z5ROUtR373tqRs+dRO6rruVBv9QpcuWSZdCMeIpZML6l257ydOzQ93U6uDTIZX/Oj31wJCRN+BZyfH1ff+lSsMEN9yZXB+4n4gr7nneL2dJz9d26Wmffx7b826K82AaCcqLbX3vsD0PZlJvbcuLZbqM87qJXMhnMMIxg0813yS7sUmyXjthVyj13dPuFcSrWP30DkrjdRtTy/WJvM+F0Kah08sLxqjvUiefqJua/Q8Nr3L3XLSHsp/mpNRuRa9/6EBa7o4cnZPbP47Er+hEsE0X/4TetR/mGIPL/L+LPu6SnKuov1EXsK/jHpC/nawGObLZnn9hVRe89guvYdpXinrUzSI9tUTlM8B2vQT7aVX/Aumpn3j1k3zfw/ndYCMDvvsHR29y0uZ7RuXMvr77jWD9isqK3L0X8s9/chQlUf1Lub2k6enaM+frGbm2OCXOkX6z6gY3SV0cpWN6fe9ic75OiPuJuGKe51Ocr23SM03+uRKfJ4ZwHkwjbnlJdT1KeR7MoN5qae8ncnPdRC7kMhgxqqk8Xf7JNSHnvNc1qd/TRa+i9UbG/RGy9ZOa8BNC57tjXXD78xsKsUfj7hjOflbdd8niPpXyT+oVORc8oasTohdU2oi8gCZlmy7+esE89Y6xe5n3d/2O2zxhSBAND9vOKFltz7/497nZCbKvR72Sp6eWrHwesl0v/n7a1b/hpWdchyP+x3on10i9nxmVM+v6bkZHTyNR/Uu7vYTp6auvPZbNZst91/iGe/N4Rxbm1A25+f3YHfPre5DV+Toh2+vmcb+fOCreeT7rcmaff0bS88QQzoNpxC0v9vngSXMezKLeZn0/Mc7rJvIhf8GI2oim8kxp8EndRMZ15euqxf5FKvpJTVhFthOzoeBfYLqeSAxjP832EzyVqn+tu3wVpdgJypeGOsiUxzZd/KhtcL2w7zJ/1++4E0/lFHOfh8Zue/4FJ+7Njn096pE4PbXk5dNju54Sez/t6t/Q0jM2s5/ND31GrDcNwsCNedr9zKac2dd37wZNJcuLFXlwv/+/8KdUyepf2u0lTc9De+pG/KE8eKpuxnf0E1UzwJh7M57fbrT25TPL63uQ3fk6mZjbOHH3EyFinuezLWdp8s+T9DyR/jyYRvzyYp8PPtvzYBb1VsvyfmKc103kRc6CEerCMaNOfroLW6KCl2A9vwtxoSifuAuGJaLy+5G/yIh5Vicnn0krpeuJxFD200+DQU+BA8x7ZZ33wcxI6KMKKkULSRe/UdXV8DLHGFwW0vjqFRZN7i9kOyNls71RlN2IetQjeXpqFuXTZbtegv0c1XnCjKg9KD1jM/sZduPq83qoqaKUKFDUL98zKmdDqO/277WGbCcGu+0NIT331c34K/1+tLpRfLohzba+GV8In0ElSyfm+m5XXoaP+wnN7noUIup8PbJyFpF/LvuyO573+y3KS6SI+t4r8Xkwo3o7svISki5jvW4iL3IVjHDmFrxRUxO+15dsvXfS0KMcSUWmIyOYpYjuVsGIe5AemdYM+tJT0TqRv8gb85gnvVhMN0V1bJWau+AIP6104CY47dlQ9jNGQ+WI/bp8o/a5UKmqNE8QVErEMl3CnhiEHWOfJwu+ThQ6bsH2T9xZsdqebdlNXo96JU5PzaZ8arbrKXH3M139ixh8zB2J2gsMDOcG7XA/j964GqaHWnhXWdt8z6icpajv+y09CJx/Hgvn1KKuK0rC+pduezbpOSUL+v1o86mLHrR0u/eJdBj1Hcvee8D9phJM5zhf3wMyuT5wPxFXsutR8vO1XXra558nedlNfR5MI3F5sbkepTwPZnRfl/Z+IjfXTeRGjoIRU3LR6r2+5Ov5o8gWpm/LrZ4Ti566Rs+v2zuv7cePXqUpX12SauAXTm1e3WCZKXKU3hNh5yIVdX70K22fd7SS8Lop6v280z3Xsb7QLd6RGzqt1P70Dj43zP3UJ5ZOGjnqBBbcjyP89zyLci5RUCkZm3QJa3jFXdbNj0J33yA7tamushSqfElmA/vruPs7L1XzeeiSbM+/sB65YEezrUfdUqSnkqx8Hkq+Xvz9tK1/frl2z2Vz+nvVhduUaXdub3f7/W5KkvH2U+efblAGz536RuVOZyqv5ovVric/qfI9o3KWqr6bkfz1oGb62tG1Tf8cc/W2XIxoFHTErX9ptmeRnu5AePr96GXv/BnYnPqlukE3T1f7cW9kTXnsd/OZ1nG+vh8x4usD9xNxxD/P256v014fkuafy+I8MbTzYApxyottfR/GedA14nprW15ye93ExDs19fkX35ufJ5ozp0+MkniO8nTreZXjKHVyPvJ96kTjz73bq92QzUZRrhzZj5KZj1j9/n73zbnP3w/9ztSwBlfy51kPF3Zsw9rPiDRqb/edT7krL/R0QiN6tzNpunh/373cWxZMp8Fpp0WVt+j09L/XfOwxzPLisdieurF357He6T9aczebenRU8vTU7Mqn/Xpx9zNd/Ysq1+4c9h8rsdIzHrOfqq7od2QLEWUlvDykyPeMylnq+m72M0r3HP+97OtflMjtWaVndFnuUNvTI7DHOr4Rnue1/vua7+u7x6K8WIo6v3hO7v1EUFR5G875Ol16Js8/w/I8ke48mEaS8mJ/PYrK644k58Eew6m3acpL3q6byIt89IzojHY8wqk8e+y/0oPP6He8vEigR91k6xPJ/bCT8ztZV3+/2wz8vVpXT5vz7NGq6erU6ummN7ib28AIpoX62oo8e9GQtttFz9D7uhN1bMPaT51G2ypNzUelrU5gu9v9n374U0vprt2jHGQqWbqEvVNnlnWlU7yujPuv1t3Rlw952z3aNdK3J1uPHneXN0Wn5+bTYVyweiXfXmikeyCbenRU8vTU7Mqn/Xpx9zNd/fPKtdo/tZ22Tkt1U7v5VN1ArtWl2HcQrqT8/XwjT1RZ0cfVVZXc7UYNNGWf79mUsyHU9/erIdcU9ad+uvS9obKo75bbs0vPw2um3seufPfTddDxbZvzvD6m16NtIB7n67snu+sD9xODJbkeJT9fD+P6kCT/PLbniXTnwTSSlBf761Hq8+DI622a8pK36ybyIhc9I45G0eKxXQ8TxpmXWzdnRJJG4AH0YZ5yxOjBEQv1FMCky+15asjnawCYEJPfM6I2mVN5IiP6PTt141BQF+BRDzIFnCTu+63q/8N6Xz1sXnIAmBg5vp8Y9vkaACbFhAcjSpajHduuh7FzggM86ScY+v20loQOoAQgmn4C6M5r3jO6tz/wk/tea0N2hnSOHF2XcwCwkKf7iYzP1wAwKSb6NY1+g+70Y7sexi188B7yEbBguiP3VKeAPoOTJTZ4UCwAyE7O7icyPV8DwOTIzWwaOAm6bx70oD07G6phw8UXsKSn1FyQ6bI3h7dLDzjVeCNvXw1z4CfeZwYwSfJ4P5HV+RoAJgfBCAAAAAAAkKl8TO0JAAAAAACODYIRAAAAAAAgUwQjAAAAAABApghGAAAAAACATBGMAAAAAAAAmSIYAQAAAAAAMkUwAgAAAAAAZIpgBAAAAAAAyNQxCkZMycK9Fbm7PC+OWQIAAAAAACbPsQlGOHOXpCwt2d14KftmGQAAAAAAmDzHIxjhzMu16aJI841sEYkAAAAAAGCiHYtgRPXyjBSkIZtr78ySPmpLcmuRVzkAAAAAABiX/AcjaktypSzS3tmSulnUT/VcRQpywKscAAAAAACMSc6DESWZnamItLfl+as9s6yfkhQL6s8/HpjPAAAAAAAga/kORtRm5UJBpLkdMWilMy8Li/NS9d/JcKpyVgcjWn7goiTVuSWZrZXMZwAAAAAAMGqnpj7/4nvzc87oqTyvS7m9Lc8e9QlGXJ+RckF/aEmzLernorSbDZFCRQp6ebshuxurDHwJAAAAAEBGchuMcObuyI1pkd2nDwcEEkpSXVyQK+Wi+exrSXPnjbx99Y7xIwAAAAAAyFA+X9NINJXnntTXHsqzFw3zWWluy7OnD2WdQAQAAAAAAJnLZTAi0VSerim5eFUPdNmSdlt91K9nEIUAAAAAAGAs8heMSDiVpzvjxrIeW6Ihm48eypNtPV7EjFysmV8DAAAAAIBM5SwYkXQqT5Hq4m25oHtRPFr1ghfvV2WzKVKemRd/kg0AAAAAAJCdXAUjnLmF/lN59nLmZboQCEQY9bUNaRYqco5oBAAAAAAAmcvRbBpmKs/mhjyIPVYEAAAAAACYNLnpGeHMXZKytGT3NYEIAAAAAADyLB/BiERTeQIAAAAAgEmWi2BE8qk8AQAAAADApJr8YETiqTwBAAAAAMAkm/BgRPKpPAEAAAAAwGSb6GBE4qk8AQAAAADAxMvR1J4AAAAAAOA4yMdsGgAAAAAA4NggGAEAAAAAADJFMAIAAAAAAGSKYAQAAAAAAMgUwQgAAAAAAJApghEAAAAAACBTBCMAAAAAAECmCEYAAAAAAIBMEYwAkJpTm5dby0tSNZ8BAAAAoJ9TU59/8b35GZPGmZLZy5fkbLkoBbOo3dyW52svZd98zrXjfnwWqot35IpKj3ZzQ56svTNLJ5szd0duTBdV5m3L5sZLqQ/KvInN95JK/wWZ/rguT17tmWU2SjKrvueCOr5DDdm8vyp18wkAAAA46QhGRJqShXvXpWw+RVKNxgejaDQ683Lr5kynsdalrRo2j3LesDnGx+c1zlvJG5/BNFEN+2ePJj8oU11ckSuqkujgyXNVDwbu74Tnu388zRcrsv7eLEykJLPLt+VC7wHmJD8BAACArPzAKZVWzM8Iqs3JtUrwyWa4duO1/M23vzGfhkU1aP7VdTl72mvk/cdH/0n+8s2WvFX/mr8uye//dku2hr7NLB3n4yvJH/3JJfn0dw3Z/vnfyXdmaSzf/VZ++KOv5NPTLWn+Ykv+esLToBOI2HksT/78f8U41snP94O/bcgPVB588eOS/PpNXQ7M8thq/1J+9mPdS6Qhm//hofznv/CO723SsgAAAAAcc/SMiMnvim7/xDQB/+nxqHpdjNuxPj7To+a45p3h1wc3EBH3lYa85HttSe5erSQ7NsNLF5Hdpw9li24QAAAAQCQGsIzpk090L4mWtBI/Kk3OOV9xu7E3v86owaYbifdW5O69OzLrmGUjlPnxZal23n2151gem0+Vl2tmjIjnCRrrucn391uy2xYpVKqSrDqU5JzuTdVuyNcEIgAAAIC+8tUzwilJ9fKCTAcGvtM3/rvbW7L1PqxRZN7fbvtPYtX6c7MyPe01irR477r740cMGoTOdnvq+5cvSbkw6LWQiO0nTpeg7rExbJ4GD2Z5fAOfpJv0LvSmS/p8d5wpORdrkMW4x6b17Kd5An9E3PEFxlQfvNczWjGe/qcs19bUcemBKHvybuf1S6mf0WleHLjvdj0cetMXAAAAQJTc9IxwVMPt1s3b7kwDnYaXVqjIhau35dZcySwIcKpyVv1x++OB+lk//VfrBxpeWqF8Xa6FrRvknPHWaX7o32Cy3Z7+/liN2aOs0iXIP7ZRsj2+M94xuekZ6owU3T9oyUdvgSdVvuuGrGqI3rzuzobQvc6M3OjtPZLk2Hr20ymGr9du1AcGIsZWH9R6027XjzeDG+kpyrU1/7hC8u7KzTuycE4Hf1rSGrDv+62W+m9Rime8z/F45TG6vAIAAADw5aNnROAJcveT25I4c7NyQzWodAPjyFNMs15bNQJFNYoKelC5jS2p7+unxrrRqRst6sfIJ++G/z2Deg0MZXump0Kcp+O26dIjOJ3koKfi6cU/voHjdOiGZ1jPCet88Hta6J9barvr8vb9XidNO70IIvc9Qd6FMfs9cFwS23wfQvm0HxMhZdrEYrahf1TbCU4zqoM319Sxu1kbZx9M2ZIkPYXi5h8AAACAPPSMUA0M0/DSN/lPuhrLqqH4alWe7XhPMc+e736i6z95dp/OqkbFAz1toNvw0vak/npb2uZTP/73tFv9GyVD2Z7fU6F9MKDBZp8uveprD+XB/d7vGJHYxxdjnI6InhO2+eDMLXiBCN1Yvf9QNSj9QISm1lNp+uTphtvIDd33BMcWxtvvQeOSjLM+pBgTIWXaxFFdNIEIHUx5dBiI0Pbfq7x70fA+DH0fSuLU5uWWmy8NaRCIAAAAAAaa+GCEM3fJbWDoXglRTxv3PzTcRlThk+4+1V5jVjfa+j/d7N+t2jTAYjQyhrK9ga8meNKky1jFPD6d7t4rGNEN36rb5V79SU+QyC4fpuSiHpRRj1/Q76n5/ruuRm4Xc2x2AzTGa+iPtz74r8VYNOZj57sl//URHUiK6NXhG9oAmu4rIXrg19ty4+qMOj7dm2aYY18AAAAAx9fEByP8p+PffIhuPIUzjVk3iBC+rj+6f/8eDxHjEhwxnO15DezBx2ufLuMV9/j88Q2iG75+evf2JLDMB//J/aBxQfrwj61/z4Yo8Rr6Y60PJo1sAgqx891SZ9/7jLcRr+dJAibA4ms33/B6BgAAABDThAcjAg3Ofi200Keug4MIfsOub+MkdvfyYWwv5vGmSpdxint8ysB999O7tyeBZT6kTqsExxYm1pSgE1AflP7BuzAp0yaGwUEav4dTzH3w07Dfsb5fdV9vevD0sew2xR38c6FmfgcAAACgr9zMphGtJLMzId31TeMu1pP1xA27EEPZ3uAGY3wR6TJW8Y/PH98gat+dqPQeVr4nZo7NsmfF8J7aj7A+mLqQ3DDLta1k++D15Bj8apZrf0+23PE2hpF/AAAAwMkw4cGIPWm5I+pVpBLxxDE46ODbQMPBb8xGP2mO1ziJ2718KNuL3QvDPl26TcnCsn7nfWXwFKDDkGAQw35P6d0ZHcwgjr1BIut8OGh54yxMz0rVW3KUMyXBWT27+MdmqXO8fRNmzPXBT6NiwrKSIN+7lWR28Y5XPhenzLJ+oqbi1DOF+LNsxNmHKanoP44ZuDg0KP8AAAAA+Ca+Z0T9a28E/PLVO7JQCzSCVMNQN1T01I+6EbDbM8PBwC7n5klxv3fMkzxFH8b2/Pfe+3fV99imS5DbQHOPTzUwK9XohvaQJDk+T1EuXA4EANSx6eCJO91nU88YoduL3UEi63zYr8s3pqF/ZXlJqk4wTXVjVjWKb16Xa4OCNuVLMhvID8fNj/noAIfLL2cVmQ58v1ObUvthPhjjrQ92kue7xw2slPV+61cgVLr2KaAfP3rloXxV5537o0vPcrGwbKYsVWK9hmPSorndZyDTHu4xJg5eAAAAACfXD5xSacX8PJkO6vLr0qycLZxWDeav5OKlWe/fl+fkU7XMbXg9fShbXa2Gkpy/9JV8evqX8ou/qEtY88P50az85LPT8qtf/Bf50PmDkswu/1v52R+bbbjfoZcX5ay/Xf3vR78nzZ//nXznrqPZbq/bH/z0T9VxtuSbt38l3x5+eTirdAny99l8/NXP5S//dtjN0G5Jju/gH5Xkon7Hv3BOfhI4tsJpfVz/Tv7mH/9Upedve74rTT78Rr79+9+T819+JqdPq/z+MpimX7np3G5uy/M/fxfI94Dvfis//JHe9mn5NJAfP3Hz4zM59eutyHzX2/7dD6vufp3+LLBu5Zyc+lXPepnWhx7mGM8W/6Gn/PeXqFwH/P4f6Dz2C+hv5e//R/T63337D+JcUuVD19UvTZq4afiZFH7XkM1fiJxV5eV//rf/PmAfpmThX1+UQlvnddxjLMkf/cklOd34r/L629+YZQAAAAD6ycWYEfW1FXn2oiFt98m10W5Jc2dDnt0Pa3AP7nIe/qTYrDfIka7ettsLSj6WQfJ0CdqTrW1vCkg9COTm62RPrZNLeHzvV2XT9H7wdB9XJz27vitlPuy/lCf3H7vbDSapTp9dPR3mWr8n5So9H+mBDIP7rFbVaft0ZeAsC/uv1kOPN+wVm+zqQy/zmkihIudid6NJXq59/hSlnkHrv5P1pxvd6a/TROXbs0er5rgH74M/dWqSXhFe+g5+lQsAAADAoVNTn3/xvfkZAPpz5uXWzRkpNDfkwdqoA1ia7q10Wy7Itjx7lCRAYKG2JHf1WCRJj81dT2Tz/qr1tLAAAADASXMMZtMAkJn9l7LTVP8fMIbD0NRm3QE5k/VUSM7xAxHtbXmWMMjiDQ5akUoWg8ACAAAAx8TkjxkBYKIctPTYGhU5+2VJfv0mfAyKodC9MH72Eznd3JAnr0YXinBnZ/lnn3mBCIveF9/98A/d8U0KgfE+Ll4acdoAAAAAOUfPCADJ6LE13DErWqolb5YNVUmqc0vu6yCJX5lIRL8C4s3O0lbbsX4N5P1Wz3gfAAAAAAZhzAgAE0VPozpdaMnOxqrURzpIhO4VsSQXW1uy/p7BJwEAAIAsEYwAAAAAAACZ4jUNAAAAAACQqYkPRnz22T8xPwEAAAAAgOOAnhEAAAAAACBTBCMAAAAAAECmCEYAAAAAAIBMEYwAAAAAAACZIhgBAAAAAAAyRTACuebU5uXW8pJUzWcAAAAAwOQ7NfX5F9+bnyeSntrzl7/81nzCqFQX78iVclHazQ15svbOLJ1sztwduTFdFGlvy+bGS6nvm190TMnCvetSVj+1dx7Lk1d77tLOetKQzfurUneXjoAzJbOXL8lZla4Fs6jd3Jbnay/lyK4aecwH5MWY60PWLOpfNk5YPhw7xz3/Suo6tCDTH9c7xwYAwKjQMwLqLmpeptUNu1YonBHH/Wl09E3b3XvpejNUF1fcGz/daH/2KCwQoThnDhshrcObqk8+8Y5VLZSP3k/Dp9L01s3rciHQENIK5Rm5EdWTI+N8sDWM/MMYjLM+ZM2m/mXlJOXDcXTs808fk6o307dloeYtAQBgVAhGQGS/Lt+09Q8taTbqI35qWJJzFXXTluKGTQcirpTVV+inUmvvovf3jN8QaUjjvfuDUpKiuZNsj+xYSzJ7fcbdthssub8iD8y/Zy8aKo23wp+aZZoPttLnH8ZkbPUha5b1LysnJh+OqROQf/W1x7KrrkXlqwSdAQCjRTACyp5sPdI36w9lfeTdMs94N23tA6sbNv1UvhOIGLCvTjHsSZXZvhJ8qjVUTlXO6m2YVy2Cx7n/frVPGmeZD7bS5R/GZ1z1wZlbynZcF+v6Zyfp8Y3tvIShSJt/mdcHK+patN1Q/6/I9FzJWwQAwAgQjEC2aufdd22bX1uMh+DMyzX9Tm57W54naFCEP6kKPtUaLud8xX1yZnWMky5N/iGcfqXg3orcvXdHZjN4Nyfr+uB2+TYNtSxkX//sji/7fDjmclOPsq0P1t5vub0jCpXqxL4yCADIPwawnAglmV2+LRfaG/Jg7Z07Q8TFmRkpmxuWdrshOxur4eMiKN7AWSK7Tx/Klv4bZ0oWrl9S6/tPcBqyGVy/tiR3r1bMhwDVyNfjL0RsRuneT/25Ojcr09Pezb+mu0U/73oaqfZlObAvffUf+Mt7PaN1eJwDhP69+y75jBTUfnrHMAxxj7Hn+KzzwZM43w2vfFUC+9tS+abK2OuIQUCHlH/x2ZSzIDMAW8/Ahe7xndFpXgyUicC2Xos74KEeZ0Cn3a5Kuy11/EeWhWzUUXl5TaXpYSOjJc2dN/L2VZ/XiFwqfc1geFqcHj+2sqsP3bxy2hrhoH6W9W9Ikh7fuPIhuST1KMh2vZNRj0ZfH3z2+eDz9jVwjQEAYMjoGTEJTLfitpyR2UV18b96GIjQCoWKXLkZ/bTHGzirJS11s6BvHu7eVDdlwRtz/V2BG4lON9MeA9919ffz44H6WT+Fui1XAg1ErVC+LteC3Tr1YF+xGrJKv3EI1Pam3Ufyb5LdFKkG5Nchfz/Up6ZJjjHAOh+MpPnuUjf7XvkKblvdrJZn3DK2UOvpkjus/EvCppz5/L8P3IBrneM7p4M/Xpp5/O7V52XBDHjoUnXu7OWlziCI/rILl6e8nzt0Q3hFpWmwAaUVpTx9XW4sz/d/qhgYDC8TWdSHrFnWv7Ga9HxIXI+MvustRa9HPRou2/zrsd9qqf8WpXjG+wwAwLDRM2ISdD0hb0nzxbq8fb/ntSPdp926kal+Dn3qYp7syrY82y66N3PuU+PX72Tf/YKSVGsidfV9kcz2my9WZL1fF1Pzd23V6BR1819QN2SbG1tS39ffrZ/C6Jsf9WPk0yHz9Crmk/+g5E9ovHQ52+h5QuYeg4z2Ka3lMcbOB5dNvpt1Cl4ZW+/8riRObVauqe8oqPIXncYpji0J63Jm9k//qPYxON2r+8TVPT4luP/6pl0/0dQ/q+97pr5v32zf1busa5v+9szT2w9+2it6WklVby+oLx6Un8HpXKN7e6Q1rvrg190sngRrGZXRgGTHN758iM+iHrkO1+s8gU+03smoR6OvD7b5F8KcH2WEPU0AACcbwYgJ4N2cFKNvDvwGU+jv/ZvvlrTVHUa7q5EZT9yGfmc/ldBusP5+djXYAgb9PlKg4T3o5mncrI8xfj54bPJ9UDqqhr6z17lxPSLFsSVhW8687tPqh6j9cxsMPQEFf1mwbvnfH1xm/i64P972GrL5VDUqwtLMfM/JupE3Zcxt7fQXL+iW0MjL6JiPLwNW9Ujx19PBAD1w6BEhdUg73vUo+/Jim3+hTuQ5DACQJV7TmAB+d/vdjYiG9v6BuDM+hvG7pxaKqkH6MHEgQt8seVM1hnc7DfLnUW++6H9j4navD2OmREvelTVHMziYY4xMg0jx88Flle970tIFqTAj1xanxDnS77lPIEKzzr9krMqZuml2X+PRAYQBN9jB/fdflWluB+qef5yBZf7fHY6UPyUVvT3Rr1DpQfNC/ulGsfu3yIx1/YPLsh4F19O9Evrpnm2CejRUtvkHAMCYEIwYO39+8sHvb4byb753Hls+VYnb0Pf3U48WHt5A9Eexj5rarOq/p5q0nWAa3nloYPjH+M2H6EZ0uIQBF8t81/PHbzZb7pgLN9yb/zuyMDcVa7R06/xLxK6cdZb1GW/DCyh0739n3I3AsrDj9P4uMFK+mVUEvfzpaQ//PdvR753rwSO7l4+i14B9/YtrvMc3arb1yHa941+Psi0v1vkAAMCYEIwYO9MIbX6Ifn/Ufwoe0lBNffMde6pGv7EcPUhhWMPuUMqgizJo/vbxS3GMCafMtM/3PamvPZQHTx/L5k5D2v4AcW5Qot988unzLx67cuYvi04P0/Oka//9p7LBZWHHaf4usE9+TwndtTrYoAj7R/fmrGRVRo8vu3pkvx71aLhs8yGSH/Se+GsvACCvCEaMm2mE9nvqX73sdVM92lBNf/Md+ymJ/wQr8sn9oH2JEXSJYm6IJt/ghnSUZE+rhtDo2t+T+qtVeaJv9J9uSLOtgxILfebnT5F/SaQuZ1FC8sYP8nUdU8hx9gkGFor9AjjIln39Q1yWaWxmyIlaj3qUlWT55wW9Az3CAAAYMoIRY+Y/GYp88lBb8gajCr0hSH/z3XnKPKBh13mCFfnkfsC++A06Gwctd8yMib9h7dNoHSRuPnhs8n1KFvQ4EeZTl/13sr7dUD/0mcItTf4lkK6cRe2/noHDH10+kDdh4wuEBQdD/s6b8k6VyUo18hUXp1Ya8PqLypNl7734W317pSCWFPUvH0ru1M9ueVF1eXQS1qOOopw9H1KO3RkxzLgPPetRj0bBNv96He0RBgDAsBGMGDOvESpSvqpvpIKNRX3joG489ajXSvNFyDRgqW++/afMFZkO3MQ5tSmp9tz9dRrLUU/u/UZcn3dVXeVLMqtuLn2OvlFdnJeq+Zxn/vu6cV+1OBQ/H1wW+e7MXZKyHidi+Y4s9N7c6+ljZ7xyNtCI88+2nH386DVqyleXutLMqc2rhoqZClQJBhTCAoFxl8n7D9LU/y/MqDRVxx/cppsmd+TG1dtysWYWhnAbBm5G9m+M5V9L2pEj8A6Pff1LK6Pjm1uQC2WvLBZ0PRxBgbGpR1r9ax3MVPs1fdu9jlUddY4x9eDWTW9qTu1I3pzIejS68mKbf6HMubZrcF8AAIaMqT3Hyp9qUT/5L0rB3FD1Cp3eUIuYKi2J4DSKQd3TjPnTk+lBt8LnRve/J3p6sv5TnPWf1sxPp8BUixPIm1KtFXNqzm7x8sGwzPeobXQ0N9wR2MN3PU3+xZWmnJmpTs2nLm31fY2iXOmZNjUsvzrTDHa232ef/CnyIugpDvXMArHSM840e+grTf3Lg+76O6rjTF6PfJ0pJXu0m9uy87ESuR71aJjs86+b+Z7g9MYAAIwAPSPGyu9y/kaePPJmOQg+MNE3cZtPowfuCn1im9D+q3V3u4da0tzZkLddDb3BrwUMfKLtjir+WHa7tqW+Ut8gqWPs35D1p6SsyLmJfeyVbhyHePngsc33/Vd64MoNNw+6ypnKVz2NZnQgQkuTf3GlKWfvZN0cW4d/XI9WzfcF8yYsv8yyru332af3q2a8jZ408evtoPTc1gOIKjoNXxOISCdd/cuD/Q+mvLhGdZxJ69Gh+tqKPHuxLU19ftHruPXgsaoHdSn2GzSRejRE9vkX5PakU/+nVwQAYNToGTFOzrzcujkjkqJnw4lh0qrAE2QAJ5bpCTDhvcS68ZQ9V/yeKlxrAQAZoGfEGHXmBE/Rs+HE2H8pO/rl4hG9Kw0AE682676SkKcn1v5T9oHjCWHsHD8QoQNHBCIAABkgGDFGg19tQFD99bbosTUu3Fw6FgNeAkBsuneYeWI9nNeihkTv1707stA1ALPiD0DpjnPRkB16/000d0wSPxBBDxYAQEZ4TWNsBg/WhxC1Jbk105KdjZdS524JwLFXkurcrExPe4EIPYbCRPFfoTMfjzq+g4oeD4eDgPYfLBQAgOEjGDE2vEcLAOhPT/E8XdAB2NUJDsDqqagXZLpcPAxK6IETG2/k7Ssat5POmVuSi60tWX9P7xUAQLYIRgAAAAAAgEwxZgQAAAAAAMgUwQgAAAAAAJCpiQ9G8IoGAAAAAADHCz0jAAAAAABApghGAAAAAACATBGMAAAAAAAAmSIYAQAAAAAAMkUwAgAAAAAAZOrU1OdffG9+nnjVxRW5UjYflHZ7W3YevZS6+QwAAAAAACZfjnpGlKRYMD8ahcKMXFmcMp8AAAAAAEAe5KpnRBdnXm7dnJFCc0MerL0zCwEAAAAAwKTL75gR+3X5pi3S/nhgFgAAAAAAgDzIbzDCqcrZQku++bBnFgAAAAAAgDzIbzDiTFEK7YZ8vW8+AwAAAACAXMhtMKJ6riLtRl2IRQAAAAAAkC85DUZMSaUs0m7xigYAAAAAAHmTz2CEc0b0LJ/lmSWpOt4iAAAAAACQD7md2tOpLcm1qxU3KKG1dx7Lk1f0lAAAAAAAYNLl9jWNizOHgQiNVzYAAAAAAMiHXPaMqC6uyBU9ZsTOhjz/8E72GcUSAAAAAIDcyGHPCDN4pftaBoEIAAAAAADyJn/BCDN4Ja9lAAAAAACQT/kLRpwpSkFa0jownwEAAAAAQK7kLhjhFIvqvy1p8XoGAAAAAAC5lLtgxCefFPU7GvLRfAYAAAAAAPmSs2CEN3iltA+EjhEAAAAAAORTfoIRzpTMLl8XNxbxkQEjAAAAAADIq1NTn3/xvfl54lQXV+SKjj50acjm/VWpm08AAAAAACBfcvWaRru5LZtPCUQAAAAAAJBnE90zAgAAAAAAHD+5m00DAAAAAADkG8EIAAAAAACQKYIRAAAAAAAgUwQjAAAAAABApghGAAAAAACATBGMAAAAAAAAmSIYAQAAAAAAMkUwAgAAAAAAZIpgBAAAAAAAyBTBCJmShXsrcnd5XhyzBAAAAAAAjM6JD0Y4c5ekLC3Z3Xgp+2YZAAAAAAAYnZMdjHDm5dp0UaT5RraIRAAAAAAAkIn8BiNqS3JrMd2rFdXLM1KQhmyuvTNLAAAAAADAqOU2GFE9V5GCHNi/WlFbkitlkfbOltTNIgAAAAAAMHo5DUaUpFgQaX88MJ+TKsnsTEV9wbY8f7VnlgEAAAAAgCzkIxjhzMvC4rxU/XcynKqc1cGIlh9IKEl1bklmayXzeYDarFxQ6ze3GbQSAAAAAICsnZr6/Ivvzc+TSwcjrs9IuaA/tKTZFvVzUdrNhkihIgW9vN2Q3Y3VGANR6qk8r0u5vS3PHhGMAAAAAAAga/kIRrhKUl1ckCvlovnsa0lz5428ffUuVmDBmbsjN6ZFdp8+ZAYNAAAAAADGIEdjRuxJfe2hPHvRMJ+V5rY8e/pQ1mMGIpjKEwAAAACA8cvZAJZTcvGqHniyJe22+qhfz0gQVGAqTwAAAAAAxi9HwYiSzC7rsR4asvnooTzZ1uNFzMjFmvn1IEzlCQAAAADARMhNMKK6eFsu6F4Nj1a9YML7VdlsipRn5sWfZCMaU3kCAAAAADApcjO153QhEIgw6msb0ixU5NyAaIQzt8BUngAAAAAATIgczaZhy0zl2dyQB4wVAQAAAADA2OVsAMvknLlLUpaW7L4mEAEAAAAAwCQ43sEIpvIEAAAAAGDiHOtgBFN5AgAAAAAweY5vMIKpPAEAAAAAmEjHNBjBVJ4AAAAAAEyqYxmMYCpPAAAAAAAm1wmY2hMAAAAAAEyS4z2bBgAAAAAAmDgEIwAAAAAAQKYIRgAAAAAAgEwRjAAAAAAAAJkiGAEAAAAAADJFMAIAAAAAAGSKYAQAAAAAAMgUwQgAAAAAAJApghEAAAAAACBTp6Y+/+J783POTcnCvetSbm/Ls0cvZd8sHcx2PYxDdfGOXCkXpd3ckCdr78zSELUluXu1Yj4car5YkfX35kMY2/V6xN5PACdISWaXb8uFQkM2769K3SyddJzPRs+ZuyM3pouJrzXDlc/yOXqky2TITz5MRn0G8uHY9Ixw5i5JWVqyu5EsoBC5nm6U3luRu8vz4phF3fRJUf3+3pJUzZK80ifNXByHMy/T6oZYKxTOROSLxyl6f9etIY0BFwXb9bok2E8gN/UPQ3BGigX1v3ZLPnoLJh/nswyU5FxFp3FLWgfekmFJdn7JYfnMBOkyGfKTD598Mpr6DBxHxyMYoW6Wrk2rit98I1uJIhHR63UapYWKnAu9+zInxeaHnEfJzU1QHi6y+3X5pq1/aEmzUe8bdNp/9VAe3F8x/x7Lrl4vxjHartclwX7ipMtR/UN6zhnRlw1pH+TnvMD5LAN+I6shXw81gROeX/JYPrNAukyG3ORDyavPOhhBgQEGOhbBiOrlGXWCashmwu6j/dZzo5rqAt6Wopw9XzJLA8xJsf0x72FP/yYoDxfZPdl6pIMED2X91Z5ZFoftMdquZ7ufOHnyVP+QlnO+4l43ml/n6VUHzmcjN7JGVrLzSz7L5+iRLpMhN/ngVOWsu6N5f1gJZCP/wYjaklwpq2vtzlaySt93vSmpqN/ppxT6iVDhkzPe4gD/pNhu5fzmrHZe9KEe64us7TGehLTBeFHGThS67iLUmaJ3PzHshxsJzy+Uz3Cky2TITT6Mqj4Dx1TOB7A0g9lI0sEnB6znzMutmzMiO4/luSzIjenWkcFyqosrcqXckt2nD4++GuKUpHp5wX3PVp+QXO2G7G5vydb7sOCF2Z/2hjxwe2mo9edmZXraC3hoeuCw5+p36Z+aTMnC8iUpF/RJfZDwQYL0O6g3puXw2B31ndcD36mOdXNDrXdkZ9VxLXanS7u5LTuvX0r9jB44stidnhGDSUrCwUaP7G9Msdez3s+0+Z4wPa1176dTm5eLMzMqv73ftlV+74Tmt89uP7MpZ4Fjey0ye/mSXFDrufVVffeWqi9HloUcp6PKwLUZlW/+BtUNU3Pnjbx91Zt36eufFn97h2zT08vvSmCfWyo9VZ7r9IzaWEqO2rdzKt3P9uTh87X+9SlZOcvyvKuZ7ZnB1z4mrkd2+Z5Y6vNuxvmQ+HrrsT+/2OZDdLp8PK/3ZRiD3aU5v3SXz3rCfLBOz6T5Z+7PCmpfvPLSq/c4ekXnQ9/yaZkutqzPu4nSM1D3Mrn+pZE2H5Lm+6Gk1yOvLkTVZ/841HeoNsYTepsB8gOnVFoxP+dP7V/Kz36sKvz/83/LXycJQA5a7w9/Kv+iUpRf/eK/yF//9g/lYqUip369JR86f1uS85e+kk9P/1J+8Rd1CX6FPin/2c/+WH5cOC2nzTLX6aJ8WvlKzv+gIX/z7W/MQsP5p/IvZj6T3zVey9/87p/Krf/ruvz4s2LX+qcL5+R/C1s3KafmXuC69i2Kuvhs//zv5Dvz0fcHP/1TOVvwjv2UOun+m2tfSuF04BtPt+SbnnRxbyD0cfWky+nCZ3L2y6o4/+gzdSHrTk/nR7Pyk8+O7mn7F/9VXidIh+D+hmV3lLjrWe9nmnzvm54llZ76xiD5MYfy97Pdlh/+6E/lqr74BzZ6WpVtnYc/+Oav5NvewmKR775sytkfyld/fE4K7VPi/POL8oV/YOqYTv+wJF+pZWcDyz794f8nb/82ePuhb/6X5Z+p80lw19QfS+Gzc/KTH/2eNIN1KHX9S7i9AKv0VOezf3P1J91/p7bVSc9f/1KdF1Oek7roG8b/U/73f/6lfBqShz+5NMRyluV512XKmmpQtC/9K7n6Y7VPweTvV49S5HtSqc67NuelFPlgdb01rOqDbT4MSJff/8e6LKiG5nrv9hJKdX7xz4Vq+d//ofxZwvpgk55W+Wfuz9q6vITmbeA4evPCpnymTBcrlufd5OmZ8fUvlRT5YHN9cNldj7y6oMr7297f6fT6P1Q6izRfPJZ///8SiAC0HPeMUJV6RFN5dkf4zd93ReHDlinqQuA/UeqO0KqL3Nys+k79u5DeFGa9drslUii6J9vNjS2p7+sTlT4Z3nZfKZHe7aVmk4Ymqqt7lWwX5Ybeb32sr9Wxul+g9rcmUu+KwJvt6B/VtjY3DiP7bkRdfYcbbR60Hyadkj09isirgWzXU+Lup3W+H6ZnJ7Jvk55xmf30tNRxrctblb/u97pPv9S+6A322c/k+Z5ROdM3Kfopm/5Zff8ztf/7wePtXdZ1jP72zFOgD/6+KSpdZlW66Kcf0eXArB87n9JszyY9/Sc4Xp6vd36nzme1WZOeEb3DrBw+MTpSzvT++U/BjqSXZTkzeZrZeTdY1qzqkW05S8mk0+DvP8yHROcl23ww62mJrreuNOeXpPlgWT5TM9uN+72mfOqxsg7zwe/JMKg+WKSnZf71f+qs+PXsyH5als9U6WLD8rxrk55jvf4lZJ0PtvXP9nrkr6f2L9gzp5PWvfkKILdjRgx9Ks+Azntp7h+8k0ZT/a98/nBqrNDBK9UJz5zA9clXz8V++P3qBPZqVZ7tqJNoyICY/swdBXWC1a+GPHikT7D+iWpP6q+3xR3MfNisBs0yA2JJRZ3E9Q3BY+9YO1+g9rfnJFtdNBcCfZFQJ23/QqDtv1+VJy8a3ocB++GlU8L3BW0HGk0xQGnc/bTNdz899Q3Hk7Xo9GwPaeT7zswy+qKrB7HrXJCV/XeyvmH2s2fav3T5nlE5M+92usfm19kDPXBtzzIjWB687akbDnVzt667owb/UKXLlkmXQjFkAFwtYf1Lt73k6dmhbvr0Tdghlf86Pe8/dvdlOIEIlRxzC96NX1g50/unzqFPnm64N5PBTdqWs6zPu/44Q3b1KEU5Synu+czPh6TnJbt8sL/eemzPL8nzIU75dI8v5nkgtoTnF798dueD97vB9SFpetrn38BxAyLe17cun6nSJYVE513L9Bzn9S8h23yIU/9cvdcHy+tR6OCVgUCEDgYRiAC65TMYoSr2sKfyPOQPXnk4FVb9a32yqkil5n3uXOwCg1d6QQ61TJ0ko6LA+x+8m47eATG9i6u+iKgLeJ/3x2waxn2Z40g0eJ5/g6MuCO0XMU6qKs2n3YTxLmz99N8Pf4qyhFOfheRVLLbrJdhPq3wPpKd+8tHPsAZX9W/+IgN4+wdHbwLS5ntG5cxvCDW3A8fm14vAMv/vDtPUnCfUeeHKzRW5ey/kn//EKUqi+pdye0nT07UnLfeENSPXFqfEOTLFsbohS1IX+5qSi/rcrG9u1Q1j5Neqm9yubaYoZ1mfd63q0TDKWSoxz2cpzks2+ZDmeutKXB8s8yFm+dTrjfv6fpgPqjGbtD4kTE/7/DNTJvYpj9VzXqO8q5wNpXxapIuV5Odd2/Qc6/UvIat8sL4+WF6PNP/e0eyH7n3hpYUXiBhW8B44TnIZjBjFVJ4d/kU1GCV9/0HczhHnptyP3sWuOzLv32h+8yH6JBnOn4+4IY2IC/ioZu4IO46B/BNtn4teUGff+zyl9y50g/bDPHlJ+PTIO0adtt7nuGzXi7+fdvk+vPSMy26+7NT7mVE58+ttcFl0/Q6UBzNKfRqJ6l/a7SVMT1997bFsNltSKF+XG+5N5x1ZmFM3yOb3Q+OfdxNOhWZfzrI+79rVo2GUs3Tinc+yzgf7662RtD5Y5kP8dOk+vmFIdn0P5oO74Ii+9SFhelrnn//UObI8BupZ4LiHUz7dBUf0TRdLSc+7tuk5zutfMnb5YJ3vltcjLVif3VeKTI8VtRPJHqQBJ0j+ghG1UUzlGeBfVLui3CGvauiTV+fEErgA9jvZhH63f7N32BOjV9gFI72Y+9zDv1DFvegNvkiaJ2+D9sNc/OI+5fGYY+yTtuFs11Ni76ddvg8tPWMz+9nvohwSwEu7n9mUM//pTnBZWL0wfxfIK/+GQz+leXC//7/wpzjJ6l/a7SVNz0N76sb4oTx4qm6Od/STtaKUp9UNsntzPJzut67Qc+Ng9uUs6/OuXT1KX85Sink+yzYfYtadPmUqaX2wzYf46RLdyLKT7PyStj4kS88U+TfwPOEfR3fDL9vyOQxJzru26TnO619Sdvlgne+W1yPN32ZhZsUd20S/FrSpX5EpzMhFv3c1gC45C0aUZHZGXfR0V7tEJ7j463kn2aMnL+9VjaIUHXOy7nNSDGf2QemKoPsR5jiR/n4XmsTMyT1R5HcU+zL4IqP5+ZLsgu9/d/+nekfZrpdgP0eV750nR0nLZwSzn/0uyl6Po8ENlm798j2jchb69MP8XXBZSCPRZ/8+bMh2YrDb3hDSc9+8I6tvMJ9uSLOtb44XZHboXSSGLaKcZX3eNWXIth6NajyIQezOuyGizksjy4eI663LPm+Hnw/9zoNpJDy/9DnHefql2ZDriis8//xG8NE89TgDy1OEqPKZKl2GYGjn3ZD0HOv1L6GR5cOw658f4CmKnuZU9xTS43fUX73xelfPzA+/VyFwDOQqGOEPKNP1flsMSdbrRFd7/9Ad1EcP/lN1T17d3b7MO34SGFeiR3AwnLeBJyD+xTW6ITeimxX/5J6I7b4UpRjy2q6+gHQGFxpw8xCZL/3EaEiHsl1Pibuf6fI9YlA2dwRrr0GT+GYswqCbP7/HUfiTPdt8z6ichT39CMv7kL/bb+nBwNTNWKUaeXPh1ErRNx4J61+67dmk55Qs6PeVzacu++9kfdsEZ0PT24IZNK0wPRvofdZDle/w40tezrI+7/rdhaPo94rD6lHqcpZSsvNu8vOSXT7YX289yfM2XT6kv/4llvD84pdPu/qQND3t869THkMuzcEu8eHXbovymSpdbNicdy3Tc5zXv4TS5YNF/bO9HnXqnR4fItgr5J28pXcEEClHwQgzoExzI9E7z8nWM9HVsBPafl2+UWenQsW8g9bTOPN6ToiUr96RBXUS7tAXukVvKir3BNUzeFm/i6vLvzj0eectlfIlmQ3sr+Pu73z4CXhgdPqojx+9i1b56pJUA2dupzYvC8tmKiYl/ObB50e9KzId6KLo1Ka6vjOKvmB2/s5RF6Bg/vSRfL34+2mb7345K0zflltz+nvVBd+UsVs3vam0tOiLdjLefur8W3G3d3gY+kJ+pzMFWPPFatcTuFT5nlE5Cwu0xF3mjyOjby5uLKv6EtymX+ev3h584xG3/qXZnkV6ugOi6feVl73zWWBz6pfqhtk8ZRsac37VdefKss7DQF3TdU+XNVW+r/V0UbYtZ1mfd/165Nfbw131js1vRPXWo6GVMyvxz2e256W058Gk11uXRX2wzYfhXP9SiHl+SVUfLNIzVf6pxuWFy4E6pNZZWPa6xDebXnpH3Z9lVT5t2Z53bdJzIq5/Mdnmg3X9s7wedQI3O+tHBqrcp3cEEOnU1OdffG9+nmhu1HtaEo9Gm2g9x0y/o6cAChnk0vsuc1IP+b7q4krn5HZU2Dql8PmIA/xt6nfzkgVhBvG3bT72CN2eHhVY3TS7Xc9ivyajLqD+HM+92uq4G0W5EiN/DtO+W/90idh2e3vAvOu268Xdz3T5HlXO3LnTP6qLp0U9CWf2U5Vd3StIdzsME14eUuR7RuXMS8fueuktC+ZLn7wy+xmle673Xvb1L0rk9qzSM7osd6jt6RHKw4/Pgn/+NR976fL9fK23/tmUs3T1Lzm/HjXUzWhFyqEH2Gfu+VTlLJ0k593k56V0+ZD8emtY1ge7fEhxHkwlyfklZX2wTE+r/IvMA+/vvz6v9zM8PbMun7ai6lxHxHk3aXp6fz+u618SafIhRf2zuB4NKg/+7xOfe4BjLh89I9RJYXRTeQaEdVsL8KdG0if2sG6r9bUVeabnDPf+yNNWN5k76uJxP+RkF6OL38CIsLU92Xr0WHbNkwRfW5+gn0acSMMi5AO9k/WnG93b0Wny4rFq2K+a4w5Pz6D9V+vu6NKHvHQ92gU3SG97W5qB/NDHt7s96CmG7Xpx9zNdvnvlTO2f2k5bp6W6KG4+VRe3tboUQwfhsuXv5xt5osqKPq6uou1uN2qAKvt8z6achb1jGtYzqk9evV817/EG81v9qZ8ufW/Ektc/2+3Zpacuy3oANS9Nu/LdT9eh3GgG7L/05tDv2Z6+adzV0z4eCURoNuUs6/Out712Y0vWj9Qj9bObf32mQ0xVztJJct5Nfl4axnkwyfXWY1sf7PLB/jyYTpLzS7p8sE1Pq/xTeRBWHv2/7+xnyLpZl09btufdZOk57utfEmnyIUX9s7geDSoPfu+Ivq9/ACdQLnpGHI3WxmO7HpBP5ilAjB4csZgnA0IUH4C1IZ+XgKGifALAOE1+z4jaiKfyBI4J931T9f+hvb/qz9Gd9AkiABjDPi8Bw0T5BIDxmvBgRCn2lJzdbNcDJpjuqeDOM94zinPXIFUN2RlSmR9FF1QAx0zG5yUgEconAEy0iX5Nw3ZwINv1gIlmXptwX/UM1WfQtsQGDxoFANmel4CEKJ8AMNFyM5sGAE1PK7Ug02VvsFWXHpCp8UbevhrmQHa8RwsgrqzOS4ANyicATCqCEQAAAAAAIFP5mNoTAAAAAAAcGwQjAAAAAABApghGAAAAAACATBGMAAAAAAAAmSIYAQAAAAAAMkUwAgAAAAAAZIpgBAAAAAAAyBTBCAAAAAAAkKljFIyYkoV7K3J3eV4cswQAAAAAAEyeYxOMcOYuSVlasrvxUvbNMgAAAAAAMHmORzDCmZdr00WR5hvZIhIBAAAAAMBEOxbBiOrlGSlIQzbX3pklfdSW5NYir3IAAAAAADAu+Q9G1JbkSlmkvbMldbOon+q5ihTkgFc5AAAAAAAYk5wHI0oyO1MRaW/L81d7Zlk/JSkW1J9/PDCfAQAAAABA1vIdjKjNyoWCSHM7YtBKZ14WFuel6r+T4VTlrA5GtPzARUmqc0syWyuZzwAAAAAAYNROTX3+xffm55zRU3lel3J7W5496hOMuD4j5YL+0JJmW9TPRWk3GyKFihT08nZDdjdWGfgSAAAAAICM5DYY4czdkRvTIrtPHw4IJJSkurggV8pF89nXkubOG3n76h3jRwAAAAAAkKF8vqaRaCrPPamvPZRnLxrms9LclmdPH8o6gQgAAAAAADKXy2BEoqk8XVNy8aoe6LIl7bb6qF/PIAoBAAAAAMBY5C8YkXAqT3fGjWU9tkRDNh89lCfberyIGblYM78GAAAAAACZylkwIulUniLVxdtyQfeieLTqBS/er8pmU6Q8My/+JBsAAAAAACA7uQpGOHML/afy7OXMy3QhEIgw6msb0ixU5BzRCAAAAAAAMpej2TTMVJ7NDXkQe6wIAAAAAAAwaXLTM8KZuyRlacnuawIRAAAAAADkWT6CEYmm8gQAAAAAAJMsF8GI5FN5AgAAAACASTX5wYjEU3kCAAAAAIBJNuHBiORTeQIAAAAAgMk20cGIxFN5AgAAAACAiZejqT0BAAAAAMBxkI/ZNAAAAAAAwLFBMAIAAAAAAGSKYAQAAAAAAMgUwQgAAAAAAJApghEAAAAAACBTBCMAAAAAAECmCEYAAAAAAIBMEYwAAAAAAACZIhgBIDWnNi+3lpekaj4DAAAAQD+npj7/4nvzMyaNMyWzly/J2XJRCmZRu7ktz9deyr75nGvH/fgsVBfvyBWVHu3mhjxZe2eWTjZn7o7cmC6qzNuWzY2XUp+0zJvYclZS+b0g0x/X5cmrPbPMRklm1fdcUMd3qCGb91elbj4BAAAAk4ZgRKQpWbh3XcrmUyTVaHwwikajMy+3bs50Gk9d2qqh8SjnDY1jfHxe47yVvDEYTBPVsH/2aPKDMtXFFbmiKokOnjxX9WDi9nfCy5mffs0XK7L+3ixMpCSzy7flQu8B5qT8AAAA4OT6gVMqrZifEVSbk2uV4JPGcO3Ga/mbb39jPg2LamD8q+ty9rTXyPuPj/6T/OWbLXmr/jV/XZLf/+2WbA19m1k6zsdXkj/6k0vy6e8asv3zv5PvzNJYvvut/PBHX8mnp1vS/MWW/PWEp0EnELHzWJ78+f9KdqyZmPxydvC3DfmByvMvflySX7+py4FZHlvtX8rPfqx7pTRk8z88lP/8F97xvU1a9gAAAICM0TMiJr8ruv0TzAT8p7mj6nUxbsf6+EyPmuOad4ZfH9xARKpXDEYoL+WstiR3r1as0tLLB5Hdpw9li24QAAAAyBEGsIzpk090L4mWtBI/ukzOOV9xu5U3v86oAaUbbfdW5O69OzLrmGUjlPnxZal23n2151gem0+Vl2tmjIjnkxqIUHJTzt5vyW5bpFCpSrLqV5JzuvdWuyFfE4gAAABAzuSrZ4RTkurlBZkODESnb8R3t7dk631Yo8i8T932n4yq9edmZXraa6Ro8d5198ePGDQonO321PcvX5JyYdBrIRHbT5wuQd1jY4zmSbfl8Q18sm3Su9CbLunz3XGm5FysQQ/jHpvWs5/mifgRcd/3H1N98F7PaE3g0/iU9ciaSkc9EGVPWdl5/VLqZ3QeFwemlV0Ph978BAAAAPIjNz0jHNVwu3XztjvTQKfhpRUqcuHqbbk1VzILApyqnFV/3P54oH7WT//V+oGGl1YoX5drYesGOWe8dZof+jdgbLenvz9WY/Yoq3QJ8o9tlGyP74x3TG56hjojRfcPWvLRW+BJle+6Yakahjevu7MTdK8zIzd6e48kObae/XSK4eu1G/WBgYix1Qe13rTb9ePN5L0WkKIeWfPTMaSsXLl5RxbO6WBTS1oD0mq/1VL/LUrxjPc5Hq/8R9cPAAAAYJ40vh8AABpcSURBVHLlo2dE4Aly95Pbkjhzs3JDNaj0Df+Rp4pmvbZqBIpqpBT0IG8bW1Lf10+NdaNTNyLUj5FP3g3/ewb1GhjK9kxPhThPx23TpUdwOslBT8XTi398A8fp0A3BsJ4T1vng97TQP7fUdtfl7fu9Tpp2ehFE7nuCvAtj9nvguCS2+T6E8pmfMQpS5kUsZhv6R7Wd4LSmOlh0TaW1W5Ti7IMpy5KkZ1Lc8gIAAABMoBz0jFA3/KbhpW+6n3Q1llVD8dWqPNvxniqePd/9RNd/8uw+LVU3+Q/0NH5uw0vbk/rrbWmbT/3439Nu9W8kDGV7fk+F9sGABpR9uvSqrz2UB/d7v2NEYh9fjHE6InpO2OaDM7fgBSJ04/H+Q9XA8wMRmlpPpemTpxtuozN03xMcWxhvvweNSzLO+pCjMQpS5kUc1UUTiNDBm0eHgQht/70qKy8a3oeh70NJnNq83HLLQUMaBCIAAACQQxMfjHDmLrk3/LpXQtTTv/0PDbcRVfiku4+z15jVjbb+Txv7d3M2DbAYN/1D2d7AVxM8adJlrGIen0537xWM6IZv1e0Cr/6kJ0hklw9TclEPyqjHE+j3FHv/XVejs4s5NrsBE+M19MdbH/zXYkbXwB+a2OXMkv+6ig5cRfQi8Q1tAE33lRA90OxtuXF1Rh2f7r0zzLEvAAAAgOxMfDDCfzr+zYfoxlM405h1gwjh6/qj7ffv8RAxLsERw9me18AefLz26TJecY/PH98guuHrp3dvTwLLfPCfpA8aF6QP/9j692yIEq+hP9b6YNJoZA38IYpdzix10qrP+B7xerokYAIsvnbzDa9nAAAAILcmPBgRaHD2a6GFPgUdHETwG3Z9Gwuxu3sPY3sxjzdVuoxT3ONTBu67n969PQks8yF1WiU4tjCxpgSdgPqg9A/eTYKUeRHD4KCQ36Mq5j74edYvbd+vuq9TPXj6WHab4g42ulAzvwMAAAByJjezaUQryexMSHd907iL9WQ9ccMuxFC2N7jBGF9EuoxV/OPzxzeI2ncnKr2Hle+JmWOz7FkxvKfoI6wPpi5MvmHWI1vJ9sHryTH4VTDX/p5sueN7DKO8AAAAAOMx4cGIPWm5I+pVpBLxBDA46ODbwI2835iNftIcr7EQt7v3ULYXuxeGfbp0m5KFZf0O+srgKUCHIcGggv2e0rszOphBHHuDRNb5cNDyxlmYnpWqt+QoZ0qCs3p28Y/NUud4+ybMmOuDn0bFDMqKqySzi3e88rk4ZZbFkKCcdUu6vaipOPXMJP4sG3H2YUoq+o9jBi4ODSovAAAAwOSa+J4R9a+9EenLV+/IQi3QCFINQ91w0FM/6pvy3Z4ZDgZ2OTdPivu98x3rabExjO3576H376rvsU2XILfB5B6famBWqtEN7SFJcnyeoly4HAgAqGPTwRN3us+mnjFCt9+6g0TW+bBfl29MQ//K8pJUnWCa6salaqTevC7XBgVtypdkNpAfjpsf89EBDpdfzioyHfh+pzal9sN8MMZbH7LlBlbKer/1KwkqXWMW0OTlzJNkex8/euWvfFWXFfdHl57lYmHZTJGqxHrtx6R9c7vPwKk93GNMHLwAAAAAJscPnFJpxfw8mQ7q8uvSrJwtnFYN5q/k4qVZ79+X5+RTtcxteD19KFtdd/ElOX/pK/n09C/lF39Rl7DmgPOjWfnJZ6flV7/4L/Kh8wclmV3+t/KzPzbbcL9DLy/KWX+7+t+Pfk+aP/87+c5dR7PdXrc/+OmfquNsyTdv/0q+PfzycFbpEuTvs/n4q5/LX/7taJuhSY7v4B+V5KJ+575wTn4SOLbCaX1c/07+5h//VKXnb3u+K00+/Ea+/fvfk/NffianT6v8/jKYpl+56dxubsvzP38XyPeA734rP/yR3vZp+TSQHz9x8+MzOfXrrch819v+3Q+r7n6d/iywbuWcnPpVz3qZ1oce5hjPFv+hp/yPxu//gc5jv4D+Vv7+f8SoF0qiehSQZHvfffsP4lxS5VGfG740eeDm2WdS+F1DNn8hclaVz//53/77gH2YkoV/fVEKbV224qZpSf7oTy7J6cZ/ldff/sYsAwAAAPIlF2NG1NdW5NmLhrTdJ9dGuyXNnQ15dj+swT24y3n4k2Kz3iBHul7bbi8o+VgGydMlaE+2tr0pIPUgkJuvkz1FTi7h8b1flU3T+8HTfVyd9Oz6rpT5sP9Sntx/7G43mKQ6fXb1dJhr/Z5cq/R8pAcWDO6zWlWn7dOVgbMe7L9aDz3esFdssqsPvcxrIoWKnIvZSyENf4pST9x6kbwe+ZJt752sP93ozm+dB6qcPHu0atJ58D74U7Um6RXh5efgV8cAAACASXZq6vMvvjc/A0B/zrzcujkjheaGPFgbdQBL072VbssF2VaN/CQNdlsZbq+2JHf12CdJ09JdT2Tz/qr1NLQAAADAuBGMAJBIdXFFrpTDXwNyBxd1x62IozG4QW0a7M0Xg3uXDEVG23PUdtxBWNvJgx5+Gjd3Hsv6K3pHAAAAIJ+OwdSeALJUd6eVLMqFm0tHBub0XvcYEt0Lw/QcyCQQkdH23GCCZSBC22+ZwTOnb7szf3j/juYFAAAAMMnoGQEgudqS3Jppyc7GS6kP/V2GklTnZmV62gsMPBn56yBZbc+8AlIQaavtPFfbsUs6PbvLglwxM394YvQyAQAAACYIwQgAE0VPozpd0IEO1bgeeqDjqCy358wtycXWlqy/5/UKAAAAnGwEIwAAAAAAQKYYMwIAAAAAAGRq4oMRn332T8xPAAAAAADgOKBnBAAAAAAAyBTBCAAAAAAAkCmCEQAAAAAAIFMEIwAAAAAAQKYIRgAAAAAAgEwRjECuObV5ubW8JFXzGQAAAAAw+U5Nff7F9+bniaSn9vzlL781nzAq1cU7cqVclHZzQ56svTNLJ5szd0duTBdF2tuyufFS6vvmFx1TsnDvupTVT+2dx/Lk1Z67tLOeNGTz/qrU3aUj4EzJ7OVLclala8Esaje35fnaSzmyq0Ye8wF5Meb6kDWL+peNE5YPx85xz7+Sug4tyPTH9c6xAQAwKvSMgLqLmpdpdcOuFQpnxHF/Gh1903b3XrreDNXFFffGTzfanz0KC0QozpnDRkjr8Kbqk0+8Y1UL5aP30/CpNL1187pcCDSEtEJ5Rm5E9eTIOB9sDSP/MAbjrA9Zs6l/WTlJ+XAcHfv808ek6s30bVmoeUsAABgVghEQ2a/LN239Q0uajfqInxqW5FxF3bSluGHTgYgrZfUV+qnU2rvo/T3jN0Qa0njv/qCUpGjuJNsjO9aSzF6fcbftBkvur8gD8+/Zi4ZK463wp2aZ5oOt9PmHMRlbfciaZf3LyonJh2PqBORffe2x7KprUfkqQWcAwGgRjICyJ1uP9M36Q1kfebfMM95NW/vA6oZNP5XvBCIG7KtTDHtSZbavBJ9qDZVTlbN6G+ZVi+Bx7r9f7ZPGWeaDrXT5h/EZV31w5payHdfFuv7ZSXp8YzsvYSjS5l/m9cGKuhZtN9T/KzI9V/IWAQAwAgQjkK3aefdd2+bXFuMhOPNyTb+T296W5wkaFOFPqoJPtYbLOV9xn5xZHeOkS5N/CKdfKbi3Infv3ZHZDN7Nybo+uF2+TUMtC9nXP7vjyz4fjrnc1KNs64O191tu74hCpTqxrwwCAPKPASwnQklml2/LhfaGPFh7584QcXFmRsrmhqXdbsjOxmr4uAiKN3CWyO7Th7Kl/8aZkoXrl9T6/hOchmwG168tyd2rFfMhQDXy9fgLEZtRuvdTf67Ozcr0tHfzr+lu0c+7nkaqfVkO7Etf/Qf+8l7PaB0e5wChf+++Sz4jBbWf3jEMQ9xj7Dk+63zwJM53wytflcD+tlS+qTL2OmIQ0CHlX3w25SzIDMDWM3Che3xndJoXA2UisK3X4g54qMcZ0Gm3q9JuSx3/kWUhG3VUXl5TaXrYyGhJc+eNvH3V5zUil0pfMxieFqfHj63s6kM3r5y2Rjion2X9G5KkxzeufEguST0Ksl3vZNSj0dcHn30++Lx9DVxjAAAYMnpGTALTrbgtZ2R2UV38rx4GIrRCoSJXbkY/7fEGzmpJS90s6JuHuzfVTVnwxlx/V+BGotPNtMfAd139/fx4oH7WT6Fuy5VAA1ErlK/LtWC3Tj3YV6yGrNJvHAK1vWn3kfybZDdFqgH5dcjfD/WpaZJjDLDOByNpvrvUzb5XvoLbVjer5Rm3jC3UerrkDiv/krApZz7/7wM34Frn+M7p4I+XZh6/e/V5WTADHrpUnTt7eakzCKK/7MLlKe/nDt0QXlFpGmxAaUUpT1+XG8vz/Z8qBgbDy0QW9SFrlvVvrCY9HxLXI6PvekvR61GPhss2/3rst1rqv0UpnvE+AwAwbPSMmARdT8hb0nyxLm/f73ntSPdpt25kqp9Dn7qYJ7uyLc+2i+7NnPvU+PU72Xe/oCTVmkhdfV8ks/3mixVZ79fF1PxdWzU6Rd38F9QN2ebGltT39XfrpzD65kf9GPl0yDy9ivnkPyj5ExovXc42ep6Quccgo31Ka3mMsfPBZZPvZp2CV8bWO78riVOblWvqOwqq/EWncYpjS8K6nJn90z+qfQxO9+o+cXWPTwnuv75p10809c/q+56p79s323f1Luvapr898/T2g5/2ip5WUtXbC+qLB+VncDrX6N4eaY2rPvh1N4snwVpGZTQg2fGNLx/is6hHrsP1Ok/gE613MurR6OuDbf6FMOdHGWFPEwDAyUYwYgJ4NyfF6JsDv8EU+nv/5rslbXWH0e5qZMYTt6Hf2U8ltBusv59dDbaAQb+PFGh4D7p5GjfrY4yfDx6bfB+Ujqqh7+x1blyPSHFsSdiWM6/7tPohav/cBkNPQMFfFqxb/vcHl5m/C+6Pt72GbD5VjYqwNDPfc7Ju5E0Zc1s7/cULuiU08jI65uPLgFU9Uvz1dDBADxx6REgd0o53Pcq+vNjmX6gTeQ4DAGSJ1zQmgN/dfncjoqG9fyDujI9h/O6phaJqkD5MHIjQN0veVI3h3U6D/HnUmy/635i43evDmCnRkndlzdEMDuYYI9MgUvx8cFnl+560dEEqzMi1xSlxjvR77hOI0KzzLxmrcqZumt3XeHQAYcANdnD//VdlmtuBuucfZ2CZ/3eHI+VPSUVvT/QrVHrQvJB/ulHs/i0yY13/4LKsR8H1dK+Efrpnm6AeDZVt/gEAMCYEI8bOn5988Pubofyb753Hlk9V4jb0/f3Uo4WHNxD9Ueyjpjar+u+pJm0nmIZ3HhoY/jF+8yG6ER0uYcDFMt/1/PGbzZY75sIN9+b/jizMTcUaLd06/xKxK2edZX3G2/ACCt373xl3I7As7Di9vwuMlG9mFUEvf3raw3/PdvR753rwyO7lo+g1YF//4hrv8Y2abT2yXe/416Nsy4t1PgAAMCYEI8bONEKbH6LfH/Wfgoc0VFPffMeeqtFvLEcPUhjWsDuUMuiiDJq/ffxSHGPCKTPt831P6msP5cHTx7K505C2P0CcG5ToN598+vyLx66c+cui08P0POnaf/+pbHBZ2HGavwvsk99TQnetDjYowv7RvTkrWZXR48uuHtmvRz0aLtt8iOQHvSf+2gsAyCuCEeNmGqH9nvpXL3vdVI82VNPffMd+SuI/wYp8cj9oX2IEXaKYG6LJN7ghHSXZ06ohNLr296T+alWe6Bv9pxvSbOugxEKf+flT5F8SqctZlJC88YN8XccUcpx9goGFYr8ADrJlX/8Ql2UamxlyotajHmUlWf55Qe9AjzAAAIaMYMSY+U+GIp881Ja8wahCbwjS33x3njIPaNh1nmBFPrkfsC9+g87GQcsdM2Pib1j7NFoHiZsPHpt8n5IFPU6E+dRl/52sbzfUD32mcEuTfwmkK2dR+69n4PBHlw/kTdj4AmHBwZC/86a8U2WyUo18xcWplQa8/qLyZNl7L/5W314piCVF/cuHkjv1s1teVF0enYT1qKMoZ8+HlGN3Rgwz7kPPetSjUbDNv15He4QBADBsBCPGzGuEipSv6hupYGNR3zioG0896rXSfBEyDVjqm2//KXNFpgM3cU5tSqo9d3+dxnLUk3u/EdfnXVVX+ZLMqptLn6NvVBfnpWo+55n/vm7cVy0Oxc8Hl0W+O3OXpKzHiVi+Iwu9N/d6+tgZr5wNNOL8sy1nHz96jZry1aWuNHNq86qhYqYCVYIBhbBAYNxl8v6DNPX/CzMqTdXxB7fppskduXH1tlysmYUh3IaBm5H9G2P515J25Ai8w2Nf/9LK6PjmFuRC2SuLBV0PR1BgbOqRVv9aBzPVfk3fdq9jVUedY0w9uHXTm5pTO5I3J7Ieja682OZfKHOu7RrcFwCAIWNqz7Hyp1rUT/6LUjA3VL1CpzfUIqZKSyI4jWJQ9zRj/vRketCt8LnR/e+Jnp6s/xRn/ac189MpMNXiBPKmVGvFnJqzW7x8MCzzPWobHc0NdwT28F1Pk39xpSlnZqpT86lLW31foyhXeqZNDcuvzjSDne332Sd/irwIeopDPbNArPSMM80e+kpT//Kgu/6O6jiT1yNfZ0rJHu3mtux8rESuRz0aJvv862a+Jzi9MQAAI0DPiLHyu5y/kSePvFkOgg9M9E3c5tPogbtCn9gmtP9q3d3uoZY0dzbkbVdDb/BrAQOfaLujij+W3a5tqa/UN0jqGPs3ZP0pKStybmIfe6UbxyFePnhs833/lR64csPNg65ypvJVT6MZHYjQ0uRfXGnK2TtZN8fW4R/Xo1XzfcG8Ccsvs6xr+3326f2qGW+jJ038ejsoPbf1AKKKTsPXBCLSSVf/8mD/gykvrlEdZ9J6dKi+tiLPXmxLU59f9DpuPXis6kFdiv0GTaQeDZF9/gW5PenU/+kVAQAYNXpGjJMzL7duzoik6NlwYpi0KvAEGcCJZXoCTHgvsW48Zc8Vv6cK11oAQAboGTFGnTnBU/RsODH2X8qOfrl4RO9KA8DEq826ryTk6Ym1/5R94HhCGDvHD0TowBGBCABABghGjNHgVxsQVH+9LXpsjQs3l47FgJcAEJvuHWaeWA/ntagh0ft1744sdA3ArPgDULrjXDRkh95/E80dk8QPRNCDBQCQEV7TGJvBg/UhRG1Jbs20ZGfjpdS5WwJw7JWkOjcr09NeIEKPoTBR/FfozMejju+gosfD4SCg/QcLBQBg+AhGjA3v0QIA+tNTPE8XdAB2dYIDsHoq6gWZLhcPgxJ64MTGG3n7isbtpHPmluRia0vW39N7BQCQLYIRAAAAAAAgU4wZAQAAAAAAMkUwAgAAAAAAZGrigxG8ogEAAAAAwPFCzwgAAAAAAJApghEAAAAAACBTBCMAAAAAAECmCEYAAAAAAIBMEYwAAAAAAACZOjX1+Rffm58nXnVxRa6UzQel3d6WnUcvpW4+AwAAAACAyZejnhElKRbMj0ahMCNXFqfMJwAAAAAAkAe56hnRxZmXWzdnpNDckAdr78xCAAAAAAAw6fI7ZsR+Xb5pi7Q/HpgFAAAAAAAgD/IbjHCqcrbQkm8+7JkFAAAAAAAgD/IbjDhTlEK7IV/vm88AAAAAACAXchuMqJ6rSLtRF2IRAAAAAADkS06DEVNSKYu0W7yiAQAAAABA3uQzGOGcET3LZ3lmSaqOtwgAAAAAAORDbqf2dGpLcu1qxQ1KaO2dx/LkFT0lAAAAAACYdLl9TePizGEgQuOVDQAAAAAA8iGXPSOqiytyRY8ZsbMhzz+8k31GsQQAAAAAIDdy2DPCDF7pvpZBIAIAAAAAgLzJXzDCDF7JaxkAAAAAAORT/oIRZ4pSkJa0DsxnAAAAAACQK7kLRjjFovpvS1q8ngEAAAAAQC7lLhjxySdF/Y6GfDSfAQAAAABAvuQsGOENXintA6FjBAAAAAAA+ZSfYIQzJbPL18WNRXxkwAgAAAAAAPLq1NTnX3xvfp441cUVuaKjD10asnl/VermEwAAAAAAyJdcvabRbm7L5lMCEQAAAAAA5NlE94wAAAAAAADHT+5m0wAAAAAAAPlGMAIAAAAAAGSKYAQAAAAAAMgUwQgAAAAAAJApghEAAAAAACBTBCMAAAAAAECmCEYAAAAAAIBMEYwAAAAAAACZIhgBAAAAAAAyRTBCpmTh3orcXZ4XxywBAAAAAACjc+KDEc7cJSlLS3Y3Xsq+WQYAAAAAAEbnZAcjnHm5Nl0Uab6RLSIRAAAAAABkIr/BiNqS3FpM92pF9fKMFKQhm2vvzBIAAAAAADBquQ1GVM9VpCAH9q9W1JbkSlmkvbMldbMIAAAAAACMXk6DESUpFkTaHw/M56RKMjtTUV+wLc9f7ZllAAAAAAAgC/kIRjjzsrA4L1X/nQynKmd1MKLlBxJKUp1bktlayXweoDYrF9T6zW0GrQQAAAAAIGunpj7/4nvz8+TSwYjrM1Iu6A8tabZF/VyUdrMhUqhIQS9vN2R3YzXGQJR6Ks/rUm5vy7NHBCMAAAAAAMhaPoIRrpJUFxfkSrloPvta0tx5I29fvYsVWHDm7siNaZHdpw+ZQQMAAAAAgDHI0ZgRe1JfeyjPXjTMZ6W5Lc+ePpT1mIEIpvIEAAAAAGD8cjaA5ZRcvKoHnmxJu60+6tczEgQVmMoTAAAAAIDxy1EwoiSzy3qsh4ZsPnooT7b1eBEzcrFmfj0IU3kCAAAAADARchOMqC7elgu6V8OjVS+Y8H5VNpsi5Zl58SfZiMZUngAAAAAATIrcTO05XQgEIoz62oY0CxU5NyAa4cwtMJUnAAAAAAATIkezadgyU3k2N+QBY0UAAAAAADB2ORvAMjln7pKUpSW7rwlEAAAAAAAwCY53MIKpPAEAAAAAmDjHOhjBVJ4AAAAAAEye4xuMYCpPAAAAAAAm0jENRjCVJwAAAAAAk+pYBiOYyhMAAAAAgMl1Aqb2BAAAAAAAk+R4z6YBAAAAAAAmDsEIAAAAAACQKYIRAAAAAAAgUwQjAAAAAABApghGAAAAAACADIn8/6UmXEH50ZQiAAAAAElFTkSuQmCC;" vertex="1" parent="1">
          <mxGeometry x="550" y="240" width="1059" height="1020" as="geometry" />
        </mxCell>
      </root>
    </mxGraphModel>
  </diagram>
</mxfile>
